<svg width="92" height="8" viewBox="0 0 92 8" fill="none" xmlns="http://www.w3.org/2000/svg">
<path d="M1.07726 7.72926C5.27866 7.72926 7.43324 5.95153 9.37235 4.40569C11.2037 2.85984 12.8197 1.54587 16.0515 1.54587C19.2834 1.54587 20.8993 2.85984 22.7307 4.40569C24.562 5.95153 26.7166 7.72925 31.0257 7.72925C35.2272 7.72925 37.3817 5.95153 39.3208 4.40568C41.1522 2.85984 42.7681 1.54587 46 1.54587C49.2318 1.54587 50.8478 2.85984 52.6791 4.40568C54.6183 5.95153 56.7728 7.72925 60.9742 7.72925C65.1756 7.72925 67.3302 5.95153 69.2693 4.40568C71.1007 2.85984 72.7166 1.54586 75.9485 1.54586C79.1803 1.54586 80.7962 2.85983 82.6276 4.40568C84.5667 5.95153 86.7213 7.72925 90.9227 7.72925C91.5691 7.72925 92 7.42008 92 6.95632C92 6.49257 91.5691 6.1834 90.9227 6.1834C87.6909 6.1834 86.0749 4.86943 84.2436 3.32359C82.3044 1.77774 80.1499 1.82021e-05 75.9485 1.85694e-05C71.7471 1.89367e-05 69.5925 1.77774 67.6534 3.32359C65.822 4.86943 64.2061 6.1834 60.9742 6.1834C57.7424 6.1834 56.1265 4.86944 54.2951 3.32359C52.356 1.77774 50.2014 2.08203e-05 46 2.11876e-05C41.7986 2.15549e-05 39.644 1.77774 37.7049 3.32359C35.8735 4.86944 34.2576 6.18341 31.0257 6.18341C27.7939 6.18341 26.178 4.86944 24.3466 3.32359C22.4075 1.77775 20.2529 2.34385e-05 16.0515 2.38058e-05C11.8501 2.41731e-05 9.69553 1.77775 7.75642 3.32359C5.92504 4.86944 4.30911 6.18341 1.07726 6.18341C0.430893 6.18341 -2.29963e-05 6.49258 -2.29558e-05 6.95633C-2.29152e-05 7.42009 0.430893 7.72926 1.07726 7.72926Z" fill="#0C3C87"/>
</svg>
