<svg width="32" height="32" viewBox="0 0 32 32" fill="none" xmlns="http://www.w3.org/2000/svg">
<path d="M17.852 15.952C18.8573 16.316 19.8887 16.9313 20.946 17.798C22.0207 18.6473 22.558 19.9213 22.558 21.62C22.558 22.7293 22.1593 23.544 21.362 24.064C20.582 24.5667 19.7847 24.87 18.97 24.974C18.1727 25.0607 17.332 25.104 16.448 25.104L13.926 25.156L12.34 25.182C12.0627 25.182 11.872 25.0953 11.768 24.922C11.664 24.7487 11.612 24.506 11.612 24.194L11.638 18.422V17.174C11.638 16.5153 11.664 15.9173 11.716 15.38L11.794 12.208C11.794 11.844 11.8027 11.3067 11.82 10.596C11.8373 9.868 11.8547 9.40867 11.872 9.218C11.8893 9.07933 11.898 8.83667 11.898 8.49C11.898 7.88333 11.872 7.45 11.82 7.19C11.8027 7.15533 11.794 7.112 11.794 7.06C11.794 6.956 11.8893 6.878 12.08 6.826C12.2533 6.774 12.7127 6.70467 13.458 6.618C14.2033 6.514 14.8793 6.462 15.486 6.462C17.1327 6.462 18.4327 6.79133 19.386 7.45C20.3567 8.10867 20.842 9.35667 20.842 11.194C20.842 12.858 20.3393 14.158 19.334 15.094C18.8833 15.4753 18.3893 15.7613 17.852 15.952ZM15.018 14.626C15.018 14.7993 15.0093 14.9553 14.992 15.094C14.9747 15.2153 14.966 15.3107 14.966 15.38C14.966 15.484 14.9747 15.5533 14.992 15.588C15.0093 15.6053 15.0613 15.614 15.148 15.614C15.4947 15.614 16.032 15.5187 16.76 15.328C17.488 15.1373 18.19 14.73 18.866 14.106C19.542 13.482 19.88 12.5807 19.88 11.402C19.88 10.154 19.6633 9.22667 19.23 8.62C18.7967 8.01333 18.2507 7.632 17.592 7.476C16.9507 7.30267 16.1273 7.216 15.122 7.216L15.07 8.88C15.0353 10.128 15.018 11.0553 15.018 11.662V14.626ZM15.824 24.61C17.5227 24.61 18.7967 24.3413 19.646 23.804C20.4953 23.2493 20.92 22.5127 20.92 21.594C20.92 19.2713 19.9233 17.694 17.93 16.862C17.046 16.5327 16.0493 16.3767 14.94 16.394C14.9227 16.446 14.914 16.5153 14.914 16.602C14.8967 16.6887 14.888 16.888 14.888 17.2L14.94 18.864L14.992 20.268C14.992 20.5107 14.9833 20.684 14.966 20.788L14.94 21.464L14.992 22.998L15.044 24.194C15.044 24.402 15.0787 24.532 15.148 24.584C15.2347 24.6187 15.3473 24.636 15.486 24.636C15.642 24.6187 15.7547 24.61 15.824 24.61Z" fill="#0C3C87"/>
<circle cx="16" cy="16" r="15" stroke="#0C3C87" stroke-width="2"/>
</svg>