<svg width="93" height="102" viewBox="0 0 93 102" fill="none" xmlns="http://www.w3.org/2000/svg">
<circle cx="46.5" cy="46.5" r="46.5" fill="#FFF5F5"/>
<path d="M42.0608 76.3598C41.9096 76.4121 41.6639 76.4972 41.3237 76.6149C41.0213 76.7196 40.8193 76.7472 40.7175 76.6978C40.6157 76.6484 40.5256 76.5103 40.4471 76.2835L39.8757 74.4495L37.4177 66.9827L33.4092 55.0368C33.0166 53.9028 32.2024 51.3063 30.9665 47.2473C30.6772 46.2892 30.2039 44.7387 29.5467 42.5958C28.8765 40.4151 28.4381 39.1488 28.2316 38.797L27.7627 37.6259C27.4225 36.6432 27.5548 36.0471 28.1596 35.8377L30.2771 35.1682C30.6551 35.0373 30.9356 35.2365 31.1188 35.7657C31.1843 35.9547 31.2439 36.188 31.2977 36.4657C31.3384 36.7056 31.398 36.9389 31.4765 37.1657C31.651 38.0365 32.2959 40.2049 33.411 43.6708C33.7774 44.7292 34.6309 47.4391 35.9715 51.8005C37.2597 56.0107 38.0608 58.5694 38.3749 59.4766C39.1338 61.669 40.1334 64.4341 41.3736 67.772C42.6008 71.0722 43.3633 73.0305 43.6614 73.6469C43.7777 73.8606 43.8882 74.1186 43.9929 74.421C44.0845 74.6856 44.0932 74.8943 44.0191 75.0469C43.9827 75.1865 43.8897 75.3457 43.74 75.5245C43.5655 75.7542 43.0058 76.0326 42.0608 76.3598Z" fill="#0C3C87"/>
<path d="M42.9541 77.7557C42.8073 77.6922 42.5687 77.589 42.2382 77.4461C41.9445 77.319 41.7769 77.2029 41.7352 77.0977C41.6935 76.9925 41.7203 76.8298 41.8156 76.6095L42.6329 74.8711L45.8634 67.7047L50.9757 56.1878C51.4521 55.0864 52.6053 52.6217 54.4355 48.7937C54.8692 47.8917 55.5674 46.4287 56.5301 44.4045C57.5086 42.3436 58.0406 41.1138 58.126 40.7149L58.5711 39.5346C58.984 38.5801 59.4841 38.2298 60.0715 38.4839L62.0853 39.4203C62.4524 39.5791 62.5248 39.9155 62.3025 40.4295C62.2231 40.613 62.1095 40.8254 61.9616 41.0665C61.8296 41.2709 61.716 41.4832 61.6207 41.7035C61.1612 42.4636 60.1722 44.4981 58.6537 47.8072C58.2091 48.8352 57.0082 51.41 55.051 55.5318C53.1574 59.5067 52.02 61.9347 51.6389 62.8158C50.7179 64.9451 49.5875 67.6594 48.2476 70.9586C46.9236 74.2211 46.1633 76.1803 45.9668 76.8362C45.9082 77.0723 45.8154 77.3372 45.6884 77.6309C45.5772 77.8879 45.4427 78.0477 45.285 78.1102C45.1639 78.1886 44.9878 78.2431 44.7566 78.2739C44.4728 78.3254 43.872 78.1527 42.9541 77.7557Z" fill="#0C3C87"/>
<path d="M41.7352 77.0977L43.5946 76.3612L43.5946 76.3612L41.7352 77.0977ZM41.8156 76.6095L40.0057 75.7586L39.9924 75.7869L39.98 75.8155L41.8156 76.6095ZM42.6329 74.8711L44.4429 75.7221L44.4496 75.7076L44.4562 75.6931L42.6329 74.8711ZM45.8634 67.7047L47.6868 68.5266L47.6914 68.5161L45.8634 67.7047ZM50.9757 56.1878L52.8037 56.9992L52.8076 56.9905L52.8113 56.9818L50.9757 56.1878ZM54.4355 48.7937L52.633 47.9269L52.6311 47.931L54.4355 48.7937ZM56.5301 44.4045L58.3362 45.2635L58.3367 45.2624L56.5301 44.4045ZM58.126 40.7149L56.2547 40.0091L56.2017 40.1495L56.1703 40.2963L58.126 40.7149ZM58.5711 39.5346L56.7355 38.7406L56.7166 38.7843L56.6998 38.8288L58.5711 39.5346ZM60.0715 38.4839L60.9148 36.6704L60.8903 36.659L60.8655 36.6483L60.0715 38.4839ZM62.0853 39.4203L61.242 41.2338L61.2665 41.2452L61.2913 41.256L62.0853 39.4203ZM61.9616 41.0665L63.6417 42.1515L63.6543 42.1319L63.6665 42.1121L61.9616 41.0665ZM61.6207 41.7035L63.3322 42.7382L63.4025 42.6221L63.4563 42.4975L61.6207 41.7035ZM58.6537 47.8072L56.836 46.9731L56.8268 46.9931L56.8181 47.0132L58.6537 47.8072ZM55.051 55.5318L56.8566 56.392L56.8577 56.3897L55.051 55.5318ZM48.2476 70.9586L46.3946 70.2061L46.3944 70.2065L48.2476 70.9586ZM45.9668 76.8362L44.0509 76.2621L44.0372 76.3081L44.0256 76.3547L45.9668 76.8362ZM45.285 78.1102L44.5484 76.2507L44.3643 76.3237L44.1981 76.4313L45.285 78.1102ZM44.7566 78.2739L44.493 76.2913L44.4458 76.2976L44.399 76.3061L44.7566 78.2739ZM43.7481 75.9201C43.7478 75.92 43.7476 75.9198 43.7473 75.9197C43.747 75.9196 43.7467 75.9195 43.7464 75.9193C43.7461 75.9192 43.7458 75.9191 43.7455 75.919C43.7453 75.9188 43.745 75.9187 43.7447 75.9186C43.7444 75.9185 43.7441 75.9183 43.7438 75.9182C43.7435 75.9181 43.7432 75.918 43.7429 75.9178C43.7426 75.9177 43.7423 75.9176 43.7421 75.9175C43.7418 75.9173 43.7415 75.9172 43.7412 75.9171C43.7409 75.9169 43.7406 75.9168 43.7403 75.9167C43.74 75.9166 43.7397 75.9164 43.7394 75.9163C43.7391 75.9162 43.7388 75.9161 43.7385 75.9159C43.7382 75.9158 43.738 75.9157 43.7377 75.9156C43.7374 75.9154 43.7371 75.9153 43.7368 75.9152C43.7365 75.915 43.7362 75.9149 43.7359 75.9148C43.7356 75.9147 43.7353 75.9145 43.735 75.9144C43.7347 75.9143 43.7344 75.9141 43.7341 75.914C43.7338 75.9139 43.7335 75.9138 43.7332 75.9136C43.7329 75.9135 43.7326 75.9134 43.7323 75.9132C43.732 75.9131 43.7317 75.913 43.7314 75.9128C43.7311 75.9127 43.7308 75.9126 43.7305 75.9125C43.7302 75.9123 43.7299 75.9122 43.7296 75.9121C43.7293 75.9119 43.729 75.9118 43.7287 75.9117C43.7284 75.9115 43.7281 75.9114 43.7278 75.9113C43.7275 75.9112 43.7272 75.911 43.7269 75.9109C43.7266 75.9108 43.7263 75.9106 43.726 75.9105C43.7257 75.9104 43.7254 75.9102 43.7251 75.9101C43.7247 75.91 43.7244 75.9098 43.7241 75.9097C43.7238 75.9096 43.7235 75.9094 43.7232 75.9093C43.7229 75.9092 43.7226 75.909 43.7223 75.9089C43.722 75.9088 43.7217 75.9086 43.7214 75.9085C43.7211 75.9084 43.7208 75.9082 43.7204 75.9081C43.7201 75.908 43.7198 75.9078 43.7195 75.9077C43.7192 75.9076 43.7189 75.9074 43.7186 75.9073C43.7183 75.9072 43.718 75.907 43.7177 75.9069C43.7174 75.9068 43.717 75.9066 43.7167 75.9065C43.7164 75.9064 43.7161 75.9062 43.7158 75.9061C43.7155 75.906 43.7152 75.9058 43.7149 75.9057C43.7145 75.9056 43.7142 75.9054 43.7139 75.9053C43.7136 75.9051 43.7133 75.905 43.713 75.9049C43.7127 75.9047 43.7123 75.9046 43.712 75.9045C43.7117 75.9043 43.7114 75.9042 43.7111 75.9041C43.7108 75.9039 43.7105 75.9038 43.7101 75.9036C43.7098 75.9035 43.7095 75.9034 43.7092 75.9032C43.7089 75.9031 43.7086 75.903 43.7082 75.9028C43.7079 75.9027 43.7076 75.9026 43.7073 75.9024C43.707 75.9023 43.7066 75.9021 43.7063 75.902C43.706 75.9019 43.7057 75.9017 43.7054 75.9016C43.7051 75.9014 43.7047 75.9013 43.7044 75.9012C43.7041 75.901 43.7038 75.9009 43.7034 75.9008C43.7031 75.9006 43.7028 75.9005 43.7025 75.9003C43.7022 75.9002 43.7018 75.9001 43.7015 75.8999C43.7012 75.8998 43.7009 75.8996 43.7005 75.8995C43.7002 75.8994 43.6999 75.8992 43.6996 75.8991C43.6993 75.8989 43.6989 75.8988 43.6986 75.8987C43.6983 75.8985 43.698 75.8984 43.6976 75.8982C43.6973 75.8981 43.697 75.898 43.6967 75.8978C43.6963 75.8977 43.696 75.8975 43.6957 75.8974C43.6953 75.8973 43.695 75.8971 43.6947 75.897C43.6944 75.8968 43.694 75.8967 43.6937 75.8965C43.6934 75.8964 43.6931 75.8963 43.6927 75.8961C43.6924 75.896 43.6921 75.8958 43.6917 75.8957C43.6914 75.8955 43.6911 75.8954 43.6907 75.8953C43.6904 75.8951 43.6901 75.895 43.6898 75.8948C43.6894 75.8947 43.6891 75.8945 43.6888 75.8944C43.6884 75.8943 43.6881 75.8941 43.6878 75.894C43.6874 75.8938 43.6871 75.8937 43.6868 75.8935C43.6864 75.8934 43.6861 75.8933 43.6858 75.8931C43.6854 75.893 43.6851 75.8928 43.6848 75.8927C43.6844 75.8925 43.6841 75.8924 43.6838 75.8922C43.6834 75.8921 43.6831 75.8919 43.6828 75.8918C43.6824 75.8917 43.6821 75.8915 43.6817 75.8914C43.6814 75.8912 43.6811 75.8911 43.6807 75.8909C43.6804 75.8908 43.6801 75.8906 43.6797 75.8905C43.6794 75.8903 43.679 75.8902 43.6787 75.8901C43.6784 75.8899 43.678 75.8898 43.6777 75.8896C43.6774 75.8895 43.677 75.8893 43.6767 75.8892C43.6763 75.889 43.676 75.8889 43.6756 75.8887C43.6753 75.8886 43.675 75.8884 43.6746 75.8883C43.6743 75.8881 43.6739 75.888 43.6736 75.8878C43.6733 75.8877 43.6729 75.8875 43.6726 75.8874C43.6722 75.8873 43.6719 75.8871 43.6715 75.887C43.6712 75.8868 43.6709 75.8867 43.6705 75.8865C43.6702 75.8864 43.6698 75.8862 43.6695 75.8861C43.6691 75.8859 43.6688 75.8858 43.6684 75.8856C43.6681 75.8855 43.6678 75.8853 43.6674 75.8852C43.6671 75.885 43.6667 75.8849 43.6664 75.8847C43.666 75.8846 43.6657 75.8844 43.6653 75.8843C43.665 75.8841 43.6646 75.884 43.6643 75.8838C43.6639 75.8837 43.6636 75.8835 43.6632 75.8834C43.6629 75.8832 43.6625 75.8831 43.6622 75.8829C43.6618 75.8828 43.6615 75.8826 43.6611 75.8825C43.6608 75.8823 43.6604 75.8821 43.6601 75.882C43.6597 75.8818 43.6594 75.8817 43.659 75.8815C43.6587 75.8814 43.6583 75.8812 43.658 75.8811C43.6576 75.8809 43.6573 75.8808 43.6569 75.8806C43.6566 75.8805 43.6562 75.8803 43.6558 75.8802C43.6555 75.88 43.6551 75.8799 43.6548 75.8797C43.6544 75.8796 43.6541 75.8794 43.6537 75.8792C43.6534 75.8791 43.653 75.8789 43.6527 75.8788C43.6523 75.8786 43.6519 75.8785 43.6516 75.8783C43.6512 75.8782 43.6509 75.878 43.6505 75.8779C43.6502 75.8777 43.6498 75.8775 43.6494 75.8774C43.6491 75.8772 43.6487 75.8771 43.6484 75.8769C43.648 75.8768 43.6476 75.8766 43.6473 75.8765C43.6469 75.8763 43.6466 75.8761 43.6462 75.876C43.6458 75.8758 43.6455 75.8757 43.6451 75.8755C43.6448 75.8754 43.6444 75.8752 43.644 75.8751C43.6437 75.8749 43.6433 75.8747 43.643 75.8746C43.6426 75.8744 43.6422 75.8743 43.6419 75.8741C43.6415 75.874 43.6411 75.8738 43.6408 75.8736C43.6404 75.8735 43.64 75.8733 43.6397 75.8732C43.6393 75.873 43.639 75.8729 43.6386 75.8727C43.6382 75.8725 43.6379 75.8724 43.6375 75.8722C43.6371 75.8721 43.6368 75.8719 43.6364 75.8717C43.636 75.8716 43.6357 75.8714 43.6353 75.8713C43.6349 75.8711 43.6346 75.871 43.6342 75.8708C43.6338 75.8706 43.6334 75.8705 43.6331 75.8703C43.6327 75.8702 43.6323 75.87 43.632 75.8698C43.6316 75.8697 43.6312 75.8695 43.6309 75.8694C43.6305 75.8692 43.6301 75.869 43.6298 75.8689C43.6294 75.8687 43.629 75.8686 43.6286 75.8684C43.6283 75.8682 43.6279 75.8681 43.6275 75.8679C43.6272 75.8678 43.6268 75.8676 43.6264 75.8674C43.626 75.8673 43.6257 75.8671 43.6253 75.8669C43.6249 75.8668 43.6245 75.8666 43.6242 75.8665C43.6238 75.8663 43.6234 75.8661 43.623 75.866C43.6227 75.8658 43.6223 75.8656 43.6219 75.8655C43.6215 75.8653 43.6212 75.8652 43.6208 75.865C43.6204 75.8648 43.62 75.8647 43.6197 75.8645C43.6193 75.8643 43.6189 75.8642 43.6185 75.864C43.6181 75.8639 43.6178 75.8637 43.6174 75.8635C43.617 75.8634 43.6166 75.8632 43.6163 75.863C43.6159 75.8629 43.6155 75.8627 43.6151 75.8625C43.6147 75.8624 43.6144 75.8622 43.614 75.8621C43.6136 75.8619 43.6132 75.8617 43.6128 75.8616C43.6124 75.8614 43.6121 75.8612 43.6117 75.8611C43.6113 75.8609 43.6109 75.8607 43.6105 75.8606C43.6102 75.8604 43.6098 75.8602 43.6094 75.8601C43.609 75.8599 43.6086 75.8597 43.6082 75.8596C43.6079 75.8594 43.6075 75.8592 43.6071 75.8591C43.6067 75.8589 43.6063 75.8587 43.6059 75.8586C43.6055 75.8584 43.6052 75.8582 43.6048 75.8581C43.6044 75.8579 43.604 75.8577 43.6036 75.8576C43.6032 75.8574 43.6028 75.8572 43.6024 75.8571C43.6021 75.8569 43.6017 75.8567 43.6013 75.8566C43.6009 75.8564 43.6005 75.8562 43.6001 75.8561C43.5997 75.8559 43.5993 75.8557 43.5989 75.8556C43.5986 75.8554 43.5982 75.8552 43.5978 75.855C43.5974 75.8549 43.597 75.8547 43.5966 75.8545C43.5962 75.8544 43.5958 75.8542 43.5954 75.854C43.595 75.8539 43.5946 75.8537 43.5943 75.8535C43.5939 75.8534 43.5935 75.8532 43.5931 75.853C43.5927 75.8528 43.5923 75.8527 43.5919 75.8525C43.5915 75.8523 43.5911 75.8522 43.5907 75.852C43.5903 75.8518 43.5899 75.8516 43.5895 75.8515C43.5891 75.8513 43.5887 75.8511 43.5883 75.851C43.5879 75.8508 43.5875 75.8506 43.5872 75.8505C43.5868 75.8503 43.5864 75.8501 43.586 75.8499C43.5856 75.8498 43.5852 75.8496 43.5848 75.8494C43.5844 75.8492 43.584 75.8491 43.5836 75.8489C43.5832 75.8487 43.5828 75.8486 43.5824 75.8484C43.582 75.8482 43.5816 75.848 43.5812 75.8479C43.5808 75.8477 43.5804 75.8475 43.58 75.8473C43.5796 75.8472 43.5792 75.847 43.5788 75.8468C43.5784 75.8467 43.578 75.8465 43.5776 75.8463C43.5772 75.8461 43.5768 75.846 43.5764 75.8458C43.5759 75.8456 43.5755 75.8454 43.5751 75.8453C43.5747 75.8451 43.5743 75.8449 43.5739 75.8447C43.5735 75.8446 43.5731 75.8444 43.5727 75.8442C43.5723 75.844 43.5719 75.8439 43.5715 75.8437C43.5711 75.8435 43.5707 75.8433 43.5703 75.8432C43.5699 75.843 43.5695 75.8428 43.5691 75.8426C43.5687 75.8424 43.5682 75.8423 43.5678 75.8421C43.5674 75.8419 43.567 75.8417 43.5666 75.8416C43.5662 75.8414 43.5658 75.8412 43.5654 75.841C43.565 75.8409 43.5646 75.8407 43.5642 75.8405C43.5637 75.8403 43.5633 75.8401 43.5629 75.84C43.5625 75.8398 43.5621 75.8396 43.5617 75.8394C43.5613 75.8393 43.5609 75.8391 43.5605 75.8389C43.56 75.8387 43.5596 75.8385 43.5592 75.8384C43.5588 75.8382 43.5584 75.838 43.558 75.8378C43.5576 75.8377 43.5572 75.8375 43.5567 75.8373C43.5563 75.8371 43.5559 75.8369 43.5555 75.8368C43.5551 75.8366 43.5547 75.8364 43.5542 75.8362C43.5538 75.836 43.5534 75.8359 43.553 75.8357C43.5526 75.8355 43.5522 75.8353 43.5517 75.8351C43.5513 75.835 43.5509 75.8348 43.5505 75.8346C43.5501 75.8344 43.5497 75.8342 43.5492 75.8341C43.5488 75.8339 43.5484 75.8337 43.548 75.8335C43.5476 75.8333 43.5471 75.8331 43.5467 75.833C43.5463 75.8328 43.5459 75.8326 43.5455 75.8324C43.545 75.8322 43.5446 75.8321 43.5442 75.8319C43.5438 75.8317 43.5434 75.8315 43.5429 75.8313C43.5425 75.8311 43.5421 75.831 43.5417 75.8308C43.5412 75.8306 43.5408 75.8304 43.5404 75.8302C43.54 75.83 43.5396 75.8299 43.5391 75.8297C43.5387 75.8295 43.5383 75.8293 43.5379 75.8291C43.5374 75.8289 43.537 75.8288 43.5366 75.8286C43.5362 75.8284 43.5357 75.8282 43.5353 75.828C43.5349 75.8278 43.5345 75.8277 43.534 75.8275C43.5336 75.8273 43.5332 75.8271 43.5327 75.8269C43.5323 75.8267 43.5319 75.8265 43.5315 75.8264C43.531 75.8262 43.5306 75.826 43.5302 75.8258C43.5297 75.8256 43.5293 75.8254 43.5289 75.8252C43.5285 75.8251 43.528 75.8249 43.5276 75.8247C43.5272 75.8245 43.5267 75.8243 43.5263 75.8241C43.5259 75.8239 43.5254 75.8238 43.525 75.8236C43.5246 75.8234 43.5241 75.8232 43.5237 75.823C43.5233 75.8228 43.5228 75.8226 43.5224 75.8225C43.522 75.8223 43.5215 75.8221 43.5211 75.8219C43.5207 75.8217 43.5202 75.8215 43.5198 75.8213C43.5194 75.8211 43.5189 75.8209 43.5185 75.8208C43.5181 75.8206 43.5176 75.8204 43.5172 75.8202C43.5168 75.82 43.5163 75.8198 43.5159 75.8196C43.5155 75.8194 43.515 75.8193 43.5146 75.8191C43.5141 75.8189 43.5137 75.8187 43.5133 75.8185C43.5128 75.8183 43.5124 75.8181 43.512 75.8179C43.5115 75.8177 43.5111 75.8175 43.5106 75.8174C43.5102 75.8172 43.5098 75.817 43.5093 75.8168C43.5089 75.8166 43.5084 75.8164 43.508 75.8162C43.5076 75.816 43.5071 75.8158 43.5067 75.8156C43.5062 75.8154 43.5058 75.8153 43.5053 75.8151C43.5049 75.8149 43.5045 75.8147 43.504 75.8145C43.5036 75.8143 43.5031 75.8141 43.5027 75.8139C43.5022 75.8137 43.5018 75.8135 43.5014 75.8133C43.5009 75.8131 43.5005 75.813 43.5 75.8128C43.4996 75.8126 43.4991 75.8124 43.4987 75.8122C43.4982 75.812 43.4978 75.8118 43.4973 75.8116C43.4969 75.8114 43.4965 75.8112 43.496 75.811C43.4956 75.8108 43.4951 75.8106 43.4947 75.8104C43.4942 75.8103 43.4938 75.8101 43.4933 75.8099C43.4929 75.8097 43.4924 75.8095 43.492 75.8093C43.4915 75.8091 43.4911 75.8089 43.4906 75.8087C43.4902 75.8085 43.4897 75.8083 43.4893 75.8081C43.4888 75.8079 43.4884 75.8077 43.4879 75.8075C43.4875 75.8073 43.487 75.8071 43.4866 75.8069C43.4861 75.8067 43.4857 75.8066 43.4852 75.8064C43.4848 75.8062 43.4843 75.806 43.4838 75.8058C43.4834 75.8056 43.4829 75.8054 43.4825 75.8052C43.482 75.805 43.4816 75.8048 43.4811 75.8046C43.4807 75.8044 43.4802 75.8042 43.4798 75.804C43.4793 75.8038 43.4788 75.8036 43.4784 75.8034C43.4779 75.8032 43.4775 75.803 43.477 75.8028C43.4766 75.8026 43.4761 75.8024 43.4756 75.8022C43.4752 75.802 43.4747 75.8018 43.4743 75.8016C43.4738 75.8014 43.4734 75.8012 43.4729 75.801C43.4724 75.8008 43.472 75.8006 43.4715 75.8004C43.4711 75.8002 43.4706 75.8 43.4701 75.7998C43.4697 75.7996 43.4692 75.7994 43.4688 75.7992C43.4683 75.799 43.4678 75.7988 43.4674 75.7986C43.4669 75.7984 43.4664 75.7982 43.466 75.798C43.4655 75.7978 43.4651 75.7976 43.4646 75.7974C43.4641 75.7972 43.4637 75.797 43.4632 75.7968C43.4627 75.7966 43.4623 75.7964 43.4618 75.7962C43.4613 75.796 43.4609 75.7958 43.4604 75.7956C43.46 75.7954 43.4595 75.7952 43.459 75.795C43.4586 75.7948 43.4581 75.7946 43.4576 75.7944C43.4572 75.7942 43.4567 75.794 43.4562 75.7938C43.4558 75.7936 43.4553 75.7934 43.4548 75.7932C43.4543 75.793 43.4539 75.7928 43.4534 75.7926C43.4529 75.7924 43.4525 75.7922 43.452 75.792C43.4515 75.7918 43.4511 75.7916 43.4506 75.7914C43.4501 75.7912 43.4497 75.791 43.4492 75.7908C43.4487 75.7906 43.4482 75.7904 43.4478 75.7902C43.4473 75.79 43.4468 75.7898 43.4463 75.7895C43.4459 75.7893 43.4454 75.7891 43.4449 75.7889C43.4445 75.7887 43.444 75.7885 43.4435 75.7883C43.443 75.7881 43.4426 75.7879 43.4421 75.7877C43.4416 75.7875 43.4411 75.7873 43.4407 75.7871C43.4402 75.7869 43.4397 75.7867 43.4392 75.7865C43.4388 75.7863 43.4383 75.7861 43.4378 75.7859C43.4373 75.7856 43.4369 75.7854 43.4364 75.7852C43.4359 75.785 43.4354 75.7848 43.4349 75.7846C43.4345 75.7844 43.434 75.7842 43.4335 75.784C43.433 75.7838 43.4326 75.7836 43.4321 75.7834C43.4316 75.7832 43.4311 75.783 43.4306 75.7828C43.4302 75.7825 43.4297 75.7823 43.4292 75.7821C43.4287 75.7819 43.4282 75.7817 43.4277 75.7815C43.4273 75.7813 43.4268 75.7811 43.4263 75.7809C43.4258 75.7807 43.4253 75.7805 43.4249 75.7803C43.4244 75.78 43.4239 75.7798 43.4234 75.7796C43.4229 75.7794 43.4224 75.7792 43.422 75.779C43.4215 75.7788 43.421 75.7786 43.4205 75.7784C43.42 75.7782 43.4195 75.7779 43.419 75.7777C43.4186 75.7775 43.4181 75.7773 43.4176 75.7771C43.4171 75.7769 43.4166 75.7767 43.4161 75.7765C43.4156 75.7763 43.4152 75.7761 43.4147 75.7758C43.4142 75.7756 43.4137 75.7754 43.4132 75.7752C43.4127 75.775 43.4122 75.7748 43.4117 75.7746C43.4112 75.7744 43.4108 75.7742 43.4103 75.7739C43.4098 75.7737 43.4093 75.7735 43.4088 75.7733C43.4083 75.7731 43.4078 75.7729 43.4073 75.7727C43.4068 75.7725 43.4063 75.7722 43.4058 75.772C43.4054 75.7718 43.4049 75.7716 43.4044 75.7714C43.4039 75.7712 43.4034 75.771 43.4029 75.7708C43.4024 75.7705 43.4019 75.7703 43.4014 75.7701C43.4009 75.7699 43.4004 75.7697 43.3999 75.7695C43.3994 75.7693 43.3989 75.769 43.3984 75.7688C43.3979 75.7686 43.3974 75.7684 43.397 75.7682C43.3965 75.768 43.396 75.7678 43.3955 75.7675C43.395 75.7673 43.3945 75.7671 43.394 75.7669C43.3935 75.7667 43.393 75.7665 43.3925 75.7662C43.392 75.766 43.3915 75.7658 43.391 75.7656C43.3905 75.7654 43.39 75.7652 43.3895 75.765C43.389 75.7647 43.3885 75.7645 43.388 75.7643C43.3875 75.7641 43.387 75.7639 43.3865 75.7637C43.386 75.7634 43.3855 75.7632 43.385 75.763C43.3845 75.7628 43.384 75.7626 43.3835 75.7624C43.383 75.7621 43.3825 75.7619 43.382 75.7617C43.3815 75.7615 43.381 75.7613 43.3805 75.761C43.3799 75.7608 43.3794 75.7606 43.3789 75.7604C43.3784 75.7602 43.3779 75.76 43.3774 75.7597C43.3769 75.7595 43.3764 75.7593 43.3759 75.7591C43.3754 75.7589 43.3749 75.7586 43.3744 75.7584C43.3739 75.7582 43.3734 75.758 43.3729 75.7578C43.3724 75.7575 43.3719 75.7573 43.3713 75.7571C43.3708 75.7569 43.3703 75.7567 43.3698 75.7564C43.3693 75.7562 43.3688 75.756 43.3683 75.7558C43.3678 75.7556 43.3673 75.7553 43.3668 75.7551C43.3663 75.7549 43.3657 75.7547 43.3652 75.7545C43.3647 75.7542 43.3642 75.754 43.3637 75.7538C43.3632 75.7536 43.3627 75.7534 43.3622 75.7531C43.3616 75.7529 43.3611 75.7527 43.3606 75.7525C43.3601 75.7522 43.3596 75.752 43.3591 75.7518C43.3586 75.7516 43.3581 75.7514 43.3575 75.7511C43.357 75.7509 43.3565 75.7507 43.356 75.7505C43.3555 75.7502 43.355 75.75 43.3544 75.7498C43.3539 75.7496 43.3534 75.7494 43.3529 75.7491C43.3524 75.7489 43.3519 75.7487 43.3513 75.7485C43.3508 75.7482 43.3503 75.748 43.3498 75.7478C43.3493 75.7476 43.3488 75.7473 43.3482 75.7471C43.3477 75.7469 43.3472 75.7467 43.3467 75.7464C43.3462 75.7462 43.3456 75.746 43.3451 75.7458C43.3446 75.7455 43.3441 75.7453 43.3436 75.7451C43.343 75.7449 43.3425 75.7446 43.342 75.7444C43.3415 75.7442 43.341 75.744 43.3404 75.7437C43.3399 75.7435 43.3394 75.7433 43.3389 75.7431C43.3383 75.7428 43.3378 75.7426 43.3373 75.7424C43.3368 75.7422 43.3363 75.7419 43.3357 75.7417C43.3352 75.7415 43.3347 75.7412 43.3342 75.741C43.3336 75.7408 43.3331 75.7406 43.3326 75.7403C43.3321 75.7401 43.3315 75.7399 43.331 75.7397C43.3305 75.7394 43.3299 75.7392 43.3294 75.739C43.3289 75.7387 43.3284 75.7385 43.3278 75.7383C43.3273 75.7381 43.3268 75.7378 43.3263 75.7376C43.3257 75.7374 43.3252 75.7371 43.3247 75.7369C43.3241 75.7367 43.3236 75.7365 43.3231 75.7362C43.3226 75.736 43.322 75.7358 43.3215 75.7355C43.321 75.7353 43.3204 75.7351 43.3199 75.7349C43.3194 75.7346 43.3188 75.7344 43.3183 75.7342C43.3178 75.7339 43.3172 75.7337 43.3167 75.7335C43.3162 75.7332 43.3156 75.733 43.3151 75.7328C43.3146 75.7326 43.314 75.7323 43.3135 75.7321C43.313 75.7319 43.3124 75.7316 43.3119 75.7314C43.3114 75.7312 43.3108 75.7309 43.3103 75.7307C43.3098 75.7305 43.3092 75.7302 43.3087 75.73C43.3082 75.7298 43.3076 75.7295 43.3071 75.7293C43.3065 75.7291 43.306 75.7288 43.3055 75.7286C43.3049 75.7284 43.3044 75.7281 43.3039 75.7279C43.3033 75.7277 43.3028 75.7274 43.3022 75.7272C43.3017 75.727 43.3012 75.7267 43.3006 75.7265C43.3001 75.7263 43.2995 75.726 43.299 75.7258C43.2985 75.7256 43.2979 75.7253 43.2974 75.7251C43.2968 75.7249 43.2963 75.7246 43.2958 75.7244C43.2952 75.7242 43.2947 75.7239 43.2941 75.7237C43.2936 75.7235 43.293 75.7232 43.2925 75.723C43.292 75.7228 43.2914 75.7225 43.2909 75.7223C43.2903 75.7221 43.2898 75.7218 43.2892 75.7216C43.2887 75.7214 43.2882 75.7211 43.2876 75.7209C43.2871 75.7206 43.2865 75.7204 43.286 75.7202C43.2854 75.7199 43.2849 75.7197 43.2843 75.7195C43.2838 75.7192 43.2832 75.719 43.2827 75.7188C43.2821 75.7185 43.2816 75.7183 43.281 75.718C43.2805 75.7178 43.2799 75.7176 43.2794 75.7173C43.2789 75.7171 43.2783 75.7169 43.2778 75.7166C43.2772 75.7164 43.2767 75.7161 43.2761 75.7159C43.2756 75.7157 43.275 75.7154 43.2745 75.7152C43.2739 75.715 43.2734 75.7147 43.2728 75.7145C43.2722 75.7142 43.2717 75.714 43.2711 75.7138C43.2706 75.7135 43.27 75.7133 43.2695 75.713C43.2689 75.7128 43.2684 75.7126 43.2678 75.7123C43.2673 75.7121 43.2667 75.7119 43.2662 75.7116C43.2656 75.7114 43.2651 75.7111 43.2645 75.7109C43.2639 75.7107 43.2634 75.7104 43.2628 75.7102C43.2623 75.7099 43.2617 75.7097 43.2612 75.7094C43.2606 75.7092 43.2601 75.709 43.2595 75.7087C43.2589 75.7085 43.2584 75.7082 43.2578 75.708C43.2573 75.7078 43.2567 75.7075 43.2561 75.7073C43.2556 75.707 43.255 75.7068 43.2545 75.7066C43.2539 75.7063 43.2534 75.7061 43.2528 75.7058C43.2522 75.7056 43.2517 75.7053 43.2511 75.7051C43.2506 75.7049 43.25 75.7046 43.2494 75.7044C43.2489 75.7041 43.2483 75.7039 43.2477 75.7036C43.2472 75.7034 43.2466 75.7032 43.2461 75.7029C43.2455 75.7027 43.2449 75.7024 43.2444 75.7022C43.2438 75.7019 43.2432 75.7017 43.2427 75.7015C43.2421 75.7012 43.2415 75.701 43.241 75.7007C43.2404 75.7005 43.2399 75.7002 43.2393 75.7C43.2387 75.6997 43.2382 75.6995 43.2376 75.6993C43.237 75.699 43.2365 75.6988 43.2359 75.6985C43.2353 75.6983 43.2348 75.698 43.2342 75.6978C43.2336 75.6975 43.2331 75.6973 43.2325 75.697C43.2319 75.6968 43.2313 75.6966 43.2308 75.6963C43.2302 75.6961 43.2296 75.6958 43.2291 75.6956C43.2285 75.6953 43.2279 75.6951 43.2274 75.6948C43.2268 75.6946 43.2262 75.6943 43.2256 75.6941C43.2251 75.6938 43.2245 75.6936 43.2239 75.6933C43.2234 75.6931 43.2228 75.6929 43.2222 75.6926C43.2216 75.6924 43.2211 75.6921 43.2205 75.6919C43.2199 75.6916 43.2194 75.6914 43.2188 75.6911C43.2182 75.6909 43.2176 75.6906 43.2171 75.6904C43.2165 75.6901 43.2159 75.6899 43.2153 75.6896C43.2148 75.6894 43.2142 75.6891 43.2136 75.6889C43.213 75.6886 43.2125 75.6884 43.2119 75.6881C43.2113 75.6879 43.2107 75.6876 43.2101 75.6874C43.2096 75.6871 43.209 75.6869 43.2084 75.6866C43.2078 75.6864 43.2073 75.6861 43.2067 75.6859C43.2061 75.6856 43.2055 75.6854 43.2049 75.6851C43.2044 75.6849 43.2038 75.6846 43.2032 75.6844C43.2026 75.6841 43.202 75.6839 43.2015 75.6836C43.2009 75.6834 43.2003 75.6831 43.1997 75.6829C43.1991 75.6826 43.1985 75.6824 43.198 75.6821C43.1974 75.6819 43.1968 75.6816 43.1962 75.6814C43.1956 75.6811 43.1951 75.6809 43.1945 75.6806C43.1939 75.6803 43.1933 75.6801 43.1927 75.6798C43.1921 75.6796 43.1915 75.6793 43.191 75.6791C43.1904 75.6788 43.1898 75.6786 43.1892 75.6783C43.1886 75.6781 43.188 75.6778 43.1874 75.6776C43.1869 75.6773 43.1863 75.6771 43.1857 75.6768C43.1851 75.6765 43.1845 75.6763 43.1839 75.676C43.1833 75.6758 43.1827 75.6755 43.1822 75.6753C43.1816 75.675 43.181 75.6748 43.1804 75.6745C43.1798 75.6743 43.1792 75.674 43.1786 75.6737C43.178 75.6735 43.1774 75.6732 43.1769 75.673C43.1763 75.6727 43.1757 75.6725 43.1751 75.6722C43.1745 75.672 43.1739 75.6717 43.1733 75.6714C43.1727 75.6712 43.1721 75.6709 43.1715 75.6707C43.1709 75.6704 43.1703 75.6702 43.1697 75.6699C43.1692 75.6696 43.1686 75.6694 43.168 75.6691C43.1674 75.6689 43.1668 75.6686 43.1662 75.6684C43.1656 75.6681 43.165 75.6678 43.1644 75.6676C43.1638 75.6673 43.1632 75.6671 43.1626 75.6668C43.162 75.6666 43.1614 75.6663 43.1608 75.666C43.1602 75.6658 43.1596 75.6655 43.159 75.6653C43.1584 75.665 43.1578 75.6648 43.1572 75.6645C43.1566 75.6642 43.156 75.664 43.1554 75.6637C43.1548 75.6635 43.1542 75.6632 43.1536 75.6629C43.153 75.6627 43.1524 75.6624 43.1518 75.6622C43.1512 75.6619 43.1506 75.6616 43.15 75.6614C43.1494 75.6611 43.1488 75.6609 43.1482 75.6606C43.1476 75.6603 43.147 75.6601 43.1464 75.6598C43.1458 75.6596 43.1452 75.6593 43.1446 75.659C43.144 75.6588 43.1434 75.6585 43.1428 75.6583C43.1422 75.658 43.1416 75.6577 43.141 75.6575C43.1404 75.6572 43.1398 75.6569 43.1392 75.6567C43.1386 75.6564 43.138 75.6562 43.1374 75.6559C43.1367 75.6556 43.1361 75.6554 43.1355 75.6551C43.1349 75.6548 43.1343 75.6546 43.1337 75.6543C43.1331 75.6541 43.1325 75.6538 43.1319 75.6535C43.1313 75.6533 43.1307 75.653 43.1301 75.6527C43.1295 75.6525 43.1288 75.6522 43.1282 75.652C43.1276 75.6517 43.127 75.6514 43.1264 75.6512C43.1258 75.6509 43.1252 75.6506 43.1246 75.6504C43.124 75.6501 43.1234 75.6498 43.1227 75.6496C43.1221 75.6493 43.1215 75.649 43.1209 75.6488C43.1203 75.6485 43.1197 75.6483 43.1191 75.648C43.1185 75.6477 43.1178 75.6475 43.1172 75.6472C43.1166 75.6469 43.116 75.6467 43.1154 75.6464C43.1148 75.6461 43.1142 75.6459 43.1135 75.6456C43.1129 75.6453 43.1123 75.6451 43.1117 75.6448C43.1111 75.6445 43.1105 75.6443 43.1098 75.644C43.1092 75.6437 43.1086 75.6435 43.108 75.6432C43.1074 75.6429 43.1068 75.6427 43.1061 75.6424C43.1055 75.6421 43.1049 75.6419 43.1043 75.6416C43.1037 75.6413 43.103 75.6411 43.1024 75.6408C43.1018 75.6405 43.1012 75.6403 43.1006 75.64C43.0999 75.6397 43.0993 75.6394 43.0987 75.6392C43.0981 75.6389 43.0975 75.6386 43.0968 75.6384C43.0962 75.6381 43.0956 75.6378 43.095 75.6376C43.0944 75.6373 43.0937 75.637 43.0931 75.6368C43.0925 75.6365 43.0919 75.6362 43.0912 75.6359C43.0906 75.6357 43.09 75.6354 43.0894 75.6351C43.0887 75.6349 43.0881 75.6346 43.0875 75.6343C43.0869 75.6341 43.0862 75.6338 43.0856 75.6335C43.085 75.6332 43.0844 75.633 43.0837 75.6327C43.0831 75.6324 43.0825 75.6322 43.0819 75.6319C43.0812 75.6316 43.0806 75.6313 43.08 75.6311C43.0793 75.6308 43.0787 75.6305 43.0781 75.6303C43.0775 75.63 43.0768 75.6297 43.0762 75.6294C43.0756 75.6292 43.0749 75.6289 43.0743 75.6286C43.0737 75.6284 43.0731 75.6281 43.0724 75.6278C43.0718 75.6275 43.0712 75.6273 43.0705 75.627C43.0699 75.6267 43.0693 75.6264 43.0686 75.6262C43.068 75.6259 43.0674 75.6256 43.0667 75.6254C43.0661 75.6251 43.0655 75.6248 43.0648 75.6245C43.0642 75.6243 43.0636 75.624 43.0629 75.6237C43.0623 75.6234 43.0617 75.6232 43.061 75.6229C43.0604 75.6226 43.0598 75.6223 43.0591 75.6221C43.0585 75.6218 43.0579 75.6215 43.0572 75.6212C43.0566 75.621 43.0559 75.6207 43.0553 75.6204C43.0547 75.6201 43.054 75.6199 43.0534 75.6196C43.0528 75.6193 43.0521 75.619 43.0515 75.6188C43.0508 75.6185 43.0502 75.6182 43.0496 75.6179C43.0489 75.6176 43.0483 75.6174 43.0477 75.6171C43.047 75.6168 43.0464 75.6165 43.0457 75.6163C43.0451 75.616 43.0445 75.6157 43.0438 75.6154C43.0432 75.6152 43.0425 75.6149 43.0419 75.6146C43.0412 75.6143 43.0406 75.614 43.04 75.6138C43.0393 75.6135 43.0387 75.6132 43.038 75.6129C43.0374 75.6127 43.0367 75.6124 43.0361 75.6121C43.0355 75.6118 43.0348 75.6115 43.0342 75.6113C43.0335 75.611 43.0329 75.6107 43.0322 75.6104L41.4443 79.2817C41.4449 79.282 41.4455 79.2823 41.4462 79.2825C41.4468 79.2828 41.4475 79.2831 41.4481 79.2834C41.4488 79.2837 41.4494 79.2839 41.4501 79.2842C41.4507 79.2845 41.4513 79.2848 41.452 79.2851C41.4526 79.2853 41.4533 79.2856 41.4539 79.2859C41.4545 79.2862 41.4552 79.2864 41.4558 79.2867C41.4565 79.287 41.4571 79.2873 41.4578 79.2875C41.4584 79.2878 41.459 79.2881 41.4597 79.2884C41.4603 79.2887 41.461 79.2889 41.4616 79.2892C41.4622 79.2895 41.4629 79.2898 41.4635 79.29C41.4641 79.2903 41.4648 79.2906 41.4654 79.2909C41.4661 79.2911 41.4667 79.2914 41.4673 79.2917C41.468 79.292 41.4686 79.2922 41.4692 79.2925C41.4699 79.2928 41.4705 79.2931 41.4712 79.2933C41.4718 79.2936 41.4724 79.2939 41.4731 79.2942C41.4737 79.2944 41.4743 79.2947 41.475 79.295C41.4756 79.2953 41.4762 79.2955 41.4769 79.2958C41.4775 79.2961 41.4781 79.2964 41.4788 79.2966C41.4794 79.2969 41.48 79.2972 41.4807 79.2975C41.4813 79.2977 41.4819 79.298 41.4826 79.2983C41.4832 79.2985 41.4838 79.2988 41.4844 79.2991C41.4851 79.2994 41.4857 79.2996 41.4863 79.2999C41.487 79.3002 41.4876 79.3005 41.4882 79.3007C41.4889 79.301 41.4895 79.3013 41.4901 79.3015C41.4907 79.3018 41.4914 79.3021 41.492 79.3024C41.4926 79.3026 41.4933 79.3029 41.4939 79.3032C41.4945 79.3034 41.4951 79.3037 41.4958 79.304C41.4964 79.3043 41.497 79.3045 41.4976 79.3048C41.4983 79.3051 41.4989 79.3053 41.4995 79.3056C41.5001 79.3059 41.5008 79.3062 41.5014 79.3064C41.502 79.3067 41.5026 79.307 41.5033 79.3072C41.5039 79.3075 41.5045 79.3078 41.5051 79.308C41.5058 79.3083 41.5064 79.3086 41.507 79.3088C41.5076 79.3091 41.5082 79.3094 41.5089 79.3097C41.5095 79.3099 41.5101 79.3102 41.5107 79.3105C41.5113 79.3107 41.512 79.311 41.5126 79.3113C41.5132 79.3115 41.5138 79.3118 41.5144 79.3121C41.5151 79.3123 41.5157 79.3126 41.5163 79.3129C41.5169 79.3131 41.5175 79.3134 41.5182 79.3137C41.5188 79.3139 41.5194 79.3142 41.52 79.3145C41.5206 79.3147 41.5212 79.315 41.5219 79.3153C41.5225 79.3155 41.5231 79.3158 41.5237 79.3161C41.5243 79.3163 41.5249 79.3166 41.5256 79.3169C41.5262 79.3171 41.5268 79.3174 41.5274 79.3177C41.528 79.3179 41.5286 79.3182 41.5292 79.3185C41.5299 79.3187 41.5305 79.319 41.5311 79.3193C41.5317 79.3195 41.5323 79.3198 41.5329 79.3201C41.5335 79.3203 41.5341 79.3206 41.5348 79.3209C41.5354 79.3211 41.536 79.3214 41.5366 79.3217C41.5372 79.3219 41.5378 79.3222 41.5384 79.3224C41.539 79.3227 41.5396 79.323 41.5403 79.3232C41.5409 79.3235 41.5415 79.3238 41.5421 79.324C41.5427 79.3243 41.5433 79.3246 41.5439 79.3248C41.5445 79.3251 41.5451 79.3253 41.5457 79.3256C41.5463 79.3259 41.5469 79.3261 41.5476 79.3264C41.5482 79.3267 41.5488 79.3269 41.5494 79.3272C41.55 79.3274 41.5506 79.3277 41.5512 79.328C41.5518 79.3282 41.5524 79.3285 41.553 79.3288C41.5536 79.329 41.5542 79.3293 41.5548 79.3295C41.5554 79.3298 41.556 79.3301 41.5566 79.3303C41.5572 79.3306 41.5578 79.3308 41.5584 79.3311C41.559 79.3314 41.5596 79.3316 41.5602 79.3319C41.5608 79.3321 41.5615 79.3324 41.5621 79.3327C41.5627 79.3329 41.5633 79.3332 41.5639 79.3334C41.5645 79.3337 41.5651 79.334 41.5657 79.3342C41.5663 79.3345 41.5669 79.3347 41.5675 79.335C41.5681 79.3353 41.5687 79.3355 41.5693 79.3358C41.5698 79.336 41.5704 79.3363 41.571 79.3366C41.5716 79.3368 41.5722 79.3371 41.5728 79.3373C41.5734 79.3376 41.574 79.3378 41.5746 79.3381C41.5752 79.3384 41.5758 79.3386 41.5764 79.3389C41.577 79.3391 41.5776 79.3394 41.5782 79.3396C41.5788 79.3399 41.5794 79.3402 41.58 79.3404C41.5806 79.3407 41.5812 79.3409 41.5818 79.3412C41.5824 79.3414 41.583 79.3417 41.5835 79.342C41.5841 79.3422 41.5847 79.3425 41.5853 79.3427C41.5859 79.343 41.5865 79.3432 41.5871 79.3435C41.5877 79.3438 41.5883 79.344 41.5889 79.3443C41.5895 79.3445 41.5901 79.3448 41.5906 79.345C41.5912 79.3453 41.5918 79.3455 41.5924 79.3458C41.593 79.346 41.5936 79.3463 41.5942 79.3466C41.5948 79.3468 41.5954 79.3471 41.5959 79.3473C41.5965 79.3476 41.5971 79.3478 41.5977 79.3481C41.5983 79.3483 41.5989 79.3486 41.5995 79.3488C41.6001 79.3491 41.6006 79.3494 41.6012 79.3496C41.6018 79.3499 41.6024 79.3501 41.603 79.3504C41.6036 79.3506 41.6042 79.3509 41.6047 79.3511C41.6053 79.3514 41.6059 79.3516 41.6065 79.3519C41.6071 79.3521 41.6077 79.3524 41.6082 79.3526C41.6088 79.3529 41.6094 79.3531 41.61 79.3534C41.6106 79.3536 41.6112 79.3539 41.6117 79.3542C41.6123 79.3544 41.6129 79.3547 41.6135 79.3549C41.6141 79.3552 41.6146 79.3554 41.6152 79.3557C41.6158 79.3559 41.6164 79.3562 41.617 79.3564C41.6175 79.3567 41.6181 79.3569 41.6187 79.3572C41.6193 79.3574 41.6199 79.3577 41.6204 79.3579C41.621 79.3582 41.6216 79.3584 41.6222 79.3587C41.6227 79.3589 41.6233 79.3592 41.6239 79.3594C41.6245 79.3597 41.625 79.3599 41.6256 79.3602C41.6262 79.3604 41.6268 79.3607 41.6274 79.3609C41.6279 79.3612 41.6285 79.3614 41.6291 79.3617C41.6297 79.3619 41.6302 79.3621 41.6308 79.3624C41.6314 79.3626 41.6319 79.3629 41.6325 79.3631C41.6331 79.3634 41.6337 79.3636 41.6342 79.3639C41.6348 79.3641 41.6354 79.3644 41.636 79.3646C41.6365 79.3649 41.6371 79.3651 41.6377 79.3654C41.6382 79.3656 41.6388 79.3659 41.6394 79.3661C41.64 79.3664 41.6405 79.3666 41.6411 79.3668C41.6417 79.3671 41.6422 79.3673 41.6428 79.3676C41.6434 79.3678 41.6439 79.3681 41.6445 79.3683C41.6451 79.3686 41.6456 79.3688 41.6462 79.3691C41.6468 79.3693 41.6473 79.3696 41.6479 79.3698C41.6485 79.37 41.649 79.3703 41.6496 79.3705C41.6502 79.3708 41.6507 79.371 41.6513 79.3713C41.6519 79.3715 41.6524 79.3718 41.653 79.372C41.6536 79.3722 41.6541 79.3725 41.6547 79.3727C41.6553 79.373 41.6558 79.3732 41.6564 79.3735C41.657 79.3737 41.6575 79.374 41.6581 79.3742C41.6586 79.3744 41.6592 79.3747 41.6598 79.3749C41.6603 79.3752 41.6609 79.3754 41.6614 79.3757C41.662 79.3759 41.6626 79.3761 41.6631 79.3764C41.6637 79.3766 41.6643 79.3769 41.6648 79.3771C41.6654 79.3774 41.6659 79.3776 41.6665 79.3778C41.6671 79.3781 41.6676 79.3783 41.6682 79.3786C41.6687 79.3788 41.6693 79.379 41.6698 79.3793C41.6704 79.3795 41.671 79.3798 41.6715 79.38C41.6721 79.3803 41.6726 79.3805 41.6732 79.3807C41.6737 79.381 41.6743 79.3812 41.6749 79.3815C41.6754 79.3817 41.676 79.3819 41.6765 79.3822C41.6771 79.3824 41.6776 79.3827 41.6782 79.3829C41.6787 79.3831 41.6793 79.3834 41.6798 79.3836C41.6804 79.3839 41.681 79.3841 41.6815 79.3843C41.6821 79.3846 41.6826 79.3848 41.6832 79.385C41.6837 79.3853 41.6843 79.3855 41.6848 79.3858C41.6854 79.386 41.6859 79.3862 41.6865 79.3865C41.687 79.3867 41.6876 79.387 41.6881 79.3872C41.6887 79.3874 41.6892 79.3877 41.6898 79.3879C41.6903 79.3881 41.6909 79.3884 41.6914 79.3886C41.692 79.3889 41.6925 79.3891 41.6931 79.3893C41.6936 79.3896 41.6942 79.3898 41.6947 79.39C41.6953 79.3903 41.6958 79.3905 41.6963 79.3908C41.6969 79.391 41.6974 79.3912 41.698 79.3915C41.6985 79.3917 41.6991 79.3919 41.6996 79.3922C41.7002 79.3924 41.7007 79.3926 41.7013 79.3929C41.7018 79.3931 41.7023 79.3933 41.7029 79.3936C41.7034 79.3938 41.704 79.3941 41.7045 79.3943C41.7051 79.3945 41.7056 79.3948 41.7062 79.395C41.7067 79.3952 41.7072 79.3955 41.7078 79.3957C41.7083 79.3959 41.7089 79.3962 41.7094 79.3964C41.7099 79.3966 41.7105 79.3969 41.711 79.3971C41.7116 79.3973 41.7121 79.3976 41.7126 79.3978C41.7132 79.398 41.7137 79.3983 41.7143 79.3985C41.7148 79.3987 41.7153 79.399 41.7159 79.3992C41.7164 79.3994 41.717 79.3997 41.7175 79.3999C41.718 79.4001 41.7186 79.4004 41.7191 79.4006C41.7196 79.4008 41.7202 79.4011 41.7207 79.4013C41.7212 79.4015 41.7218 79.4018 41.7223 79.402C41.7229 79.4022 41.7234 79.4024 41.7239 79.4027C41.7245 79.4029 41.725 79.4031 41.7255 79.4034C41.7261 79.4036 41.7266 79.4038 41.7271 79.4041C41.7277 79.4043 41.7282 79.4045 41.7287 79.4048C41.7293 79.405 41.7298 79.4052 41.7303 79.4054C41.7309 79.4057 41.7314 79.4059 41.7319 79.4061C41.7324 79.4064 41.733 79.4066 41.7335 79.4068C41.734 79.4071 41.7346 79.4073 41.7351 79.4075C41.7356 79.4077 41.7362 79.408 41.7367 79.4082C41.7372 79.4084 41.7377 79.4087 41.7383 79.4089C41.7388 79.4091 41.7393 79.4093 41.7399 79.4096C41.7404 79.4098 41.7409 79.41 41.7414 79.4103C41.742 79.4105 41.7425 79.4107 41.743 79.4109C41.7435 79.4112 41.7441 79.4114 41.7446 79.4116C41.7451 79.4118 41.7456 79.4121 41.7462 79.4123C41.7467 79.4125 41.7472 79.4128 41.7477 79.413C41.7483 79.4132 41.7488 79.4134 41.7493 79.4137C41.7498 79.4139 41.7504 79.4141 41.7509 79.4143C41.7514 79.4146 41.7519 79.4148 41.7525 79.415C41.753 79.4152 41.7535 79.4155 41.754 79.4157C41.7545 79.4159 41.7551 79.4161 41.7556 79.4164C41.7561 79.4166 41.7566 79.4168 41.7571 79.417C41.7577 79.4173 41.7582 79.4175 41.7587 79.4177C41.7592 79.4179 41.7597 79.4182 41.7603 79.4184C41.7608 79.4186 41.7613 79.4188 41.7618 79.4191C41.7623 79.4193 41.7629 79.4195 41.7634 79.4197C41.7639 79.42 41.7644 79.4202 41.7649 79.4204C41.7654 79.4206 41.766 79.4209 41.7665 79.4211C41.767 79.4213 41.7675 79.4215 41.768 79.4217C41.7685 79.422 41.769 79.4222 41.7696 79.4224C41.7701 79.4226 41.7706 79.4229 41.7711 79.4231C41.7716 79.4233 41.7721 79.4235 41.7726 79.4238C41.7732 79.424 41.7737 79.4242 41.7742 79.4244C41.7747 79.4246 41.7752 79.4249 41.7757 79.4251C41.7762 79.4253 41.7767 79.4255 41.7772 79.4257C41.7778 79.426 41.7783 79.4262 41.7788 79.4264C41.7793 79.4266 41.7798 79.4268 41.7803 79.4271C41.7808 79.4273 41.7813 79.4275 41.7818 79.4277C41.7823 79.4279 41.7829 79.4282 41.7834 79.4284C41.7839 79.4286 41.7844 79.4288 41.7849 79.429C41.7854 79.4293 41.7859 79.4295 41.7864 79.4297C41.7869 79.4299 41.7874 79.4301 41.7879 79.4304C41.7884 79.4306 41.7889 79.4308 41.7894 79.431C41.7899 79.4312 41.7905 79.4315 41.791 79.4317C41.7915 79.4319 41.792 79.4321 41.7925 79.4323C41.793 79.4325 41.7935 79.4328 41.794 79.433C41.7945 79.4332 41.795 79.4334 41.7955 79.4336C41.796 79.4339 41.7965 79.4341 41.797 79.4343C41.7975 79.4345 41.798 79.4347 41.7985 79.4349C41.799 79.4352 41.7995 79.4354 41.8 79.4356C41.8005 79.4358 41.801 79.436 41.8015 79.4362C41.802 79.4365 41.8025 79.4367 41.803 79.4369C41.8035 79.4371 41.804 79.4373 41.8045 79.4375C41.805 79.4377 41.8055 79.438 41.806 79.4382C41.8065 79.4384 41.807 79.4386 41.8075 79.4388C41.808 79.439 41.8085 79.4393 41.809 79.4395C41.8095 79.4397 41.81 79.4399 41.8105 79.4401C41.811 79.4403 41.8114 79.4405 41.8119 79.4408C41.8124 79.441 41.8129 79.4412 41.8134 79.4414C41.8139 79.4416 41.8144 79.4418 41.8149 79.442C41.8154 79.4422 41.8159 79.4425 41.8164 79.4427C41.8169 79.4429 41.8174 79.4431 41.8179 79.4433C41.8184 79.4435 41.8188 79.4437 41.8193 79.4439C41.8198 79.4442 41.8203 79.4444 41.8208 79.4446C41.8213 79.4448 41.8218 79.445 41.8223 79.4452C41.8228 79.4454 41.8233 79.4456 41.8238 79.4459C41.8242 79.4461 41.8247 79.4463 41.8252 79.4465C41.8257 79.4467 41.8262 79.4469 41.8267 79.4471C41.8272 79.4473 41.8277 79.4475 41.8281 79.4478C41.8286 79.448 41.8291 79.4482 41.8296 79.4484C41.8301 79.4486 41.8306 79.4488 41.8311 79.449C41.8315 79.4492 41.832 79.4494 41.8325 79.4497C41.833 79.4499 41.8335 79.4501 41.834 79.4503C41.8345 79.4505 41.8349 79.4507 41.8354 79.4509C41.8359 79.4511 41.8364 79.4513 41.8369 79.4515C41.8374 79.4517 41.8378 79.452 41.8383 79.4522C41.8388 79.4524 41.8393 79.4526 41.8398 79.4528C41.8403 79.453 41.8407 79.4532 41.8412 79.4534C41.8417 79.4536 41.8422 79.4538 41.8427 79.454C41.8431 79.4542 41.8436 79.4544 41.8441 79.4547C41.8446 79.4549 41.8451 79.4551 41.8455 79.4553C41.846 79.4555 41.8465 79.4557 41.847 79.4559C41.8474 79.4561 41.8479 79.4563 41.8484 79.4565C41.8489 79.4567 41.8494 79.4569 41.8498 79.4571C41.8503 79.4573 41.8508 79.4575 41.8513 79.4578C41.8517 79.458 41.8522 79.4582 41.8527 79.4584C41.8532 79.4586 41.8536 79.4588 41.8541 79.459C41.8546 79.4592 41.8551 79.4594 41.8555 79.4596C41.856 79.4598 41.8565 79.46 41.857 79.4602C41.8574 79.4604 41.8579 79.4606 41.8584 79.4608C41.8588 79.461 41.8593 79.4612 41.8598 79.4614C41.8603 79.4616 41.8607 79.4619 41.8612 79.4621C41.8617 79.4623 41.8621 79.4625 41.8626 79.4627C41.8631 79.4629 41.8636 79.4631 41.864 79.4633C41.8645 79.4635 41.865 79.4637 41.8654 79.4639C41.8659 79.4641 41.8664 79.4643 41.8668 79.4645C41.8673 79.4647 41.8678 79.4649 41.8682 79.4651C41.8687 79.4653 41.8692 79.4655 41.8696 79.4657C41.8701 79.4659 41.8706 79.4661 41.871 79.4663C41.8715 79.4665 41.872 79.4667 41.8724 79.4669C41.8729 79.4671 41.8734 79.4673 41.8738 79.4675C41.8743 79.4677 41.8748 79.4679 41.8752 79.4681C41.8757 79.4683 41.8762 79.4685 41.8766 79.4687C41.8771 79.4689 41.8775 79.4691 41.878 79.4693C41.8785 79.4695 41.8789 79.4697 41.8794 79.4699C41.8799 79.4701 41.8803 79.4703 41.8808 79.4705C41.8812 79.4707 41.8817 79.4709 41.8822 79.4711C41.8826 79.4713 41.8831 79.4715 41.8835 79.4717C41.884 79.4719 41.8845 79.4721 41.8849 79.4723C41.8854 79.4725 41.8858 79.4727 41.8863 79.4729C41.8868 79.4731 41.8872 79.4733 41.8877 79.4735C41.8881 79.4737 41.8886 79.4739 41.889 79.4741C41.8895 79.4743 41.89 79.4745 41.8904 79.4747C41.8909 79.4749 41.8913 79.4751 41.8918 79.4753C41.8922 79.4755 41.8927 79.4757 41.8931 79.4759C41.8936 79.4761 41.8941 79.4763 41.8945 79.4765C41.895 79.4767 41.8954 79.4769 41.8959 79.4771C41.8963 79.4772 41.8968 79.4774 41.8972 79.4776C41.8977 79.4778 41.8981 79.478 41.8986 79.4782C41.899 79.4784 41.8995 79.4786 41.8999 79.4788C41.9004 79.479 41.9008 79.4792 41.9013 79.4794C41.9017 79.4796 41.9022 79.4798 41.9026 79.48C41.9031 79.4802 41.9035 79.4804 41.904 79.4806C41.9044 79.4808 41.9049 79.481 41.9053 79.4811C41.9058 79.4813 41.9062 79.4815 41.9067 79.4817C41.9071 79.4819 41.9076 79.4821 41.908 79.4823C41.9085 79.4825 41.9089 79.4827 41.9094 79.4829C41.9098 79.4831 41.9103 79.4833 41.9107 79.4835C41.9111 79.4837 41.9116 79.4839 41.912 79.484C41.9125 79.4842 41.9129 79.4844 41.9134 79.4846C41.9138 79.4848 41.9143 79.485 41.9147 79.4852C41.9152 79.4854 41.9156 79.4856 41.916 79.4858C41.9165 79.486 41.9169 79.4862 41.9174 79.4863C41.9178 79.4865 41.9182 79.4867 41.9187 79.4869C41.9191 79.4871 41.9196 79.4873 41.92 79.4875C41.9205 79.4877 41.9209 79.4879 41.9213 79.4881C41.9218 79.4883 41.9222 79.4884 41.9227 79.4886C41.9231 79.4888 41.9235 79.489 41.924 79.4892C41.9244 79.4894 41.9248 79.4896 41.9253 79.4898C41.9257 79.49 41.9262 79.4902 41.9266 79.4903C41.927 79.4905 41.9275 79.4907 41.9279 79.4909C41.9283 79.4911 41.9288 79.4913 41.9292 79.4915C41.9297 79.4917 41.9301 79.4919 41.9305 79.492C41.931 79.4922 41.9314 79.4924 41.9318 79.4926C41.9323 79.4928 41.9327 79.493 41.9331 79.4932C41.9336 79.4934 41.934 79.4935 41.9344 79.4937C41.9349 79.4939 41.9353 79.4941 41.9357 79.4943C41.9362 79.4945 41.9366 79.4947 41.937 79.4949C41.9375 79.495 41.9379 79.4952 41.9383 79.4954C41.9388 79.4956 41.9392 79.4958 41.9396 79.496C41.94 79.4962 41.9405 79.4963 41.9409 79.4965C41.9413 79.4967 41.9418 79.4969 41.9422 79.4971C41.9426 79.4973 41.9431 79.4975 41.9435 79.4976C41.9439 79.4978 41.9443 79.498 41.9448 79.4982C41.9452 79.4984 41.9456 79.4986 41.946 79.4988C41.9465 79.4989 41.9469 79.4991 41.9473 79.4993C41.9478 79.4995 41.9482 79.4997 41.9486 79.4999C41.949 79.5 41.9495 79.5002 41.9499 79.5004C41.9503 79.5006 41.9507 79.5008 41.9512 79.501C41.9516 79.5011 41.952 79.5013 41.9524 79.5015C41.9528 79.5017 41.9533 79.5019 41.9537 79.5021C41.9541 79.5022 41.9545 79.5024 41.955 79.5026C41.9554 79.5028 41.9558 79.503 41.9562 79.5032C41.9566 79.5033 41.9571 79.5035 41.9575 79.5037C41.9579 79.5039 41.9583 79.5041 41.9587 79.5042C41.9592 79.5044 41.9596 79.5046 41.96 79.5048C41.9604 79.505 41.9608 79.5052 41.9613 79.5053C41.9617 79.5055 41.9621 79.5057 41.9625 79.5059C41.9629 79.5061 41.9634 79.5062 41.9638 79.5064C41.9642 79.5066 41.9646 79.5068 41.965 79.507C41.9654 79.5071 41.9659 79.5073 41.9663 79.5075C41.9667 79.5077 41.9671 79.5079 41.9675 79.508C41.9679 79.5082 41.9683 79.5084 41.9688 79.5086C41.9692 79.5088 41.9696 79.5089 41.97 79.5091C41.9704 79.5093 41.9708 79.5095 41.9712 79.5097C41.9717 79.5098 41.9721 79.51 41.9725 79.5102C41.9729 79.5104 41.9733 79.5105 41.9737 79.5107C41.9741 79.5109 41.9745 79.5111 41.9749 79.5113C41.9754 79.5114 41.9758 79.5116 41.9762 79.5118C41.9766 79.512 41.977 79.5121 41.9774 79.5123C41.9778 79.5125 41.9782 79.5127 41.9786 79.5128C41.979 79.513 41.9794 79.5132 41.9799 79.5134C41.9803 79.5136 41.9807 79.5137 41.9811 79.5139C41.9815 79.5141 41.9819 79.5143 41.9823 79.5144C41.9827 79.5146 41.9831 79.5148 41.9835 79.515C41.9839 79.5151 41.9843 79.5153 41.9847 79.5155C41.9851 79.5157 41.9855 79.5158 41.9859 79.516C41.9864 79.5162 41.9868 79.5164 41.9872 79.5165C41.9876 79.5167 41.988 79.5169 41.9884 79.5171C41.9888 79.5172 41.9892 79.5174 41.9896 79.5176C41.99 79.5178 41.9904 79.5179 41.9908 79.5181C41.9912 79.5183 41.9916 79.5185 41.992 79.5186C41.9924 79.5188 41.9928 79.519 41.9932 79.5191C41.9936 79.5193 41.994 79.5195 41.9944 79.5197C41.9948 79.5198 41.9952 79.52 41.9956 79.5202C41.996 79.5204 41.9964 79.5205 41.9968 79.5207C41.9972 79.5209 41.9976 79.521 41.998 79.5212C41.9984 79.5214 41.9988 79.5216 41.9992 79.5217C41.9996 79.5219 42 79.5221 42.0004 79.5222C42.0008 79.5224 42.0012 79.5226 42.0015 79.5228C42.0019 79.5229 42.0023 79.5231 42.0027 79.5233C42.0031 79.5234 42.0035 79.5236 42.0039 79.5238C42.0043 79.524 42.0047 79.5241 42.0051 79.5243C42.0055 79.5245 42.0059 79.5246 42.0063 79.5248C42.0067 79.525 42.0071 79.5251 42.0075 79.5253C42.0078 79.5255 42.0082 79.5257 42.0086 79.5258C42.009 79.526 42.0094 79.5262 42.0098 79.5263C42.0102 79.5265 42.0106 79.5267 42.011 79.5268C42.0114 79.527 42.0117 79.5272 42.0121 79.5273C42.0125 79.5275 42.0129 79.5277 42.0133 79.5278C42.0137 79.528 42.0141 79.5282 42.0145 79.5283C42.0149 79.5285 42.0152 79.5287 42.0156 79.5289C42.016 79.529 42.0164 79.5292 42.0168 79.5294C42.0172 79.5295 42.0176 79.5297 42.0179 79.5299C42.0183 79.53 42.0187 79.5302 42.0191 79.5304C42.0195 79.5305 42.0199 79.5307 42.0203 79.5309C42.0206 79.531 42.021 79.5312 42.0214 79.5314C42.0218 79.5315 42.0222 79.5317 42.0226 79.5318C42.0229 79.532 42.0233 79.5322 42.0237 79.5323C42.0241 79.5325 42.0245 79.5327 42.0248 79.5328C42.0252 79.533 42.0256 79.5332 42.026 79.5333C42.0264 79.5335 42.0268 79.5337 42.0271 79.5338C42.0275 79.534 42.0279 79.5342 42.0283 79.5343C42.0286 79.5345 42.029 79.5346 42.0294 79.5348C42.0298 79.535 42.0302 79.5351 42.0305 79.5353C42.0309 79.5355 42.0313 79.5356 42.0317 79.5358C42.0321 79.536 42.0324 79.5361 42.0328 79.5363C42.0332 79.5364 42.0336 79.5366 42.0339 79.5368C42.0343 79.5369 42.0347 79.5371 42.0351 79.5373C42.0354 79.5374 42.0358 79.5376 42.0362 79.5377C42.0366 79.5379 42.0369 79.5381 42.0373 79.5382C42.0377 79.5384 42.0381 79.5386 42.0384 79.5387C42.0388 79.5389 42.0392 79.539 42.0395 79.5392C42.0399 79.5394 42.0403 79.5395 42.0407 79.5397C42.041 79.5398 42.0414 79.54 42.0418 79.5402C42.0421 79.5403 42.0425 79.5405 42.0429 79.5406C42.0433 79.5408 42.0436 79.541 42.044 79.5411C42.0444 79.5413 42.0447 79.5414 42.0451 79.5416C42.0455 79.5418 42.0458 79.5419 42.0462 79.5421C42.0466 79.5422 42.0469 79.5424 42.0473 79.5426C42.0477 79.5427 42.048 79.5429 42.0484 79.543C42.0488 79.5432 42.0491 79.5433 42.0495 79.5435C42.0499 79.5437 42.0502 79.5438 42.0506 79.544C42.051 79.5441 42.0513 79.5443 42.0517 79.5445C42.0521 79.5446 42.0524 79.5448 42.0528 79.5449C42.0532 79.5451 42.0535 79.5452 42.0539 79.5454C42.0542 79.5456 42.0546 79.5457 42.055 79.5459C42.0553 79.546 42.0557 79.5462 42.0561 79.5463C42.0564 79.5465 42.0568 79.5467 42.0571 79.5468C42.0575 79.547 42.0579 79.5471 42.0582 79.5473C42.0586 79.5474 42.0589 79.5476 42.0593 79.5477C42.0597 79.5479 42.06 79.5481 42.0604 79.5482C42.0607 79.5484 42.0611 79.5485 42.0615 79.5487C42.0618 79.5488 42.0622 79.549 42.0625 79.5491C42.0629 79.5493 42.0632 79.5494 42.0636 79.5496C42.064 79.5498 42.0643 79.5499 42.0647 79.5501C42.065 79.5502 42.0654 79.5504 42.0657 79.5505C42.0661 79.5507 42.0665 79.5508 42.0668 79.551C42.0672 79.5511 42.0675 79.5513 42.0679 79.5514C42.0682 79.5516 42.0686 79.5518 42.0689 79.5519C42.0693 79.5521 42.0696 79.5522 42.07 79.5524C42.0703 79.5525 42.0707 79.5527 42.071 79.5528C42.0714 79.553 42.0717 79.5531 42.0721 79.5533C42.0725 79.5534 42.0728 79.5536 42.0732 79.5537C42.0735 79.5539 42.0739 79.554 42.0742 79.5542C42.0746 79.5543 42.0749 79.5545 42.0753 79.5546C42.0756 79.5548 42.0759 79.5549 42.0763 79.5551C42.0766 79.5552 42.077 79.5554 42.0773 79.5555C42.0777 79.5557 42.078 79.5558 42.0784 79.556C42.0787 79.5561 42.0791 79.5563 42.0794 79.5564C42.0798 79.5566 42.0801 79.5567 42.0805 79.5569C42.0808 79.557 42.0812 79.5572 42.0815 79.5573C42.0818 79.5575 42.0822 79.5576 42.0825 79.5578C42.0829 79.5579 42.0832 79.5581 42.0836 79.5582C42.0839 79.5584 42.0843 79.5585 42.0846 79.5587C42.0849 79.5588 42.0853 79.559 42.0856 79.5591C42.086 79.5593 42.0863 79.5594 42.0866 79.5596C42.087 79.5597 42.0873 79.5599 42.0877 79.56C42.088 79.5602 42.0884 79.5603 42.0887 79.5605C42.089 79.5606 42.0894 79.5607 42.0897 79.5609C42.09 79.561 42.0904 79.5612 42.0907 79.5613C42.0911 79.5615 42.0914 79.5616 42.0917 79.5618C42.0921 79.5619 42.0924 79.5621 42.0928 79.5622C42.0931 79.5624 42.0934 79.5625 42.0938 79.5626C42.0941 79.5628 42.0944 79.5629 42.0948 79.5631C42.0951 79.5632 42.0954 79.5634 42.0958 79.5635C42.0961 79.5637 42.0964 79.5638 42.0968 79.564C42.0971 79.5641 42.0975 79.5642 42.0978 79.5644C42.0981 79.5645 42.0985 79.5647 42.0988 79.5648C42.0991 79.565 42.0995 79.5651 42.0998 79.5653C42.1001 79.5654 42.1004 79.5655 42.1008 79.5657C42.1011 79.5658 42.1014 79.566 42.1018 79.5661C42.1021 79.5663 42.1024 79.5664 42.1028 79.5665C42.1031 79.5667 42.1034 79.5668 42.1038 79.567C42.1041 79.5671 42.1044 79.5673 42.1047 79.5674C42.1051 79.5675 42.1054 79.5677 42.1057 79.5678C42.1061 79.568 42.1064 79.5681 42.1067 79.5682C42.107 79.5684 42.1074 79.5685 42.1077 79.5687C42.108 79.5688 42.1083 79.569 42.1087 79.5691C42.109 79.5692 42.1093 79.5694 42.1096 79.5695C42.11 79.5697 42.1103 79.5698 42.1106 79.5699C42.1109 79.5701 42.1113 79.5702 42.1116 79.5704C42.1119 79.5705 42.1122 79.5706 42.1126 79.5708C42.1129 79.5709 42.1132 79.5711 42.1135 79.5712C42.1139 79.5713 42.1142 79.5715 42.1145 79.5716C42.1148 79.5718 42.1151 79.5719 42.1155 79.572C42.1158 79.5722 42.1161 79.5723 42.1164 79.5725C42.1168 79.5726 42.1171 79.5727 42.1174 79.5729C42.1177 79.573 42.118 79.5731 42.1183 79.5733C42.1187 79.5734 42.119 79.5736 42.1193 79.5737C42.1196 79.5738 42.1199 79.574 42.1203 79.5741C42.1206 79.5742 42.1209 79.5744 42.1212 79.5745C42.1215 79.5747 42.1218 79.5748 42.1222 79.5749C42.1225 79.5751 42.1228 79.5752 42.1231 79.5753C42.1234 79.5755 42.1237 79.5756 42.1241 79.5758C42.1244 79.5759 42.1247 79.576 42.125 79.5762C42.1253 79.5763 42.1256 79.5764 42.1259 79.5766C42.1263 79.5767 42.1266 79.5768 42.1269 79.577C42.1272 79.5771 42.1275 79.5772 42.1278 79.5774C42.1281 79.5775 42.1284 79.5776 42.1287 79.5778C42.1291 79.5779 42.1294 79.5781 42.1297 79.5782C42.13 79.5783 42.1303 79.5785 42.1306 79.5786C42.1309 79.5787 42.1312 79.5789 42.1315 79.579C42.1319 79.5791 42.1322 79.5793 42.1325 79.5794C42.1328 79.5795 42.1331 79.5797 42.1334 79.5798C42.1337 79.5799 42.134 79.5801 42.1343 79.5802C42.1346 79.5803 42.1349 79.5805 42.1352 79.5806C42.1355 79.5807 42.1358 79.5809 42.1362 79.581C42.1365 79.5811 42.1368 79.5812 42.1371 79.5814C42.1374 79.5815 42.1377 79.5816 42.138 79.5818C42.1383 79.5819 42.1386 79.582 42.1389 79.5822C42.1392 79.5823 42.1395 79.5824 42.1398 79.5826C42.1401 79.5827 42.1404 79.5828 42.1407 79.583C42.141 79.5831 42.1413 79.5832 42.1416 79.5833C42.1419 79.5835 42.1422 79.5836 42.1425 79.5837C42.1428 79.5839 42.1431 79.584 42.1434 79.5841C42.1437 79.5843 42.144 79.5844 42.1443 79.5845C42.1446 79.5846 42.1449 79.5848 42.1452 79.5849C42.1455 79.585 42.1458 79.5852 42.1461 79.5853C42.1464 79.5854 42.1467 79.5856 42.147 79.5857C42.1473 79.5858 42.1476 79.5859 42.1479 79.5861C42.1482 79.5862 42.1485 79.5863 42.1488 79.5864C42.1491 79.5866 42.1494 79.5867 42.1497 79.5868C42.15 79.587 42.1503 79.5871 42.1506 79.5872C42.1509 79.5873 42.1511 79.5875 42.1514 79.5876C42.1517 79.5877 42.152 79.5879 42.1523 79.588C42.1526 79.5881 42.1529 79.5882 42.1532 79.5884C42.1535 79.5885 42.1538 79.5886 42.1541 79.5887C42.1544 79.5889 42.1547 79.589 42.155 79.5891C42.1552 79.5892 42.1555 79.5894 42.1558 79.5895C42.1561 79.5896 42.1564 79.5897 42.1567 79.5899C42.157 79.59 42.1573 79.5901 42.1576 79.5902C42.1579 79.5904 42.1581 79.5905 42.1584 79.5906C42.1587 79.5907 42.159 79.5909 42.1593 79.591C42.1596 79.5911 42.1599 79.5912 42.1602 79.5914L43.7481 75.9201ZM43.0322 75.6104C42.9464 75.5733 42.9634 75.5728 43.0308 75.6194C43.067 75.6445 43.1482 75.704 43.243 75.8042C43.3347 75.9012 43.485 76.0845 43.5946 76.3612L39.8758 77.8343C40.118 78.4458 40.5714 78.7818 40.7536 78.908C40.9887 79.0708 41.2364 79.1918 41.4443 79.2817L43.0322 75.6104ZM43.5946 76.3612C43.7549 76.7658 43.7176 77.0993 43.6974 77.2219C43.6752 77.3567 43.6419 77.4251 43.6512 77.4035L39.98 75.8155C39.894 76.0143 39.7997 76.2741 39.7506 76.5717C39.7036 76.857 39.6738 77.3245 39.8758 77.8343L43.5946 76.3612ZM43.6256 77.4605L44.4429 75.7221L40.823 74.0202L40.0057 75.7586L43.6256 77.4605ZM44.4562 75.6931L47.6867 68.5266L44.0401 66.8828L40.8096 74.0492L44.4562 75.6931ZM47.6914 68.5161L52.8037 56.9992L49.1477 55.3764L44.0354 66.8933L47.6914 68.5161ZM52.8113 56.9818C53.2697 55.9221 54.4051 53.4941 56.2399 49.6563L52.6311 47.931C50.8056 51.7493 49.6345 54.2508 49.1401 55.3938L52.8113 56.9818ZM56.2379 49.6604C56.6736 48.7543 57.3734 47.2879 58.3362 45.2635L54.7239 43.5455C53.7613 45.5694 53.0647 47.0292 52.633 47.9269L56.2379 49.6604ZM58.3367 45.2624C58.8302 44.2232 59.2191 43.3766 59.4986 42.7304C59.7458 42.1589 59.9898 41.563 60.0817 41.1335L56.1703 40.2963C56.1768 40.2656 56.1121 40.4842 55.8273 41.1425C55.5748 41.7262 55.2085 42.5249 54.7234 43.5466L58.3367 45.2624ZM59.9973 41.4207L60.4425 40.2404L56.6998 38.8288L56.2547 40.0091L59.9973 41.4207ZM60.4068 40.3286C60.4717 40.1785 60.5184 40.1035 60.5358 40.0787C60.5546 40.0518 60.5176 40.1141 60.4031 40.1943C60.2758 40.2834 60.0766 40.3765 59.8235 40.3989C59.5752 40.4209 59.3832 40.3653 59.2776 40.3196L60.8655 36.6483C59.9717 36.2617 58.9602 36.3215 58.1087 36.9178C57.4104 37.4068 56.9976 38.1347 56.7355 38.7406L60.4068 40.3286ZM59.2283 40.2974L61.242 41.2338L62.9286 37.6068L60.9148 36.6704L59.2283 40.2974ZM61.2913 41.256C61.1698 41.2034 60.9848 41.0978 60.8096 40.9004C60.6267 40.6943 60.5111 40.4515 60.4597 40.2126C60.3686 39.7893 60.5075 39.5416 60.4669 39.6355L64.1381 41.2235C64.3198 40.8034 64.5337 40.1306 64.3702 39.3709C64.1746 38.4622 63.5453 37.8728 62.8793 37.5847L61.2913 41.256ZM60.4669 39.6355C60.4369 39.7048 60.3736 39.8303 60.2567 40.0209L63.6665 42.1121C63.8454 41.8205 64.0093 41.5212 64.1381 41.2235L60.4669 39.6355ZM60.2815 39.9815C60.0905 40.2772 59.9247 40.5867 59.7851 40.9095L63.4563 42.4975C63.5073 42.3797 63.5687 42.2646 63.6417 42.1515L60.2815 39.9815ZM59.9092 40.6688C59.3773 41.5486 58.3359 43.7044 56.836 46.9731L60.4715 48.6414C62.0085 45.2918 62.9451 43.3785 63.3322 42.7382L59.9092 40.6688ZM56.8181 47.0132C56.3906 48.0016 55.2073 50.5399 53.2444 54.6739L56.8577 56.3897C58.8091 52.2801 60.0276 49.6688 60.4894 48.6012L56.8181 47.0132ZM53.2455 54.6716C51.3591 58.6313 50.2024 61.0991 49.8033 62.0218L53.4746 63.6098C53.8377 62.7703 54.9557 60.3821 56.8566 56.392L53.2455 54.6716ZM49.8033 62.0218C48.8741 64.1701 47.7374 66.8995 46.3946 70.2061L50.1006 71.7112C51.4375 68.4194 52.5617 65.7202 53.4746 63.6098L49.8033 62.0218ZM46.3944 70.2065C45.0894 73.422 44.2817 75.492 44.0509 76.2621L47.8826 77.4102C48.0449 76.8686 48.7577 75.0202 50.1008 71.7107L46.3944 70.2065ZM44.0256 76.3547C44.0003 76.4567 43.9488 76.6148 43.8527 76.837L47.524 78.4249C47.682 78.0597 47.8161 77.6879 47.908 77.3176L44.0256 76.3547ZM43.8527 76.837C43.8529 76.8367 43.8603 76.8194 43.8777 76.7899C43.8949 76.7607 43.9257 76.713 43.9741 76.6555C44.0715 76.5398 44.2565 76.3664 44.5484 76.2507L46.0215 79.9696C46.9105 79.6175 47.3323 78.8683 47.524 78.4249L43.8527 76.837ZM44.1981 76.4313C44.327 76.3479 44.4295 76.3121 44.4703 76.2994C44.5131 76.2862 44.525 76.287 44.493 76.2913L45.0202 80.2564C45.3845 80.208 45.8951 80.0978 46.3719 79.7891L44.1981 76.4313ZM44.399 76.3061C44.5171 76.2846 44.6085 76.2822 44.6601 76.2828C44.7133 76.2835 44.7469 76.2878 44.7556 76.289C44.7693 76.2908 44.7371 76.2871 44.6457 76.2608C44.4612 76.2078 44.169 76.1021 43.7481 75.9201L42.1602 79.5914C42.6571 79.8063 43.1242 79.9855 43.5406 80.1052C43.8691 80.1996 44.4805 80.3568 45.1142 80.2416L44.399 76.3061Z" fill="#0C3C87"/>
<path d="M66.21 28.6C66.21 33.8433 64.01 37.3267 59.61 39.05C55.1733 40.7733 50.425 41.635 45.365 41.635C40.4883 41.635 36.5833 40.975 33.65 39.655C30.7167 38.2983 28.6633 36.6667 27.49 34.76C26.3167 32.8167 25.73 30.8917 25.73 28.985C25.73 25.3183 26.7933 22.5683 28.92 20.735C31.01 18.9017 33.5033 17.7283 36.4 17.215C39.26 16.7017 42.505 16.445 46.135 16.445C49.0683 16.445 52.0933 16.885 55.21 17.765C58.29 18.645 60.8933 20.0017 63.02 21.835C65.1467 23.6683 66.21 25.9233 66.21 28.6ZM52.24 29.04C52.24 28.05 51.69 27.3167 50.59 26.84C49.49 26.3633 48.17 26.125 46.63 26.125C45.1633 26.125 43.88 26.3633 42.78 26.84C41.68 27.28 41.13 27.885 41.13 28.655C41.13 29.5717 41.7717 30.2683 43.055 30.745C44.3017 31.185 45.6583 31.405 47.125 31.405C48.6283 31.405 49.8567 31.2583 50.81 30.965C51.7633 30.6717 52.24 30.03 52.24 29.04Z" fill="#0C3C87"/>
<ellipse cx="48" cy="28.5" rx="8" ry="4.5" fill="#0C3C87"/>
</svg>
