<svg width="93" height="148" viewBox="0 0 93 148" fill="none" xmlns="http://www.w3.org/2000/svg">
<circle cx="46.5" cy="84.5" r="46.5" fill="#EAF1F2"/>
<path d="M42.0608 114.36C41.9096 114.412 41.6639 114.497 41.3237 114.615C41.0213 114.72 40.8193 114.747 40.7175 114.698C40.6157 114.648 40.5256 114.51 40.4471 114.283L39.8757 112.45L37.4177 104.983L33.4092 93.0368C33.0166 91.9028 32.2024 89.3063 30.9665 85.2473C30.6772 84.2892 30.2039 82.7387 29.5467 80.5958C28.8765 78.4151 28.4381 77.1488 28.2316 76.797L27.7627 75.6259C27.4225 74.6432 27.5548 74.0471 28.1596 73.8377L30.2771 73.1682C30.6551 73.0373 30.9356 73.2365 31.1188 73.7657C31.1843 73.9547 31.2439 74.188 31.2977 74.4657C31.3384 74.7056 31.398 74.9389 31.4765 75.1657C31.651 76.0365 32.2959 78.2049 33.411 81.6708C33.7774 82.7292 34.6309 85.4391 35.9715 89.8005C37.2597 94.0107 38.0608 96.5694 38.3749 97.4766C39.1338 99.669 40.1334 102.434 41.3736 105.772C42.6008 109.072 43.3633 111.03 43.6614 111.647C43.7777 111.861 43.8882 112.119 43.9929 112.421C44.0845 112.686 44.0932 112.894 44.0191 113.047C43.9827 113.186 43.8897 113.346 43.74 113.524C43.5655 113.754 43.0058 114.033 42.0608 114.36Z" fill="#0C3C87"/>
<path d="M42.9551 115.756C42.8083 115.692 42.5696 115.589 42.2392 115.446C41.9455 115.319 41.7778 115.203 41.7362 115.098C41.6945 114.993 41.7213 114.83 41.8166 114.61L42.6339 112.871L45.8644 105.705L50.9767 94.1878C51.4531 93.0864 52.6063 90.6217 54.4364 86.7937C54.8701 85.8917 55.5683 84.4287 56.531 82.4045C57.5096 80.3436 58.0416 79.1138 58.127 78.7149L58.5721 77.5346C58.985 76.5801 59.4851 76.2298 60.0725 76.4839L62.0863 77.4203C62.4534 77.5791 62.5258 77.9155 62.3035 78.4295C62.2241 78.613 62.1105 78.8254 61.9626 79.0665C61.8306 79.2709 61.717 79.4832 61.6217 79.7035C61.1622 80.4636 60.1732 82.4981 58.6547 85.8072C58.2101 86.8352 57.0092 89.41 55.052 93.5318C53.1584 97.5067 52.021 99.9347 51.6399 100.816C50.7189 102.945 49.5884 105.659 48.2485 108.959C46.9246 112.221 46.1643 114.18 45.9678 114.836C45.9092 115.072 45.8164 115.337 45.6894 115.631C45.5782 115.888 45.4437 116.048 45.2859 116.11C45.1649 116.189 44.9887 116.243 44.7575 116.274C44.4737 116.325 43.8729 116.153 42.9551 115.756Z" fill="#0C3C87"/>
<path d="M41.7362 115.098L43.5956 114.361L43.5956 114.361L41.7362 115.098ZM41.8166 114.61L40.0066 113.759L39.9933 113.787L39.9809 113.816L41.8166 114.61ZM42.6339 112.871L44.4438 113.722L44.4506 113.708L44.4572 113.693L42.6339 112.871ZM45.8644 105.705L47.6877 106.527L47.6924 106.516L45.8644 105.705ZM50.9767 94.1878L52.8047 94.9992L52.8085 94.9905L52.8123 94.9818L50.9767 94.1878ZM54.4364 86.7937L52.634 85.9269L52.632 85.931L54.4364 86.7937ZM56.531 82.4045L58.3372 83.2635L58.3377 83.2624L56.531 82.4045ZM58.127 78.7149L56.2556 78.0091L56.2027 78.1495L56.1713 78.2963L58.127 78.7149ZM58.5721 77.5346L56.7365 76.7406L56.7176 76.7843L56.7008 76.8288L58.5721 77.5346ZM60.0725 76.4839L60.9158 74.6704L60.8913 74.659L60.8665 74.6483L60.0725 76.4839ZM62.0863 77.4203L61.243 79.2338L61.2675 79.2452L61.2923 79.256L62.0863 77.4203ZM61.9626 79.0665L63.6427 80.1515L63.6553 80.1319L63.6675 80.1121L61.9626 79.0665ZM61.6217 79.7035L63.3332 80.7382L63.4034 80.6221L63.4573 80.4975L61.6217 79.7035ZM58.6547 85.8072L56.8369 84.9731L56.8278 84.9931L56.8191 85.0132L58.6547 85.8072ZM55.052 93.5318L56.8576 94.392L56.8587 94.3897L55.052 93.5318ZM48.2485 108.959L46.3955 108.206L46.3953 108.207L48.2485 108.959ZM45.9678 114.836L44.0519 114.262L44.0381 114.308L44.0266 114.355L45.9678 114.836ZM45.2859 116.11L44.5494 114.251L44.3653 114.324L44.199 114.431L45.2859 116.11ZM44.7575 116.274L44.494 114.291L44.4468 114.298L44.4 114.306L44.7575 116.274ZM43.7491 113.92C43.7488 113.92 43.7485 113.92 43.7482 113.92C43.748 113.92 43.7477 113.919 43.7474 113.919C43.7471 113.919 43.7468 113.919 43.7465 113.919C43.7462 113.919 43.7459 113.919 43.7457 113.919C43.7454 113.918 43.7451 113.918 43.7448 113.918C43.7445 113.918 43.7442 113.918 43.7439 113.918C43.7436 113.918 43.7433 113.918 43.743 113.917C43.7427 113.917 43.7425 113.917 43.7422 113.917C43.7419 113.917 43.7416 113.917 43.7413 113.917C43.741 113.917 43.7407 113.916 43.7404 113.916C43.7401 113.916 43.7398 113.916 43.7395 113.916C43.7392 113.916 43.7389 113.916 43.7386 113.916C43.7383 113.915 43.738 113.915 43.7377 113.915C43.7374 113.915 43.7372 113.915 43.7369 113.915C43.7366 113.915 43.7363 113.915 43.736 113.914C43.7357 113.914 43.7354 113.914 43.7351 113.914C43.7348 113.914 43.7345 113.914 43.7342 113.914C43.7339 113.913 43.7336 113.913 43.7333 113.913C43.733 113.913 43.7327 113.913 43.7324 113.913C43.7321 113.913 43.7318 113.913 43.7315 113.912C43.7312 113.912 43.7309 113.912 43.7306 113.912C43.7303 113.912 43.73 113.912 43.7297 113.912C43.7294 113.912 43.7291 113.911 43.7288 113.911C43.7285 113.911 43.7282 113.911 43.7279 113.911C43.7275 113.911 43.7272 113.911 43.7269 113.91C43.7266 113.91 43.7263 113.91 43.726 113.91C43.7257 113.91 43.7254 113.91 43.7251 113.91C43.7248 113.91 43.7245 113.909 43.7242 113.909C43.7239 113.909 43.7236 113.909 43.7233 113.909C43.723 113.909 43.7227 113.909 43.7223 113.909C43.722 113.908 43.7217 113.908 43.7214 113.908C43.7211 113.908 43.7208 113.908 43.7205 113.908C43.7202 113.908 43.7199 113.907 43.7196 113.907C43.7193 113.907 43.7189 113.907 43.7186 113.907C43.7183 113.907 43.718 113.907 43.7177 113.906C43.7174 113.906 43.7171 113.906 43.7168 113.906C43.7165 113.906 43.7161 113.906 43.7158 113.906C43.7155 113.906 43.7152 113.905 43.7149 113.905C43.7146 113.905 43.7143 113.905 43.714 113.905C43.7136 113.905 43.7133 113.905 43.713 113.904C43.7127 113.904 43.7124 113.904 43.7121 113.904C43.7117 113.904 43.7114 113.904 43.7111 113.904C43.7108 113.904 43.7105 113.903 43.7102 113.903C43.7099 113.903 43.7095 113.903 43.7092 113.903C43.7089 113.903 43.7086 113.903 43.7083 113.902C43.7079 113.902 43.7076 113.902 43.7073 113.902C43.707 113.902 43.7067 113.902 43.7063 113.902C43.706 113.901 43.7057 113.901 43.7054 113.901C43.7051 113.901 43.7047 113.901 43.7044 113.901C43.7041 113.901 43.7038 113.9 43.7035 113.9C43.7031 113.9 43.7028 113.9 43.7025 113.9C43.7022 113.9 43.7018 113.9 43.7015 113.899C43.7012 113.899 43.7009 113.899 43.7006 113.899C43.7002 113.899 43.6999 113.899 43.6996 113.899C43.6993 113.899 43.6989 113.898 43.6986 113.898C43.6983 113.898 43.698 113.898 43.6976 113.898C43.6973 113.898 43.697 113.898 43.6967 113.897C43.6963 113.897 43.696 113.897 43.6957 113.897C43.6953 113.897 43.695 113.897 43.6947 113.897C43.6944 113.896 43.694 113.896 43.6937 113.896C43.6934 113.896 43.693 113.896 43.6927 113.896C43.6924 113.896 43.6921 113.895 43.6917 113.895C43.6914 113.895 43.6911 113.895 43.6907 113.895C43.6904 113.895 43.6901 113.895 43.6897 113.894C43.6894 113.894 43.6891 113.894 43.6887 113.894C43.6884 113.894 43.6881 113.894 43.6877 113.894C43.6874 113.893 43.6871 113.893 43.6867 113.893C43.6864 113.893 43.6861 113.893 43.6857 113.893C43.6854 113.893 43.6851 113.892 43.6847 113.892C43.6844 113.892 43.6841 113.892 43.6837 113.892C43.6834 113.892 43.6831 113.892 43.6827 113.891C43.6824 113.891 43.682 113.891 43.6817 113.891C43.6814 113.891 43.681 113.891 43.6807 113.89C43.6804 113.89 43.68 113.89 43.6797 113.89C43.6793 113.89 43.679 113.89 43.6787 113.89C43.6783 113.889 43.678 113.889 43.6776 113.889C43.6773 113.889 43.677 113.889 43.6766 113.889C43.6763 113.889 43.6759 113.888 43.6756 113.888C43.6753 113.888 43.6749 113.888 43.6746 113.888C43.6742 113.888 43.6739 113.888 43.6735 113.887C43.6732 113.887 43.6729 113.887 43.6725 113.887C43.6722 113.887 43.6718 113.887 43.6715 113.887C43.6711 113.886 43.6708 113.886 43.6705 113.886C43.6701 113.886 43.6698 113.886 43.6694 113.886C43.6691 113.885 43.6687 113.885 43.6684 113.885C43.668 113.885 43.6677 113.885 43.6673 113.885C43.667 113.885 43.6666 113.884 43.6663 113.884C43.666 113.884 43.6656 113.884 43.6653 113.884C43.6649 113.884 43.6646 113.884 43.6642 113.883C43.6639 113.883 43.6635 113.883 43.6632 113.883C43.6628 113.883 43.6625 113.883 43.6621 113.882C43.6618 113.882 43.6614 113.882 43.6611 113.882C43.6607 113.882 43.6604 113.882 43.66 113.882C43.6596 113.881 43.6593 113.881 43.6589 113.881C43.6586 113.881 43.6582 113.881 43.6579 113.881C43.6575 113.88 43.6572 113.88 43.6568 113.88C43.6565 113.88 43.6561 113.88 43.6558 113.88C43.6554 113.88 43.6551 113.879 43.6547 113.879C43.6543 113.879 43.654 113.879 43.6536 113.879C43.6533 113.879 43.6529 113.878 43.6526 113.878C43.6522 113.878 43.6518 113.878 43.6515 113.878C43.6511 113.878 43.6508 113.878 43.6504 113.877C43.6501 113.877 43.6497 113.877 43.6493 113.877C43.649 113.877 43.6486 113.877 43.6483 113.876C43.6479 113.876 43.6475 113.876 43.6472 113.876C43.6468 113.876 43.6465 113.876 43.6461 113.876C43.6457 113.875 43.6454 113.875 43.645 113.875C43.6447 113.875 43.6443 113.875 43.6439 113.875C43.6436 113.874 43.6432 113.874 43.6428 113.874C43.6425 113.874 43.6421 113.874 43.6417 113.874C43.6414 113.873 43.641 113.873 43.6407 113.873C43.6403 113.873 43.6399 113.873 43.6396 113.873C43.6392 113.873 43.6388 113.872 43.6385 113.872C43.6381 113.872 43.6377 113.872 43.6374 113.872C43.637 113.872 43.6366 113.871 43.6363 113.871C43.6359 113.871 43.6355 113.871 43.6352 113.871C43.6348 113.871 43.6344 113.87 43.6341 113.87C43.6337 113.87 43.6333 113.87 43.6329 113.87C43.6326 113.87 43.6322 113.87 43.6318 113.869C43.6315 113.869 43.6311 113.869 43.6307 113.869C43.6304 113.869 43.63 113.869 43.6296 113.868C43.6292 113.868 43.6289 113.868 43.6285 113.868C43.6281 113.868 43.6278 113.868 43.6274 113.867C43.627 113.867 43.6266 113.867 43.6263 113.867C43.6259 113.867 43.6255 113.867 43.6251 113.866C43.6248 113.866 43.6244 113.866 43.624 113.866C43.6236 113.866 43.6233 113.866 43.6229 113.865C43.6225 113.865 43.6221 113.865 43.6218 113.865C43.6214 113.865 43.621 113.865 43.6206 113.865C43.6203 113.864 43.6199 113.864 43.6195 113.864C43.6191 113.864 43.6187 113.864 43.6184 113.864C43.618 113.863 43.6176 113.863 43.6172 113.863C43.6168 113.863 43.6165 113.863 43.6161 113.863C43.6157 113.862 43.6153 113.862 43.6149 113.862C43.6146 113.862 43.6142 113.862 43.6138 113.862C43.6134 113.861 43.613 113.861 43.6127 113.861C43.6123 113.861 43.6119 113.861 43.6115 113.861C43.6111 113.86 43.6107 113.86 43.6104 113.86C43.61 113.86 43.6096 113.86 43.6092 113.86C43.6088 113.859 43.6084 113.859 43.6081 113.859C43.6077 113.859 43.6073 113.859 43.6069 113.859C43.6065 113.858 43.6061 113.858 43.6057 113.858C43.6054 113.858 43.605 113.858 43.6046 113.858C43.6042 113.857 43.6038 113.857 43.6034 113.857C43.603 113.857 43.6026 113.857 43.6023 113.857C43.6019 113.856 43.6015 113.856 43.6011 113.856C43.6007 113.856 43.6003 113.856 43.5999 113.856C43.5995 113.855 43.5991 113.855 43.5988 113.855C43.5984 113.855 43.598 113.855 43.5976 113.855C43.5972 113.854 43.5968 113.854 43.5964 113.854C43.596 113.854 43.5956 113.854 43.5952 113.854C43.5948 113.853 43.5944 113.853 43.5941 113.853C43.5937 113.853 43.5933 113.853 43.5929 113.853C43.5925 113.852 43.5921 113.852 43.5917 113.852C43.5913 113.852 43.5909 113.852 43.5905 113.851C43.5901 113.851 43.5897 113.851 43.5893 113.851C43.5889 113.851 43.5885 113.851 43.5881 113.85C43.5877 113.85 43.5873 113.85 43.5869 113.85C43.5865 113.85 43.5861 113.85 43.5857 113.849C43.5853 113.849 43.5849 113.849 43.5845 113.849C43.5841 113.849 43.5837 113.849 43.5833 113.848C43.5829 113.848 43.5825 113.848 43.5821 113.848C43.5817 113.848 43.5813 113.848 43.5809 113.847C43.5805 113.847 43.5801 113.847 43.5797 113.847C43.5793 113.847 43.5789 113.846 43.5785 113.846C43.5781 113.846 43.5777 113.846 43.5773 113.846C43.5769 113.846 43.5765 113.845 43.5761 113.845C43.5757 113.845 43.5753 113.845 43.5749 113.845C43.5745 113.845 43.5741 113.844 43.5737 113.844C43.5733 113.844 43.5729 113.844 43.5725 113.844C43.5721 113.844 43.5717 113.843 43.5713 113.843C43.5709 113.843 43.5704 113.843 43.57 113.843C43.5696 113.842 43.5692 113.842 43.5688 113.842C43.5684 113.842 43.568 113.842 43.5676 113.842C43.5672 113.841 43.5668 113.841 43.5664 113.841C43.566 113.841 43.5655 113.841 43.5651 113.841C43.5647 113.84 43.5643 113.84 43.5639 113.84C43.5635 113.84 43.5631 113.84 43.5627 113.839C43.5623 113.839 43.5618 113.839 43.5614 113.839C43.561 113.839 43.5606 113.839 43.5602 113.838C43.5598 113.838 43.5594 113.838 43.559 113.838C43.5585 113.838 43.5581 113.837 43.5577 113.837C43.5573 113.837 43.5569 113.837 43.5565 113.837C43.5561 113.837 43.5556 113.836 43.5552 113.836C43.5548 113.836 43.5544 113.836 43.554 113.836C43.5536 113.835 43.5531 113.835 43.5527 113.835C43.5523 113.835 43.5519 113.835 43.5515 113.835C43.5511 113.834 43.5506 113.834 43.5502 113.834C43.5498 113.834 43.5494 113.834 43.549 113.834C43.5485 113.833 43.5481 113.833 43.5477 113.833C43.5473 113.833 43.5469 113.833 43.5464 113.832C43.546 113.832 43.5456 113.832 43.5452 113.832C43.5448 113.832 43.5443 113.832 43.5439 113.831C43.5435 113.831 43.5431 113.831 43.5426 113.831C43.5422 113.831 43.5418 113.83 43.5414 113.83C43.541 113.83 43.5405 113.83 43.5401 113.83C43.5397 113.829 43.5393 113.829 43.5388 113.829C43.5384 113.829 43.538 113.829 43.5376 113.829C43.5371 113.828 43.5367 113.828 43.5363 113.828C43.5359 113.828 43.5354 113.828 43.535 113.827C43.5346 113.827 43.5341 113.827 43.5337 113.827C43.5333 113.827 43.5329 113.827 43.5324 113.826C43.532 113.826 43.5316 113.826 43.5312 113.826C43.5307 113.826 43.5303 113.825 43.5299 113.825C43.5294 113.825 43.529 113.825 43.5286 113.825C43.5281 113.825 43.5277 113.824 43.5273 113.824C43.5269 113.824 43.5264 113.824 43.526 113.824C43.5256 113.823 43.5251 113.823 43.5247 113.823C43.5243 113.823 43.5238 113.823 43.5234 113.822C43.523 113.822 43.5225 113.822 43.5221 113.822C43.5217 113.822 43.5212 113.822 43.5208 113.821C43.5204 113.821 43.5199 113.821 43.5195 113.821C43.519 113.821 43.5186 113.82 43.5182 113.82C43.5177 113.82 43.5173 113.82 43.5169 113.82C43.5164 113.819 43.516 113.819 43.5156 113.819C43.5151 113.819 43.5147 113.819 43.5142 113.818C43.5138 113.818 43.5134 113.818 43.5129 113.818C43.5125 113.818 43.5121 113.818 43.5116 113.817C43.5112 113.817 43.5107 113.817 43.5103 113.817C43.5099 113.817 43.5094 113.816 43.509 113.816C43.5085 113.816 43.5081 113.816 43.5076 113.816C43.5072 113.815 43.5068 113.815 43.5063 113.815C43.5059 113.815 43.5054 113.815 43.505 113.814C43.5046 113.814 43.5041 113.814 43.5037 113.814C43.5032 113.814 43.5028 113.814 43.5023 113.813C43.5019 113.813 43.5014 113.813 43.501 113.813C43.5006 113.813 43.5001 113.812 43.4997 113.812C43.4992 113.812 43.4988 113.812 43.4983 113.812C43.4979 113.811 43.4974 113.811 43.497 113.811C43.4965 113.811 43.4961 113.811 43.4956 113.81C43.4952 113.81 43.4947 113.81 43.4943 113.81C43.4938 113.81 43.4934 113.809 43.4929 113.809C43.4925 113.809 43.492 113.809 43.4916 113.809C43.4911 113.809 43.4907 113.808 43.4902 113.808C43.4898 113.808 43.4893 113.808 43.4889 113.808C43.4884 113.807 43.488 113.807 43.4875 113.807C43.4871 113.807 43.4866 113.807 43.4862 113.806C43.4857 113.806 43.4853 113.806 43.4848 113.806C43.4844 113.806 43.4839 113.805 43.4835 113.805C43.483 113.805 43.4826 113.805 43.4821 113.805C43.4816 113.804 43.4812 113.804 43.4807 113.804C43.4803 113.804 43.4798 113.804 43.4794 113.803C43.4789 113.803 43.4785 113.803 43.478 113.803C43.4775 113.803 43.4771 113.802 43.4766 113.802C43.4762 113.802 43.4757 113.802 43.4752 113.802C43.4748 113.801 43.4743 113.801 43.4739 113.801C43.4734 113.801 43.473 113.801 43.4725 113.8C43.472 113.8 43.4716 113.8 43.4711 113.8C43.4707 113.8 43.4702 113.799 43.4697 113.799C43.4693 113.799 43.4688 113.799 43.4683 113.799C43.4679 113.798 43.4674 113.798 43.467 113.798C43.4665 113.798 43.466 113.798 43.4656 113.797C43.4651 113.797 43.4646 113.797 43.4642 113.797C43.4637 113.797 43.4633 113.796 43.4628 113.796C43.4623 113.796 43.4619 113.796 43.4614 113.796C43.4609 113.795 43.4605 113.795 43.46 113.795C43.4595 113.795 43.4591 113.795 43.4586 113.794C43.4581 113.794 43.4577 113.794 43.4572 113.794C43.4567 113.794 43.4563 113.793 43.4558 113.793C43.4553 113.793 43.4549 113.793 43.4544 113.793C43.4539 113.792 43.4534 113.792 43.453 113.792C43.4525 113.792 43.452 113.792 43.4516 113.791C43.4511 113.791 43.4506 113.791 43.4502 113.791C43.4497 113.791 43.4492 113.79 43.4487 113.79C43.4483 113.79 43.4478 113.79 43.4473 113.79C43.4469 113.789 43.4464 113.789 43.4459 113.789C43.4454 113.789 43.445 113.789 43.4445 113.788C43.444 113.788 43.4435 113.788 43.4431 113.788C43.4426 113.788 43.4421 113.787 43.4416 113.787C43.4412 113.787 43.4407 113.787 43.4402 113.786C43.4397 113.786 43.4393 113.786 43.4388 113.786C43.4383 113.786 43.4378 113.785 43.4374 113.785C43.4369 113.785 43.4364 113.785 43.4359 113.785C43.4354 113.784 43.435 113.784 43.4345 113.784C43.434 113.784 43.4335 113.784 43.433 113.783C43.4326 113.783 43.4321 113.783 43.4316 113.783C43.4311 113.783 43.4306 113.782 43.4302 113.782C43.4297 113.782 43.4292 113.782 43.4287 113.782C43.4282 113.781 43.4278 113.781 43.4273 113.781C43.4268 113.781 43.4263 113.78 43.4258 113.78C43.4253 113.78 43.4249 113.78 43.4244 113.78C43.4239 113.779 43.4234 113.779 43.4229 113.779C43.4224 113.779 43.422 113.779 43.4215 113.778C43.421 113.778 43.4205 113.778 43.42 113.778C43.4195 113.778 43.419 113.777 43.4186 113.777C43.4181 113.777 43.4176 113.777 43.4171 113.776C43.4166 113.776 43.4161 113.776 43.4156 113.776C43.4152 113.776 43.4147 113.775 43.4142 113.775C43.4137 113.775 43.4132 113.775 43.4127 113.775C43.4122 113.774 43.4117 113.774 43.4112 113.774C43.4108 113.774 43.4103 113.774 43.4098 113.773C43.4093 113.773 43.4088 113.773 43.4083 113.773C43.4078 113.772 43.4073 113.772 43.4068 113.772C43.4063 113.772 43.4058 113.772 43.4053 113.771C43.4049 113.771 43.4044 113.771 43.4039 113.771C43.4034 113.771 43.4029 113.77 43.4024 113.77C43.4019 113.77 43.4014 113.77 43.4009 113.769C43.4004 113.769 43.3999 113.769 43.3994 113.769C43.3989 113.769 43.3984 113.768 43.3979 113.768C43.3974 113.768 43.3969 113.768 43.3964 113.768C43.3959 113.767 43.3954 113.767 43.3949 113.767C43.3944 113.767 43.394 113.766 43.3935 113.766C43.393 113.766 43.3925 113.766 43.392 113.766C43.3915 113.765 43.391 113.765 43.3905 113.765C43.39 113.765 43.3895 113.765 43.389 113.764C43.3885 113.764 43.388 113.764 43.3875 113.764C43.387 113.763 43.3865 113.763 43.386 113.763C43.3855 113.763 43.3849 113.763 43.3844 113.762C43.3839 113.762 43.3834 113.762 43.3829 113.762C43.3824 113.761 43.3819 113.761 43.3814 113.761C43.3809 113.761 43.3804 113.761 43.3799 113.76C43.3794 113.76 43.3789 113.76 43.3784 113.76C43.3779 113.76 43.3774 113.759 43.3769 113.759C43.3764 113.759 43.3759 113.759 43.3754 113.758C43.3749 113.758 43.3743 113.758 43.3738 113.758C43.3733 113.758 43.3728 113.757 43.3723 113.757C43.3718 113.757 43.3713 113.757 43.3708 113.756C43.3703 113.756 43.3698 113.756 43.3693 113.756C43.3688 113.756 43.3682 113.755 43.3677 113.755C43.3672 113.755 43.3667 113.755 43.3662 113.754C43.3657 113.754 43.3652 113.754 43.3647 113.754C43.3642 113.754 43.3636 113.753 43.3631 113.753C43.3626 113.753 43.3621 113.753 43.3616 113.752C43.3611 113.752 43.3606 113.752 43.3601 113.752C43.3595 113.752 43.359 113.751 43.3585 113.751C43.358 113.751 43.3575 113.751 43.357 113.75C43.3565 113.75 43.3559 113.75 43.3554 113.75C43.3549 113.75 43.3544 113.749 43.3539 113.749C43.3534 113.749 43.3528 113.749 43.3523 113.748C43.3518 113.748 43.3513 113.748 43.3508 113.748C43.3503 113.748 43.3497 113.747 43.3492 113.747C43.3487 113.747 43.3482 113.747 43.3477 113.746C43.3471 113.746 43.3466 113.746 43.3461 113.746C43.3456 113.746 43.3451 113.745 43.3445 113.745C43.344 113.745 43.3435 113.745 43.343 113.744C43.3425 113.744 43.3419 113.744 43.3414 113.744C43.3409 113.744 43.3404 113.743 43.3398 113.743C43.3393 113.743 43.3388 113.743 43.3383 113.742C43.3378 113.742 43.3372 113.742 43.3367 113.742C43.3362 113.741 43.3357 113.741 43.3351 113.741C43.3346 113.741 43.3341 113.741 43.3336 113.74C43.333 113.74 43.3325 113.74 43.332 113.74C43.3315 113.739 43.3309 113.739 43.3304 113.739C43.3299 113.739 43.3293 113.739 43.3288 113.738C43.3283 113.738 43.3278 113.738 43.3272 113.738C43.3267 113.737 43.3262 113.737 43.3256 113.737C43.3251 113.737 43.3246 113.736 43.3241 113.736C43.3235 113.736 43.323 113.736 43.3225 113.736C43.3219 113.735 43.3214 113.735 43.3209 113.735C43.3203 113.735 43.3198 113.734 43.3193 113.734C43.3187 113.734 43.3182 113.734 43.3177 113.733C43.3171 113.733 43.3166 113.733 43.3161 113.733C43.3156 113.733 43.315 113.732 43.3145 113.732C43.3139 113.732 43.3134 113.732 43.3129 113.731C43.3123 113.731 43.3118 113.731 43.3113 113.731C43.3107 113.73 43.3102 113.73 43.3097 113.73C43.3091 113.73 43.3086 113.73 43.3081 113.729C43.3075 113.729 43.307 113.729 43.3064 113.729C43.3059 113.728 43.3054 113.728 43.3048 113.728C43.3043 113.728 43.3038 113.727 43.3032 113.727C43.3027 113.727 43.3021 113.727 43.3016 113.727C43.3011 113.726 43.3005 113.726 43.3 113.726C43.2994 113.726 43.2989 113.725 43.2984 113.725C43.2978 113.725 43.2973 113.725 43.2967 113.724C43.2962 113.724 43.2956 113.724 43.2951 113.724C43.2946 113.723 43.294 113.723 43.2935 113.723C43.2929 113.723 43.2924 113.723 43.2918 113.722C43.2913 113.722 43.2908 113.722 43.2902 113.722C43.2897 113.721 43.2891 113.721 43.2886 113.721C43.288 113.721 43.2875 113.72 43.2869 113.72C43.2864 113.72 43.2859 113.72 43.2853 113.719C43.2848 113.719 43.2842 113.719 43.2837 113.719C43.2831 113.719 43.2826 113.718 43.282 113.718C43.2815 113.718 43.2809 113.718 43.2804 113.717C43.2798 113.717 43.2793 113.717 43.2787 113.717C43.2782 113.716 43.2776 113.716 43.2771 113.716C43.2765 113.716 43.276 113.715 43.2754 113.715C43.2749 113.715 43.2743 113.715 43.2738 113.714C43.2732 113.714 43.2727 113.714 43.2721 113.714C43.2716 113.714 43.271 113.713 43.2705 113.713C43.2699 113.713 43.2694 113.713 43.2688 113.712C43.2682 113.712 43.2677 113.712 43.2671 113.712C43.2666 113.711 43.266 113.711 43.2655 113.711C43.2649 113.711 43.2644 113.71 43.2638 113.71C43.2633 113.71 43.2627 113.71 43.2621 113.709C43.2616 113.709 43.261 113.709 43.2605 113.709C43.2599 113.708 43.2594 113.708 43.2588 113.708C43.2582 113.708 43.2577 113.708 43.2571 113.707C43.2566 113.707 43.256 113.707 43.2554 113.707C43.2549 113.706 43.2543 113.706 43.2538 113.706C43.2532 113.706 43.2527 113.705 43.2521 113.705C43.2515 113.705 43.251 113.705 43.2504 113.704C43.2498 113.704 43.2493 113.704 43.2487 113.704C43.2482 113.703 43.2476 113.703 43.247 113.703C43.2465 113.703 43.2459 113.702 43.2453 113.702C43.2448 113.702 43.2442 113.702 43.2437 113.701C43.2431 113.701 43.2425 113.701 43.242 113.701C43.2414 113.7 43.2408 113.7 43.2403 113.7C43.2397 113.7 43.2391 113.699 43.2386 113.699C43.238 113.699 43.2374 113.699 43.2369 113.699C43.2363 113.698 43.2357 113.698 43.2352 113.698C43.2346 113.698 43.234 113.697 43.2335 113.697C43.2329 113.697 43.2323 113.697 43.2318 113.696C43.2312 113.696 43.2306 113.696 43.23 113.696C43.2295 113.695 43.2289 113.695 43.2283 113.695C43.2278 113.695 43.2272 113.694 43.2266 113.694C43.2261 113.694 43.2255 113.694 43.2249 113.693C43.2243 113.693 43.2238 113.693 43.2232 113.693C43.2226 113.692 43.222 113.692 43.2215 113.692C43.2209 113.692 43.2203 113.691 43.2198 113.691C43.2192 113.691 43.2186 113.691 43.218 113.69C43.2175 113.69 43.2169 113.69 43.2163 113.69C43.2157 113.689 43.2152 113.689 43.2146 113.689C43.214 113.689 43.2134 113.688 43.2129 113.688C43.2123 113.688 43.2117 113.688 43.2111 113.687C43.2105 113.687 43.21 113.687 43.2094 113.687C43.2088 113.686 43.2082 113.686 43.2077 113.686C43.2071 113.686 43.2065 113.685 43.2059 113.685C43.2053 113.685 43.2048 113.685 43.2042 113.684C43.2036 113.684 43.203 113.684 43.2024 113.684C43.2019 113.683 43.2013 113.683 43.2007 113.683C43.2001 113.683 43.1995 113.682 43.1989 113.682C43.1984 113.682 43.1978 113.682 43.1972 113.681C43.1966 113.681 43.196 113.681 43.1954 113.681C43.1949 113.68 43.1943 113.68 43.1937 113.68C43.1931 113.68 43.1925 113.679 43.1919 113.679C43.1914 113.679 43.1908 113.679 43.1902 113.678C43.1896 113.678 43.189 113.678 43.1884 113.678C43.1878 113.677 43.1872 113.677 43.1867 113.677C43.1861 113.677 43.1855 113.676 43.1849 113.676C43.1843 113.676 43.1837 113.676 43.1831 113.675C43.1825 113.675 43.182 113.675 43.1814 113.675C43.1808 113.674 43.1802 113.674 43.1796 113.674C43.179 113.673 43.1784 113.673 43.1778 113.673C43.1772 113.673 43.1766 113.672 43.1761 113.672C43.1755 113.672 43.1749 113.672 43.1743 113.671C43.1737 113.671 43.1731 113.671 43.1725 113.671C43.1719 113.67 43.1713 113.67 43.1707 113.67C43.1701 113.67 43.1695 113.669 43.1689 113.669C43.1683 113.669 43.1678 113.669 43.1672 113.668C43.1666 113.668 43.166 113.668 43.1654 113.668C43.1648 113.667 43.1642 113.667 43.1636 113.667C43.163 113.667 43.1624 113.666 43.1618 113.666C43.1612 113.666 43.1606 113.666 43.16 113.665C43.1594 113.665 43.1588 113.665 43.1582 113.664C43.1576 113.664 43.157 113.664 43.1564 113.664C43.1558 113.663 43.1552 113.663 43.1546 113.663C43.154 113.663 43.1534 113.662 43.1528 113.662C43.1522 113.662 43.1516 113.662 43.151 113.661C43.1504 113.661 43.1498 113.661 43.1492 113.661C43.1486 113.66 43.148 113.66 43.1474 113.66C43.1468 113.66 43.1462 113.659 43.1456 113.659C43.145 113.659 43.1444 113.659 43.1438 113.658C43.1432 113.658 43.1426 113.658 43.142 113.657C43.1414 113.657 43.1408 113.657 43.1401 113.657C43.1395 113.656 43.1389 113.656 43.1383 113.656C43.1377 113.656 43.1371 113.655 43.1365 113.655C43.1359 113.655 43.1353 113.655 43.1347 113.654C43.1341 113.654 43.1335 113.654 43.1329 113.654C43.1323 113.653 43.1317 113.653 43.131 113.653C43.1304 113.652 43.1298 113.652 43.1292 113.652C43.1286 113.652 43.128 113.651 43.1274 113.651C43.1268 113.651 43.1262 113.651 43.1256 113.65C43.1249 113.65 43.1243 113.65 43.1237 113.65C43.1231 113.649 43.1225 113.649 43.1219 113.649C43.1213 113.649 43.1207 113.648 43.12 113.648C43.1194 113.648 43.1188 113.647 43.1182 113.647C43.1176 113.647 43.117 113.647 43.1164 113.646C43.1157 113.646 43.1151 113.646 43.1145 113.646C43.1139 113.645 43.1133 113.645 43.1127 113.645C43.1121 113.645 43.1114 113.644 43.1108 113.644C43.1102 113.644 43.1096 113.643 43.109 113.643C43.1084 113.643 43.1077 113.643 43.1071 113.642C43.1065 113.642 43.1059 113.642 43.1053 113.642C43.1046 113.641 43.104 113.641 43.1034 113.641C43.1028 113.641 43.1022 113.64 43.1015 113.64C43.1009 113.64 43.1003 113.639 43.0997 113.639C43.0991 113.639 43.0984 113.639 43.0978 113.638C43.0972 113.638 43.0966 113.638 43.096 113.638C43.0953 113.637 43.0947 113.637 43.0941 113.637C43.0935 113.636 43.0928 113.636 43.0922 113.636C43.0916 113.636 43.091 113.635 43.0903 113.635C43.0897 113.635 43.0891 113.635 43.0885 113.634C43.0878 113.634 43.0872 113.634 43.0866 113.634C43.086 113.633 43.0853 113.633 43.0847 113.633C43.0841 113.632 43.0835 113.632 43.0828 113.632C43.0822 113.632 43.0816 113.631 43.081 113.631C43.0803 113.631 43.0797 113.631 43.0791 113.63C43.0784 113.63 43.0778 113.63 43.0772 113.629C43.0766 113.629 43.0759 113.629 43.0753 113.629C43.0747 113.628 43.074 113.628 43.0734 113.628C43.0728 113.628 43.0721 113.627 43.0715 113.627C43.0709 113.627 43.0702 113.626 43.0696 113.626C43.069 113.626 43.0683 113.626 43.0677 113.625C43.0671 113.625 43.0665 113.625 43.0658 113.625C43.0652 113.624 43.0646 113.624 43.0639 113.624C43.0633 113.623 43.0626 113.623 43.062 113.623C43.0614 113.623 43.0607 113.622 43.0601 113.622C43.0595 113.622 43.0588 113.622 43.0582 113.621C43.0576 113.621 43.0569 113.621 43.0563 113.62C43.0557 113.62 43.055 113.62 43.0544 113.62C43.0537 113.619 43.0531 113.619 43.0525 113.619C43.0518 113.618 43.0512 113.618 43.0505 113.618C43.0499 113.618 43.0493 113.617 43.0486 113.617C43.048 113.617 43.0473 113.617 43.0467 113.616C43.0461 113.616 43.0454 113.616 43.0448 113.615C43.0441 113.615 43.0435 113.615 43.0429 113.615C43.0422 113.614 43.0416 113.614 43.0409 113.614C43.0403 113.613 43.0397 113.613 43.039 113.613C43.0384 113.613 43.0377 113.612 43.0371 113.612C43.0364 113.612 43.0358 113.612 43.0351 113.611C43.0345 113.611 43.0339 113.611 43.0332 113.61L41.4452 117.282C41.4459 117.282 41.4465 117.282 41.4472 117.283C41.4478 117.283 41.4485 117.283 41.4491 117.283C41.4497 117.284 41.4504 117.284 41.451 117.284C41.4517 117.284 41.4523 117.285 41.453 117.285C41.4536 117.285 41.4542 117.286 41.4549 117.286C41.4555 117.286 41.4562 117.286 41.4568 117.287C41.4574 117.287 41.4581 117.287 41.4587 117.288C41.4594 117.288 41.46 117.288 41.4606 117.288C41.4613 117.289 41.4619 117.289 41.4626 117.289C41.4632 117.289 41.4638 117.29 41.4645 117.29C41.4651 117.29 41.4658 117.291 41.4664 117.291C41.467 117.291 41.4677 117.291 41.4683 117.292C41.4689 117.292 41.4696 117.292 41.4702 117.293C41.4709 117.293 41.4715 117.293 41.4721 117.293C41.4728 117.294 41.4734 117.294 41.474 117.294C41.4747 117.294 41.4753 117.295 41.4759 117.295C41.4766 117.295 41.4772 117.296 41.4778 117.296C41.4785 117.296 41.4791 117.296 41.4797 117.297C41.4804 117.297 41.481 117.297 41.4816 117.297C41.4823 117.298 41.4829 117.298 41.4835 117.298C41.4842 117.299 41.4848 117.299 41.4854 117.299C41.4861 117.299 41.4867 117.3 41.4873 117.3C41.4879 117.3 41.4886 117.3 41.4892 117.301C41.4898 117.301 41.4905 117.301 41.4911 117.302C41.4917 117.302 41.4923 117.302 41.493 117.302C41.4936 117.303 41.4942 117.303 41.4949 117.303C41.4955 117.303 41.4961 117.304 41.4967 117.304C41.4974 117.304 41.498 117.305 41.4986 117.305C41.4992 117.305 41.4999 117.305 41.5005 117.306C41.5011 117.306 41.5017 117.306 41.5024 117.306C41.503 117.307 41.5036 117.307 41.5042 117.307C41.5049 117.308 41.5055 117.308 41.5061 117.308C41.5067 117.308 41.5074 117.309 41.508 117.309C41.5086 117.309 41.5092 117.309 41.5098 117.31C41.5105 117.31 41.5111 117.31 41.5117 117.31C41.5123 117.311 41.5129 117.311 41.5136 117.311C41.5142 117.312 41.5148 117.312 41.5154 117.312C41.516 117.312 41.5167 117.313 41.5173 117.313C41.5179 117.313 41.5185 117.313 41.5191 117.314C41.5198 117.314 41.5204 117.314 41.521 117.314C41.5216 117.315 41.5222 117.315 41.5228 117.315C41.5235 117.316 41.5241 117.316 41.5247 117.316C41.5253 117.316 41.5259 117.317 41.5265 117.317C41.5272 117.317 41.5278 117.317 41.5284 117.318C41.529 117.318 41.5296 117.318 41.5302 117.318C41.5308 117.319 41.5314 117.319 41.5321 117.319C41.5327 117.32 41.5333 117.32 41.5339 117.32C41.5345 117.32 41.5351 117.321 41.5357 117.321C41.5363 117.321 41.537 117.321 41.5376 117.322C41.5382 117.322 41.5388 117.322 41.5394 117.322C41.54 117.323 41.5406 117.323 41.5412 117.323C41.5418 117.323 41.5425 117.324 41.5431 117.324C41.5437 117.324 41.5443 117.325 41.5449 117.325C41.5455 117.325 41.5461 117.325 41.5467 117.326C41.5473 117.326 41.5479 117.326 41.5485 117.326C41.5491 117.327 41.5497 117.327 41.5504 117.327C41.551 117.327 41.5516 117.328 41.5522 117.328C41.5528 117.328 41.5534 117.328 41.554 117.329C41.5546 117.329 41.5552 117.329 41.5558 117.33C41.5564 117.33 41.557 117.33 41.5576 117.33C41.5582 117.331 41.5588 117.331 41.5594 117.331C41.56 117.331 41.5606 117.332 41.5612 117.332C41.5618 117.332 41.5624 117.332 41.563 117.333C41.5636 117.333 41.5642 117.333 41.5648 117.333C41.5654 117.334 41.566 117.334 41.5666 117.334C41.5672 117.334 41.5678 117.335 41.5684 117.335C41.569 117.335 41.5696 117.336 41.5702 117.336C41.5708 117.336 41.5714 117.336 41.572 117.337C41.5726 117.337 41.5732 117.337 41.5738 117.337C41.5744 117.338 41.575 117.338 41.5756 117.338C41.5762 117.338 41.5768 117.339 41.5774 117.339C41.578 117.339 41.5786 117.339 41.5792 117.34C41.5798 117.34 41.5804 117.34 41.581 117.34C41.5816 117.341 41.5821 117.341 41.5827 117.341C41.5833 117.341 41.5839 117.342 41.5845 117.342C41.5851 117.342 41.5857 117.342 41.5863 117.343C41.5869 117.343 41.5875 117.343 41.5881 117.343C41.5887 117.344 41.5893 117.344 41.5898 117.344C41.5904 117.345 41.591 117.345 41.5916 117.345C41.5922 117.345 41.5928 117.346 41.5934 117.346C41.594 117.346 41.5946 117.346 41.5952 117.347C41.5957 117.347 41.5963 117.347 41.5969 117.347C41.5975 117.348 41.5981 117.348 41.5987 117.348C41.5993 117.348 41.5999 117.349 41.6004 117.349C41.601 117.349 41.6016 117.349 41.6022 117.35C41.6028 117.35 41.6034 117.35 41.604 117.35C41.6045 117.351 41.6051 117.351 41.6057 117.351C41.6063 117.351 41.6069 117.352 41.6075 117.352C41.608 117.352 41.6086 117.352 41.6092 117.353C41.6098 117.353 41.6104 117.353 41.611 117.353C41.6115 117.354 41.6121 117.354 41.6127 117.354C41.6133 117.354 41.6139 117.355 41.6145 117.355C41.615 117.355 41.6156 117.355 41.6162 117.356C41.6168 117.356 41.6174 117.356 41.6179 117.356C41.6185 117.357 41.6191 117.357 41.6197 117.357C41.6203 117.357 41.6208 117.358 41.6214 117.358C41.622 117.358 41.6226 117.358 41.6231 117.359C41.6237 117.359 41.6243 117.359 41.6249 117.359C41.6254 117.36 41.626 117.36 41.6266 117.36C41.6272 117.36 41.6278 117.361 41.6283 117.361C41.6289 117.361 41.6295 117.361 41.6301 117.362C41.6306 117.362 41.6312 117.362 41.6318 117.362C41.6323 117.363 41.6329 117.363 41.6335 117.363C41.6341 117.363 41.6346 117.364 41.6352 117.364C41.6358 117.364 41.6364 117.364 41.6369 117.365C41.6375 117.365 41.6381 117.365 41.6386 117.365C41.6392 117.366 41.6398 117.366 41.6404 117.366C41.6409 117.366 41.6415 117.367 41.6421 117.367C41.6426 117.367 41.6432 117.367 41.6438 117.368C41.6443 117.368 41.6449 117.368 41.6455 117.368C41.6461 117.369 41.6466 117.369 41.6472 117.369C41.6478 117.369 41.6483 117.37 41.6489 117.37C41.6495 117.37 41.65 117.37 41.6506 117.371C41.6512 117.371 41.6517 117.371 41.6523 117.371C41.6529 117.372 41.6534 117.372 41.654 117.372C41.6545 117.372 41.6551 117.372 41.6557 117.373C41.6562 117.373 41.6568 117.373 41.6574 117.373C41.6579 117.374 41.6585 117.374 41.6591 117.374C41.6596 117.374 41.6602 117.375 41.6607 117.375C41.6613 117.375 41.6619 117.375 41.6624 117.376C41.663 117.376 41.6635 117.376 41.6641 117.376C41.6647 117.377 41.6652 117.377 41.6658 117.377C41.6664 117.377 41.6669 117.378 41.6675 117.378C41.668 117.378 41.6686 117.378 41.6691 117.379C41.6697 117.379 41.6703 117.379 41.6708 117.379C41.6714 117.38 41.6719 117.38 41.6725 117.38C41.673 117.38 41.6736 117.38 41.6742 117.381C41.6747 117.381 41.6753 117.381 41.6758 117.381C41.6764 117.382 41.6769 117.382 41.6775 117.382C41.6781 117.382 41.6786 117.383 41.6792 117.383C41.6797 117.383 41.6803 117.383 41.6808 117.384C41.6814 117.384 41.6819 117.384 41.6825 117.384C41.683 117.385 41.6836 117.385 41.6841 117.385C41.6847 117.385 41.6852 117.386 41.6858 117.386C41.6863 117.386 41.6869 117.386 41.6874 117.386C41.688 117.387 41.6886 117.387 41.6891 117.387C41.6897 117.387 41.6902 117.388 41.6907 117.388C41.6913 117.388 41.6918 117.388 41.6924 117.389C41.6929 117.389 41.6935 117.389 41.694 117.389C41.6946 117.39 41.6951 117.39 41.6957 117.39C41.6962 117.39 41.6968 117.391 41.6973 117.391C41.6979 117.391 41.6984 117.391 41.699 117.391C41.6995 117.392 41.7001 117.392 41.7006 117.392C41.7011 117.392 41.7017 117.393 41.7022 117.393C41.7028 117.393 41.7033 117.393 41.7039 117.394C41.7044 117.394 41.705 117.394 41.7055 117.394C41.706 117.395 41.7066 117.395 41.7071 117.395C41.7077 117.395 41.7082 117.395 41.7088 117.396C41.7093 117.396 41.7098 117.396 41.7104 117.396C41.7109 117.397 41.7115 117.397 41.712 117.397C41.7125 117.397 41.7131 117.398 41.7136 117.398C41.7142 117.398 41.7147 117.398 41.7152 117.398C41.7158 117.399 41.7163 117.399 41.7169 117.399C41.7174 117.399 41.7179 117.4 41.7185 117.4C41.719 117.4 41.7195 117.4 41.7201 117.401C41.7206 117.401 41.7212 117.401 41.7217 117.401C41.7222 117.402 41.7228 117.402 41.7233 117.402C41.7238 117.402 41.7244 117.402 41.7249 117.403C41.7254 117.403 41.726 117.403 41.7265 117.403C41.727 117.404 41.7276 117.404 41.7281 117.404C41.7286 117.404 41.7292 117.405 41.7297 117.405C41.7302 117.405 41.7308 117.405 41.7313 117.405C41.7318 117.406 41.7324 117.406 41.7329 117.406C41.7334 117.406 41.734 117.407 41.7345 117.407C41.735 117.407 41.7355 117.407 41.7361 117.408C41.7366 117.408 41.7371 117.408 41.7377 117.408C41.7382 117.408 41.7387 117.409 41.7393 117.409C41.7398 117.409 41.7403 117.409 41.7408 117.41C41.7414 117.41 41.7419 117.41 41.7424 117.41C41.7429 117.41 41.7435 117.411 41.744 117.411C41.7445 117.411 41.745 117.411 41.7456 117.412C41.7461 117.412 41.7466 117.412 41.7472 117.412C41.7477 117.413 41.7482 117.413 41.7487 117.413C41.7492 117.413 41.7498 117.413 41.7503 117.414C41.7508 117.414 41.7513 117.414 41.7519 117.414C41.7524 117.415 41.7529 117.415 41.7534 117.415C41.754 117.415 41.7545 117.415 41.755 117.416C41.7555 117.416 41.756 117.416 41.7566 117.416C41.7571 117.417 41.7576 117.417 41.7581 117.417C41.7586 117.417 41.7592 117.417 41.7597 117.418C41.7602 117.418 41.7607 117.418 41.7612 117.418C41.7618 117.419 41.7623 117.419 41.7628 117.419C41.7633 117.419 41.7638 117.42 41.7643 117.42C41.7649 117.42 41.7654 117.42 41.7659 117.42C41.7664 117.421 41.7669 117.421 41.7674 117.421C41.768 117.421 41.7685 117.422 41.769 117.422C41.7695 117.422 41.77 117.422 41.7705 117.422C41.771 117.423 41.7716 117.423 41.7721 117.423C41.7726 117.423 41.7731 117.424 41.7736 117.424C41.7741 117.424 41.7746 117.424 41.7752 117.424C41.7757 117.425 41.7762 117.425 41.7767 117.425C41.7772 117.425 41.7777 117.426 41.7782 117.426C41.7787 117.426 41.7792 117.426 41.7798 117.426C41.7803 117.427 41.7808 117.427 41.7813 117.427C41.7818 117.427 41.7823 117.428 41.7828 117.428C41.7833 117.428 41.7838 117.428 41.7843 117.428C41.7848 117.429 41.7854 117.429 41.7859 117.429C41.7864 117.429 41.7869 117.429 41.7874 117.43C41.7879 117.43 41.7884 117.43 41.7889 117.43C41.7894 117.431 41.7899 117.431 41.7904 117.431C41.7909 117.431 41.7914 117.431 41.7919 117.432C41.7924 117.432 41.7929 117.432 41.7934 117.432C41.794 117.433 41.7945 117.433 41.795 117.433C41.7955 117.433 41.796 117.433 41.7965 117.434C41.797 117.434 41.7975 117.434 41.798 117.434C41.7985 117.435 41.799 117.435 41.7995 117.435C41.8 117.435 41.8005 117.435 41.801 117.436C41.8015 117.436 41.802 117.436 41.8025 117.436C41.803 117.436 41.8035 117.437 41.804 117.437C41.8045 117.437 41.805 117.437 41.8055 117.438C41.806 117.438 41.8065 117.438 41.807 117.438C41.8075 117.438 41.808 117.439 41.8085 117.439C41.809 117.439 41.8095 117.439 41.8099 117.439C41.8104 117.44 41.8109 117.44 41.8114 117.44C41.8119 117.44 41.8124 117.441 41.8129 117.441C41.8134 117.441 41.8139 117.441 41.8144 117.441C41.8149 117.442 41.8154 117.442 41.8159 117.442C41.8164 117.442 41.8169 117.442 41.8174 117.443C41.8179 117.443 41.8184 117.443 41.8188 117.443C41.8193 117.444 41.8198 117.444 41.8203 117.444C41.8208 117.444 41.8213 117.444 41.8218 117.445C41.8223 117.445 41.8228 117.445 41.8233 117.445C41.8238 117.445 41.8242 117.446 41.8247 117.446C41.8252 117.446 41.8257 117.446 41.8262 117.446C41.8267 117.447 41.8272 117.447 41.8277 117.447C41.8281 117.447 41.8286 117.448 41.8291 117.448C41.8296 117.448 41.8301 117.448 41.8306 117.448C41.8311 117.449 41.8316 117.449 41.832 117.449C41.8325 117.449 41.833 117.449 41.8335 117.45C41.834 117.45 41.8345 117.45 41.835 117.45C41.8354 117.45 41.8359 117.451 41.8364 117.451C41.8369 117.451 41.8374 117.451 41.8379 117.452C41.8383 117.452 41.8388 117.452 41.8393 117.452C41.8398 117.452 41.8403 117.453 41.8407 117.453C41.8412 117.453 41.8417 117.453 41.8422 117.453C41.8427 117.454 41.8431 117.454 41.8436 117.454C41.8441 117.454 41.8446 117.454 41.8451 117.455C41.8455 117.455 41.846 117.455 41.8465 117.455C41.847 117.455 41.8475 117.456 41.8479 117.456C41.8484 117.456 41.8489 117.456 41.8494 117.457C41.8499 117.457 41.8503 117.457 41.8508 117.457C41.8513 117.457 41.8518 117.458 41.8522 117.458C41.8527 117.458 41.8532 117.458 41.8537 117.458C41.8541 117.459 41.8546 117.459 41.8551 117.459C41.8556 117.459 41.856 117.459 41.8565 117.46C41.857 117.46 41.8575 117.46 41.8579 117.46C41.8584 117.46 41.8589 117.461 41.8593 117.461C41.8598 117.461 41.8603 117.461 41.8608 117.461C41.8612 117.462 41.8617 117.462 41.8622 117.462C41.8626 117.462 41.8631 117.462 41.8636 117.463C41.8641 117.463 41.8645 117.463 41.865 117.463C41.8655 117.463 41.8659 117.464 41.8664 117.464C41.8669 117.464 41.8673 117.464 41.8678 117.464C41.8683 117.465 41.8687 117.465 41.8692 117.465C41.8697 117.465 41.8701 117.466 41.8706 117.466C41.8711 117.466 41.8715 117.466 41.872 117.466C41.8725 117.467 41.8729 117.467 41.8734 117.467C41.8739 117.467 41.8743 117.467 41.8748 117.468C41.8753 117.468 41.8757 117.468 41.8762 117.468C41.8767 117.468 41.8771 117.469 41.8776 117.469C41.8781 117.469 41.8785 117.469 41.879 117.469C41.8794 117.47 41.8799 117.47 41.8804 117.47C41.8808 117.47 41.8813 117.47 41.8818 117.471C41.8822 117.471 41.8827 117.471 41.8831 117.471C41.8836 117.471 41.8841 117.472 41.8845 117.472C41.885 117.472 41.8854 117.472 41.8859 117.472C41.8864 117.473 41.8868 117.473 41.8873 117.473C41.8877 117.473 41.8882 117.473 41.8886 117.474C41.8891 117.474 41.8896 117.474 41.89 117.474C41.8905 117.474 41.8909 117.474 41.8914 117.475C41.8918 117.475 41.8923 117.475 41.8928 117.475C41.8932 117.475 41.8937 117.476 41.8941 117.476C41.8946 117.476 41.895 117.476 41.8955 117.476C41.8959 117.477 41.8964 117.477 41.8968 117.477C41.8973 117.477 41.8977 117.477 41.8982 117.478C41.8987 117.478 41.8991 117.478 41.8996 117.478C41.9 117.478 41.9005 117.479 41.9009 117.479C41.9014 117.479 41.9018 117.479 41.9023 117.479C41.9027 117.48 41.9032 117.48 41.9036 117.48C41.9041 117.48 41.9045 117.48 41.905 117.481C41.9054 117.481 41.9059 117.481 41.9063 117.481C41.9068 117.481 41.9072 117.482 41.9077 117.482C41.9081 117.482 41.9086 117.482 41.909 117.482C41.9094 117.483 41.9099 117.483 41.9103 117.483C41.9108 117.483 41.9112 117.483 41.9117 117.483C41.9121 117.484 41.9126 117.484 41.913 117.484C41.9135 117.484 41.9139 117.484 41.9144 117.485C41.9148 117.485 41.9152 117.485 41.9157 117.485C41.9161 117.485 41.9166 117.486 41.917 117.486C41.9175 117.486 41.9179 117.486 41.9183 117.486C41.9188 117.487 41.9192 117.487 41.9197 117.487C41.9201 117.487 41.9205 117.487 41.921 117.487C41.9214 117.488 41.9219 117.488 41.9223 117.488C41.9228 117.488 41.9232 117.488 41.9236 117.489C41.9241 117.489 41.9245 117.489 41.9249 117.489C41.9254 117.489 41.9258 117.49 41.9263 117.49C41.9267 117.49 41.9271 117.49 41.9276 117.49C41.928 117.491 41.9285 117.491 41.9289 117.491C41.9293 117.491 41.9298 117.491 41.9302 117.491C41.9306 117.492 41.9311 117.492 41.9315 117.492C41.9319 117.492 41.9324 117.492 41.9328 117.493C41.9332 117.493 41.9337 117.493 41.9341 117.493C41.9345 117.493 41.935 117.494 41.9354 117.494C41.9358 117.494 41.9363 117.494 41.9367 117.494C41.9371 117.494 41.9376 117.495 41.938 117.495C41.9384 117.495 41.9389 117.495 41.9393 117.495C41.9397 117.496 41.9402 117.496 41.9406 117.496C41.941 117.496 41.9415 117.496 41.9419 117.497C41.9423 117.497 41.9427 117.497 41.9432 117.497C41.9436 117.497 41.944 117.497 41.9445 117.498C41.9449 117.498 41.9453 117.498 41.9457 117.498C41.9462 117.498 41.9466 117.499 41.947 117.499C41.9474 117.499 41.9479 117.499 41.9483 117.499C41.9487 117.499 41.9492 117.5 41.9496 117.5C41.95 117.5 41.9504 117.5 41.9509 117.5C41.9513 117.501 41.9517 117.501 41.9521 117.501C41.9526 117.501 41.953 117.501 41.9534 117.502C41.9538 117.502 41.9542 117.502 41.9547 117.502C41.9551 117.502 41.9555 117.502 41.9559 117.503C41.9564 117.503 41.9568 117.503 41.9572 117.503C41.9576 117.503 41.958 117.504 41.9585 117.504C41.9589 117.504 41.9593 117.504 41.9597 117.504C41.9601 117.504 41.9606 117.505 41.961 117.505C41.9614 117.505 41.9618 117.505 41.9622 117.505C41.9627 117.506 41.9631 117.506 41.9635 117.506C41.9639 117.506 41.9643 117.506 41.9647 117.506C41.9652 117.507 41.9656 117.507 41.966 117.507C41.9664 117.507 41.9668 117.507 41.9672 117.508C41.9677 117.508 41.9681 117.508 41.9685 117.508C41.9689 117.508 41.9693 117.508 41.9697 117.509C41.9701 117.509 41.9706 117.509 41.971 117.509C41.9714 117.509 41.9718 117.509 41.9722 117.51C41.9726 117.51 41.973 117.51 41.9735 117.51C41.9739 117.51 41.9743 117.511 41.9747 117.511C41.9751 117.511 41.9755 117.511 41.9759 117.511C41.9763 117.511 41.9767 117.512 41.9772 117.512C41.9776 117.512 41.978 117.512 41.9784 117.512C41.9788 117.512 41.9792 117.513 41.9796 117.513C41.98 117.513 41.9804 117.513 41.9808 117.513C41.9812 117.514 41.9816 117.514 41.9821 117.514C41.9825 117.514 41.9829 117.514 41.9833 117.514C41.9837 117.515 41.9841 117.515 41.9845 117.515C41.9849 117.515 41.9853 117.515 41.9857 117.515C41.9861 117.516 41.9865 117.516 41.9869 117.516C41.9873 117.516 41.9877 117.516 41.9881 117.517C41.9885 117.517 41.9889 117.517 41.9893 117.517C41.9898 117.517 41.9902 117.517 41.9906 117.518C41.991 117.518 41.9914 117.518 41.9918 117.518C41.9922 117.518 41.9926 117.518 41.993 117.519C41.9934 117.519 41.9938 117.519 41.9942 117.519C41.9946 117.519 41.995 117.519 41.9954 117.52C41.9958 117.52 41.9962 117.52 41.9966 117.52C41.997 117.52 41.9974 117.521 41.9978 117.521C41.9982 117.521 41.9986 117.521 41.999 117.521C41.9994 117.521 41.9997 117.522 42.0001 117.522C42.0005 117.522 42.0009 117.522 42.0013 117.522C42.0017 117.522 42.0021 117.523 42.0025 117.523C42.0029 117.523 42.0033 117.523 42.0037 117.523C42.0041 117.523 42.0045 117.524 42.0049 117.524C42.0053 117.524 42.0057 117.524 42.0061 117.524C42.0065 117.524 42.0069 117.525 42.0073 117.525C42.0076 117.525 42.008 117.525 42.0084 117.525C42.0088 117.525 42.0092 117.526 42.0096 117.526C42.01 117.526 42.0104 117.526 42.0108 117.526C42.0112 117.526 42.0116 117.527 42.0119 117.527C42.0123 117.527 42.0127 117.527 42.0131 117.527C42.0135 117.528 42.0139 117.528 42.0143 117.528C42.0147 117.528 42.0151 117.528 42.0154 117.528C42.0158 117.529 42.0162 117.529 42.0166 117.529C42.017 117.529 42.0174 117.529 42.0178 117.529C42.0182 117.53 42.0185 117.53 42.0189 117.53C42.0193 117.53 42.0197 117.53 42.0201 117.53C42.0205 117.531 42.0208 117.531 42.0212 117.531C42.0216 117.531 42.022 117.531 42.0224 117.531C42.0228 117.532 42.0231 117.532 42.0235 117.532C42.0239 117.532 42.0243 117.532 42.0247 117.532C42.0251 117.533 42.0254 117.533 42.0258 117.533C42.0262 117.533 42.0266 117.533 42.027 117.533C42.0273 117.533 42.0277 117.534 42.0281 117.534C42.0285 117.534 42.0289 117.534 42.0292 117.534C42.0296 117.534 42.03 117.535 42.0304 117.535C42.0308 117.535 42.0311 117.535 42.0315 117.535C42.0319 117.535 42.0323 117.536 42.0327 117.536C42.033 117.536 42.0334 117.536 42.0338 117.536C42.0342 117.536 42.0345 117.537 42.0349 117.537C42.0353 117.537 42.0357 117.537 42.036 117.537C42.0364 117.537 42.0368 117.538 42.0372 117.538C42.0375 117.538 42.0379 117.538 42.0383 117.538C42.0387 117.538 42.039 117.539 42.0394 117.539C42.0398 117.539 42.0401 117.539 42.0405 117.539C42.0409 117.539 42.0413 117.54 42.0416 117.54C42.042 117.54 42.0424 117.54 42.0427 117.54C42.0431 117.54 42.0435 117.54 42.0439 117.541C42.0442 117.541 42.0446 117.541 42.045 117.541C42.0453 117.541 42.0457 117.541 42.0461 117.542C42.0464 117.542 42.0468 117.542 42.0472 117.542C42.0475 117.542 42.0479 117.542 42.0483 117.543C42.0487 117.543 42.049 117.543 42.0494 117.543C42.0498 117.543 42.0501 117.543 42.0505 117.544C42.0509 117.544 42.0512 117.544 42.0516 117.544C42.0519 117.544 42.0523 117.544 42.0527 117.544C42.053 117.545 42.0534 117.545 42.0538 117.545C42.0541 117.545 42.0545 117.545 42.0549 117.545C42.0552 117.546 42.0556 117.546 42.0559 117.546C42.0563 117.546 42.0567 117.546 42.057 117.546C42.0574 117.546 42.0578 117.547 42.0581 117.547C42.0585 117.547 42.0588 117.547 42.0592 117.547C42.0596 117.547 42.0599 117.548 42.0603 117.548C42.0606 117.548 42.061 117.548 42.0614 117.548C42.0617 117.548 42.0621 117.549 42.0624 117.549C42.0628 117.549 42.0632 117.549 42.0635 117.549C42.0639 117.549 42.0642 117.549 42.0646 117.55C42.0649 117.55 42.0653 117.55 42.0656 117.55C42.066 117.55 42.0664 117.55 42.0667 117.551C42.0671 117.551 42.0674 117.551 42.0678 117.551C42.0681 117.551 42.0685 117.551 42.0688 117.551C42.0692 117.552 42.0696 117.552 42.0699 117.552C42.0703 117.552 42.0706 117.552 42.071 117.552C42.0713 117.553 42.0717 117.553 42.072 117.553C42.0724 117.553 42.0727 117.553 42.0731 117.553C42.0734 117.553 42.0738 117.554 42.0741 117.554C42.0745 117.554 42.0748 117.554 42.0752 117.554C42.0755 117.554 42.0759 117.554 42.0762 117.555C42.0766 117.555 42.0769 117.555 42.0773 117.555C42.0776 117.555 42.078 117.555 42.0783 117.556C42.0787 117.556 42.079 117.556 42.0794 117.556C42.0797 117.556 42.0801 117.556 42.0804 117.556C42.0807 117.557 42.0811 117.557 42.0814 117.557C42.0818 117.557 42.0821 117.557 42.0825 117.557C42.0828 117.557 42.0832 117.558 42.0835 117.558C42.0839 117.558 42.0842 117.558 42.0845 117.558C42.0849 117.558 42.0852 117.559 42.0856 117.559C42.0859 117.559 42.0863 117.559 42.0866 117.559C42.0869 117.559 42.0873 117.559 42.0876 117.56C42.088 117.56 42.0883 117.56 42.0886 117.56C42.089 117.56 42.0893 117.56 42.0897 117.56C42.09 117.561 42.0903 117.561 42.0907 117.561C42.091 117.561 42.0914 117.561 42.0917 117.561C42.092 117.561 42.0924 117.562 42.0927 117.562C42.0931 117.562 42.0934 117.562 42.0937 117.562C42.0941 117.562 42.0944 117.563 42.0947 117.563C42.0951 117.563 42.0954 117.563 42.0957 117.563C42.0961 117.563 42.0964 117.563 42.0968 117.564C42.0971 117.564 42.0974 117.564 42.0978 117.564C42.0981 117.564 42.0984 117.564 42.0988 117.564C42.0991 117.565 42.0994 117.565 42.0998 117.565C42.1001 117.565 42.1004 117.565 42.1008 117.565C42.1011 117.565 42.1014 117.566 42.1018 117.566C42.1021 117.566 42.1024 117.566 42.1028 117.566C42.1031 117.566 42.1034 117.566 42.1037 117.567C42.1041 117.567 42.1044 117.567 42.1047 117.567C42.1051 117.567 42.1054 117.567 42.1057 117.567C42.106 117.568 42.1064 117.568 42.1067 117.568C42.107 117.568 42.1074 117.568 42.1077 117.568C42.108 117.568 42.1083 117.569 42.1087 117.569C42.109 117.569 42.1093 117.569 42.1096 117.569C42.11 117.569 42.1103 117.569 42.1106 117.57C42.111 117.57 42.1113 117.57 42.1116 117.57C42.1119 117.57 42.1122 117.57 42.1126 117.57C42.1129 117.571 42.1132 117.571 42.1135 117.571C42.1139 117.571 42.1142 117.571 42.1145 117.571C42.1148 117.571 42.1152 117.571 42.1155 117.572C42.1158 117.572 42.1161 117.572 42.1164 117.572C42.1168 117.572 42.1171 117.572 42.1174 117.572C42.1177 117.573 42.118 117.573 42.1184 117.573C42.1187 117.573 42.119 117.573 42.1193 117.573C42.1196 117.573 42.12 117.574 42.1203 117.574C42.1206 117.574 42.1209 117.574 42.1212 117.574C42.1216 117.574 42.1219 117.574 42.1222 117.575C42.1225 117.575 42.1228 117.575 42.1231 117.575C42.1235 117.575 42.1238 117.575 42.1241 117.575C42.1244 117.575 42.1247 117.576 42.125 117.576C42.1253 117.576 42.1257 117.576 42.126 117.576C42.1263 117.576 42.1266 117.576 42.1269 117.577C42.1272 117.577 42.1275 117.577 42.1279 117.577C42.1282 117.577 42.1285 117.577 42.1288 117.577C42.1291 117.578 42.1294 117.578 42.1297 117.578C42.13 117.578 42.1303 117.578 42.1307 117.578C42.131 117.578 42.1313 117.578 42.1316 117.579C42.1319 117.579 42.1322 117.579 42.1325 117.579C42.1328 117.579 42.1331 117.579 42.1334 117.579C42.1338 117.58 42.1341 117.58 42.1344 117.58C42.1347 117.58 42.135 117.58 42.1353 117.58C42.1356 117.58 42.1359 117.58 42.1362 117.581C42.1365 117.581 42.1368 117.581 42.1371 117.581C42.1374 117.581 42.1377 117.581 42.138 117.581C42.1384 117.582 42.1387 117.582 42.139 117.582C42.1393 117.582 42.1396 117.582 42.1399 117.582C42.1402 117.582 42.1405 117.582 42.1408 117.583C42.1411 117.583 42.1414 117.583 42.1417 117.583C42.142 117.583 42.1423 117.583 42.1426 117.583C42.1429 117.583 42.1432 117.584 42.1435 117.584C42.1438 117.584 42.1441 117.584 42.1444 117.584C42.1447 117.584 42.145 117.584 42.1453 117.585C42.1456 117.585 42.1459 117.585 42.1462 117.585C42.1465 117.585 42.1468 117.585 42.1471 117.585C42.1474 117.585 42.1477 117.586 42.148 117.586C42.1483 117.586 42.1486 117.586 42.1489 117.586C42.1492 117.586 42.1495 117.586 42.1498 117.586C42.1501 117.587 42.1504 117.587 42.1507 117.587C42.1509 117.587 42.1512 117.587 42.1515 117.587C42.1518 117.587 42.1521 117.587 42.1524 117.588C42.1527 117.588 42.153 117.588 42.1533 117.588C42.1536 117.588 42.1539 117.588 42.1542 117.588C42.1545 117.588 42.1548 117.589 42.1551 117.589C42.1553 117.589 42.1556 117.589 42.1559 117.589C42.1562 117.589 42.1565 117.589 42.1568 117.589C42.1571 117.59 42.1574 117.59 42.1577 117.59C42.158 117.59 42.1582 117.59 42.1585 117.59C42.1588 117.59 42.1591 117.59 42.1594 117.591C42.1597 117.591 42.16 117.591 42.1603 117.591C42.1606 117.591 42.1608 117.591 42.1611 117.591L43.7491 113.92ZM43.0332 113.61C42.9473 113.573 42.9644 113.573 43.0317 113.619C43.068 113.645 43.1492 113.704 43.2439 113.804C43.3357 113.901 43.486 114.084 43.5956 114.361L39.8767 115.834C40.119 116.446 40.5723 116.782 40.7546 116.908C40.9897 117.071 41.2374 117.192 41.4452 117.282L43.0332 113.61ZM43.5956 114.361C43.7559 114.766 43.7186 115.099 43.6984 115.222C43.6762 115.357 43.6429 115.425 43.6522 115.404L39.9809 113.816C39.895 114.014 39.8006 114.274 39.7516 114.572C39.7046 114.857 39.6748 115.324 39.8767 115.834L43.5956 114.361ZM43.6265 115.46L44.4438 113.722L40.8239 112.02L40.0066 113.759L43.6265 115.46ZM44.4572 113.693L47.6877 106.527L44.0411 104.883L40.8106 112.049L44.4572 113.693ZM47.6924 106.516L52.8047 94.9992L49.1487 93.3764L44.0364 104.893L47.6924 106.516ZM52.8123 94.9818C53.2707 93.9221 54.406 91.4941 56.2408 87.6563L52.632 85.931C50.8066 89.7493 49.6355 92.2508 49.141 93.3938L52.8123 94.9818ZM56.2389 87.6604C56.6746 86.7543 57.3744 85.2879 58.3372 83.2635L54.7249 81.5455C53.7623 83.5694 53.0657 85.0292 52.634 85.9269L56.2389 87.6604ZM58.3377 83.2624C58.8311 82.2232 59.2201 81.3766 59.4996 80.7304C59.7468 80.1589 59.9907 79.563 60.0827 79.1335L56.1713 78.2963C56.1778 78.2656 56.1131 78.4842 55.8283 79.1425C55.5758 79.7262 55.2095 80.5249 54.7244 81.5466L58.3377 83.2624ZM59.9983 79.4207L60.4434 78.2404L56.7008 76.8288L56.2556 78.0091L59.9983 79.4207ZM60.4077 78.3286C60.4727 78.1785 60.5194 78.1035 60.5368 78.0787C60.5556 78.0518 60.5185 78.1141 60.4041 78.1943C60.2768 78.2834 60.0776 78.3765 59.8245 78.3989C59.5761 78.4209 59.3842 78.3653 59.2785 78.3196L60.8665 74.6483C59.9727 74.2617 58.9611 74.3215 58.1097 74.9178C57.4113 75.4068 56.9985 76.1347 56.7365 76.7406L60.4077 78.3286ZM59.2292 78.2974L61.243 79.2338L62.9296 75.6068L60.9158 74.6704L59.2292 78.2974ZM61.2923 79.256C61.1707 79.2034 60.9858 79.0978 60.8106 78.9004C60.6276 78.6943 60.5121 78.4515 60.4607 78.2126C60.3696 77.7893 60.5085 77.5416 60.4678 77.6355L64.1391 79.2235C64.3208 78.8034 64.5347 78.1306 64.3711 77.3709C64.1756 76.4622 63.5463 75.8728 62.8803 75.5847L61.2923 79.256ZM60.4678 77.6355C60.4378 77.7048 60.3746 77.8303 60.2577 78.0209L63.6675 80.1121C63.8463 79.8205 64.0103 79.5212 64.1391 79.2235L60.4678 77.6355ZM60.2824 77.9815C60.0915 78.2772 59.9256 78.5867 59.786 78.9095L63.4573 80.4975C63.5083 80.3797 63.5697 80.2646 63.6427 80.1515L60.2824 77.9815ZM59.9101 78.6688C59.3783 79.5486 58.3369 81.7044 56.8369 84.9731L60.4725 86.6414C62.0095 83.2918 62.9461 81.3785 63.3332 80.7382L59.9101 78.6688ZM56.8191 85.0132C56.3915 86.0016 55.2083 88.5399 53.2454 92.6739L56.8587 94.3897C58.81 90.2801 60.0286 87.6688 60.4903 86.6012L56.8191 85.0132ZM53.2464 92.6716C51.3601 96.6313 50.2034 99.0991 49.8043 100.022L53.4755 101.61C53.8387 100.77 54.9567 98.3821 56.8576 94.392L53.2464 92.6716ZM49.8043 100.022C48.875 102.17 47.7384 104.899 46.3955 108.206L50.1016 109.711C51.4384 106.419 52.5627 103.72 53.4755 101.61L49.8043 100.022ZM46.3953 108.207C45.0904 111.422 44.2827 113.492 44.0519 114.262L47.8836 115.41C48.0459 114.869 48.7587 113.02 50.1018 109.711L46.3953 108.207ZM44.0266 114.355C44.0013 114.457 43.9498 114.615 43.8537 114.837L47.525 116.425C47.683 116.06 47.8171 115.688 47.909 115.318L44.0266 114.355ZM43.8537 114.837C43.8538 114.837 43.8613 114.819 43.8786 114.79C43.8959 114.761 43.9267 114.713 43.9751 114.656C44.0725 114.54 44.2574 114.366 44.5494 114.251L46.0225 117.97C46.9115 117.617 47.3332 116.868 47.525 116.425L43.8537 114.837ZM44.199 114.431C44.3279 114.348 44.4305 114.312 44.4713 114.299C44.5141 114.286 44.526 114.287 44.494 114.291L45.0211 118.256C45.3855 118.208 45.896 118.098 46.3729 117.789L44.199 114.431ZM44.4 114.306C44.518 114.285 44.6095 114.282 44.661 114.283C44.7143 114.283 44.7479 114.288 44.7566 114.289C44.7702 114.291 44.7381 114.287 44.6466 114.261C44.4622 114.208 44.17 114.102 43.7491 113.92L42.1611 117.591C42.658 117.806 43.1252 117.985 43.5415 118.105C43.8701 118.2 44.4815 118.357 45.1151 118.242L44.4 114.306Z" fill="#0C3C87"/>
<path d="M66.21 66.6C66.21 71.8433 64.01 75.3267 59.61 77.05C55.1733 78.7733 50.425 79.635 45.365 79.635C40.4883 79.635 36.5833 78.975 33.65 77.655C30.7167 76.2983 28.6633 74.6667 27.49 72.76C26.3167 70.8167 25.73 68.8917 25.73 66.985C25.73 63.3183 26.7933 60.5683 28.92 58.735C31.01 56.9017 33.5033 55.7283 36.4 55.215C39.26 54.7017 42.505 54.445 46.135 54.445C49.0683 54.445 52.0933 54.885 55.21 55.765C58.29 56.645 60.8933 58.0017 63.02 59.835C65.1467 61.6683 66.21 63.9233 66.21 66.6ZM52.24 67.04C52.24 66.05 51.69 65.3167 50.59 64.84C49.49 64.3633 48.17 64.125 46.63 64.125C45.1633 64.125 43.88 64.3633 42.78 64.84C41.68 65.28 41.13 65.885 41.13 66.655C41.13 67.5717 41.7717 68.2683 43.055 68.745C44.3017 69.185 45.6583 69.405 47.125 69.405C48.6283 69.405 49.8567 69.2583 50.81 68.965C51.7633 68.6717 52.24 68.03 52.24 67.04Z" fill="#0C3C87"/>
<ellipse cx="48" cy="66.5" rx="8" ry="4.5" fill="#0C3C87"/>
</svg>
