<svg width="93" height="148" viewBox="0 0 93 148" fill="none" xmlns="http://www.w3.org/2000/svg">
<circle cx="46.5" cy="84.5" r="46.5" fill="#FFF5F5"/>
<path d="M42.0608 114.36C41.9096 114.412 41.6639 114.497 41.3237 114.615C41.0213 114.72 40.8193 114.747 40.7175 114.698C40.6157 114.648 40.5256 114.51 40.4471 114.283L39.8757 112.45L37.4177 104.983L33.4092 93.0368C33.0166 91.9028 32.2024 89.3063 30.9665 85.2473C30.6772 84.2892 30.2039 82.7387 29.5467 80.5958C28.8765 78.4151 28.4381 77.1488 28.2316 76.797L27.7627 75.6259C27.4225 74.6432 27.5548 74.0471 28.1596 73.8377L30.2771 73.1682C30.6551 73.0373 30.9356 73.2365 31.1188 73.7657C31.1843 73.9547 31.2439 74.188 31.2977 74.4657C31.3384 74.7056 31.398 74.9389 31.4765 75.1657C31.651 76.0365 32.2959 78.2049 33.411 81.6708C33.7774 82.7292 34.6309 85.4391 35.9715 89.8005C37.2597 94.0107 38.0608 96.5694 38.3749 97.4766C39.1338 99.669 40.1334 102.434 41.3736 105.772C42.6008 109.072 43.3633 111.03 43.6614 111.647C43.7777 111.861 43.8882 112.119 43.9929 112.421C44.0845 112.686 44.0932 112.894 44.0191 113.047C43.9827 113.186 43.8897 113.346 43.74 113.524C43.5655 113.754 43.0058 114.033 42.0608 114.36Z" fill="#0C3C87"/>
<path d="M42.9541 115.756C42.8073 115.692 42.5687 115.589 42.2382 115.446C41.9445 115.319 41.7769 115.203 41.7352 115.098C41.6935 114.993 41.7203 114.83 41.8156 114.61L42.6329 112.871L45.8634 105.705L50.9757 94.1878C51.4521 93.0864 52.6053 90.6217 54.4355 86.7937C54.8692 85.8917 55.5674 84.4287 56.5301 82.4045C57.5086 80.3436 58.0406 79.1138 58.126 78.7149L58.5711 77.5346C58.984 76.5801 59.4841 76.2298 60.0715 76.4839L62.0853 77.4203C62.4524 77.5791 62.5248 77.9155 62.3025 78.4295C62.2231 78.613 62.1095 78.8254 61.9616 79.0665C61.8296 79.2709 61.716 79.4832 61.6207 79.7035C61.1612 80.4636 60.1722 82.4981 58.6537 85.8072C58.2091 86.8352 57.0082 89.41 55.051 93.5318C53.1574 97.5067 52.02 99.9347 51.6389 100.816C50.7179 102.945 49.5875 105.659 48.2476 108.959C46.9236 112.221 46.1633 114.18 45.9668 114.836C45.9082 115.072 45.8154 115.337 45.6884 115.631C45.5772 115.888 45.4427 116.048 45.285 116.11C45.1639 116.189 44.9878 116.243 44.7566 116.274C44.4728 116.325 43.872 116.153 42.9541 115.756Z" fill="#0C3C87"/>
<path d="M41.7352 115.098L43.5946 114.361L43.5946 114.361L41.7352 115.098ZM41.8156 114.61L40.0057 113.759L39.9924 113.787L39.98 113.816L41.8156 114.61ZM42.6329 112.871L44.4429 113.722L44.4496 113.708L44.4562 113.693L42.6329 112.871ZM45.8634 105.705L47.6868 106.527L47.6914 106.516L45.8634 105.705ZM50.9757 94.1878L52.8037 94.9992L52.8076 94.9905L52.8113 94.9818L50.9757 94.1878ZM54.4355 86.7937L52.633 85.9269L52.6311 85.931L54.4355 86.7937ZM56.5301 82.4045L58.3362 83.2635L58.3367 83.2624L56.5301 82.4045ZM58.126 78.7149L56.2547 78.0091L56.2017 78.1495L56.1703 78.2963L58.126 78.7149ZM58.5711 77.5346L56.7355 76.7406L56.7166 76.7843L56.6998 76.8288L58.5711 77.5346ZM60.0715 76.4839L60.9148 74.6704L60.8903 74.659L60.8655 74.6483L60.0715 76.4839ZM62.0853 77.4203L61.242 79.2338L61.2665 79.2452L61.2913 79.256L62.0853 77.4203ZM61.9616 79.0665L63.6417 80.1515L63.6543 80.1319L63.6665 80.1121L61.9616 79.0665ZM61.6207 79.7035L63.3322 80.7382L63.4025 80.6221L63.4563 80.4975L61.6207 79.7035ZM58.6537 85.8072L56.836 84.9731L56.8268 84.9931L56.8181 85.0132L58.6537 85.8072ZM55.051 93.5318L56.8566 94.392L56.8577 94.3897L55.051 93.5318ZM48.2476 108.959L46.3946 108.206L46.3944 108.207L48.2476 108.959ZM45.9668 114.836L44.0509 114.262L44.0372 114.308L44.0256 114.355L45.9668 114.836ZM45.285 116.11L44.5484 114.251L44.3643 114.324L44.1981 114.431L45.285 116.11ZM44.7566 116.274L44.493 114.291L44.4458 114.298L44.399 114.306L44.7566 116.274ZM43.7481 113.92C43.7478 113.92 43.7476 113.92 43.7473 113.92C43.747 113.92 43.7467 113.919 43.7464 113.919C43.7461 113.919 43.7458 113.919 43.7455 113.919C43.7453 113.919 43.745 113.919 43.7447 113.919C43.7444 113.918 43.7441 113.918 43.7438 113.918C43.7435 113.918 43.7432 113.918 43.7429 113.918C43.7426 113.918 43.7423 113.918 43.7421 113.917C43.7418 113.917 43.7415 113.917 43.7412 113.917C43.7409 113.917 43.7406 113.917 43.7403 113.917C43.74 113.917 43.7397 113.916 43.7394 113.916C43.7391 113.916 43.7388 113.916 43.7385 113.916C43.7382 113.916 43.738 113.916 43.7377 113.916C43.7374 113.915 43.7371 113.915 43.7368 113.915C43.7365 113.915 43.7362 113.915 43.7359 113.915C43.7356 113.915 43.7353 113.915 43.735 113.914C43.7347 113.914 43.7344 113.914 43.7341 113.914C43.7338 113.914 43.7335 113.914 43.7332 113.914C43.7329 113.913 43.7326 113.913 43.7323 113.913C43.732 113.913 43.7317 113.913 43.7314 113.913C43.7311 113.913 43.7308 113.913 43.7305 113.912C43.7302 113.912 43.7299 113.912 43.7296 113.912C43.7293 113.912 43.729 113.912 43.7287 113.912C43.7284 113.912 43.7281 113.911 43.7278 113.911C43.7275 113.911 43.7272 113.911 43.7269 113.911C43.7266 113.911 43.7263 113.911 43.726 113.91C43.7257 113.91 43.7254 113.91 43.7251 113.91C43.7247 113.91 43.7244 113.91 43.7241 113.91C43.7238 113.91 43.7235 113.909 43.7232 113.909C43.7229 113.909 43.7226 113.909 43.7223 113.909C43.722 113.909 43.7217 113.909 43.7214 113.909C43.7211 113.908 43.7208 113.908 43.7204 113.908C43.7201 113.908 43.7198 113.908 43.7195 113.908C43.7192 113.908 43.7189 113.907 43.7186 113.907C43.7183 113.907 43.718 113.907 43.7177 113.907C43.7174 113.907 43.717 113.907 43.7167 113.906C43.7164 113.906 43.7161 113.906 43.7158 113.906C43.7155 113.906 43.7152 113.906 43.7149 113.906C43.7145 113.906 43.7142 113.905 43.7139 113.905C43.7136 113.905 43.7133 113.905 43.713 113.905C43.7127 113.905 43.7123 113.905 43.712 113.904C43.7117 113.904 43.7114 113.904 43.7111 113.904C43.7108 113.904 43.7105 113.904 43.7101 113.904C43.7098 113.904 43.7095 113.903 43.7092 113.903C43.7089 113.903 43.7086 113.903 43.7082 113.903C43.7079 113.903 43.7076 113.903 43.7073 113.902C43.707 113.902 43.7066 113.902 43.7063 113.902C43.706 113.902 43.7057 113.902 43.7054 113.902C43.7051 113.901 43.7047 113.901 43.7044 113.901C43.7041 113.901 43.7038 113.901 43.7034 113.901C43.7031 113.901 43.7028 113.9 43.7025 113.9C43.7022 113.9 43.7018 113.9 43.7015 113.9C43.7012 113.9 43.7009 113.9 43.7005 113.899C43.7002 113.899 43.6999 113.899 43.6996 113.899C43.6993 113.899 43.6989 113.899 43.6986 113.899C43.6983 113.899 43.698 113.898 43.6976 113.898C43.6973 113.898 43.697 113.898 43.6967 113.898C43.6963 113.898 43.696 113.898 43.6957 113.897C43.6953 113.897 43.695 113.897 43.6947 113.897C43.6944 113.897 43.694 113.897 43.6937 113.897C43.6934 113.896 43.6931 113.896 43.6927 113.896C43.6924 113.896 43.6921 113.896 43.6917 113.896C43.6914 113.896 43.6911 113.895 43.6907 113.895C43.6904 113.895 43.6901 113.895 43.6898 113.895C43.6894 113.895 43.6891 113.895 43.6888 113.894C43.6884 113.894 43.6881 113.894 43.6878 113.894C43.6874 113.894 43.6871 113.894 43.6868 113.894C43.6864 113.893 43.6861 113.893 43.6858 113.893C43.6854 113.893 43.6851 113.893 43.6848 113.893C43.6844 113.893 43.6841 113.892 43.6838 113.892C43.6834 113.892 43.6831 113.892 43.6828 113.892C43.6824 113.892 43.6821 113.892 43.6817 113.891C43.6814 113.891 43.6811 113.891 43.6807 113.891C43.6804 113.891 43.6801 113.891 43.6797 113.89C43.6794 113.89 43.679 113.89 43.6787 113.89C43.6784 113.89 43.678 113.89 43.6777 113.89C43.6774 113.889 43.677 113.889 43.6767 113.889C43.6763 113.889 43.676 113.889 43.6756 113.889C43.6753 113.889 43.675 113.888 43.6746 113.888C43.6743 113.888 43.6739 113.888 43.6736 113.888C43.6733 113.888 43.6729 113.888 43.6726 113.887C43.6722 113.887 43.6719 113.887 43.6715 113.887C43.6712 113.887 43.6709 113.887 43.6705 113.887C43.6702 113.886 43.6698 113.886 43.6695 113.886C43.6691 113.886 43.6688 113.886 43.6684 113.886C43.6681 113.885 43.6678 113.885 43.6674 113.885C43.6671 113.885 43.6667 113.885 43.6664 113.885C43.666 113.885 43.6657 113.884 43.6653 113.884C43.665 113.884 43.6646 113.884 43.6643 113.884C43.6639 113.884 43.6636 113.884 43.6632 113.883C43.6629 113.883 43.6625 113.883 43.6622 113.883C43.6618 113.883 43.6615 113.883 43.6611 113.882C43.6608 113.882 43.6604 113.882 43.6601 113.882C43.6597 113.882 43.6594 113.882 43.659 113.882C43.6587 113.881 43.6583 113.881 43.658 113.881C43.6576 113.881 43.6573 113.881 43.6569 113.881C43.6566 113.88 43.6562 113.88 43.6558 113.88C43.6555 113.88 43.6551 113.88 43.6548 113.88C43.6544 113.88 43.6541 113.879 43.6537 113.879C43.6534 113.879 43.653 113.879 43.6527 113.879C43.6523 113.879 43.6519 113.878 43.6516 113.878C43.6512 113.878 43.6509 113.878 43.6505 113.878C43.6502 113.878 43.6498 113.878 43.6494 113.877C43.6491 113.877 43.6487 113.877 43.6484 113.877C43.648 113.877 43.6476 113.877 43.6473 113.876C43.6469 113.876 43.6466 113.876 43.6462 113.876C43.6458 113.876 43.6455 113.876 43.6451 113.876C43.6448 113.875 43.6444 113.875 43.644 113.875C43.6437 113.875 43.6433 113.875 43.643 113.875C43.6426 113.874 43.6422 113.874 43.6419 113.874C43.6415 113.874 43.6411 113.874 43.6408 113.874C43.6404 113.873 43.64 113.873 43.6397 113.873C43.6393 113.873 43.639 113.873 43.6386 113.873C43.6382 113.873 43.6379 113.872 43.6375 113.872C43.6371 113.872 43.6368 113.872 43.6364 113.872C43.636 113.872 43.6357 113.871 43.6353 113.871C43.6349 113.871 43.6346 113.871 43.6342 113.871C43.6338 113.871 43.6334 113.87 43.6331 113.87C43.6327 113.87 43.6323 113.87 43.632 113.87C43.6316 113.87 43.6312 113.87 43.6309 113.869C43.6305 113.869 43.6301 113.869 43.6298 113.869C43.6294 113.869 43.629 113.869 43.6286 113.868C43.6283 113.868 43.6279 113.868 43.6275 113.868C43.6272 113.868 43.6268 113.868 43.6264 113.867C43.626 113.867 43.6257 113.867 43.6253 113.867C43.6249 113.867 43.6245 113.867 43.6242 113.866C43.6238 113.866 43.6234 113.866 43.623 113.866C43.6227 113.866 43.6223 113.866 43.6219 113.865C43.6215 113.865 43.6212 113.865 43.6208 113.865C43.6204 113.865 43.62 113.865 43.6197 113.865C43.6193 113.864 43.6189 113.864 43.6185 113.864C43.6181 113.864 43.6178 113.864 43.6174 113.864C43.617 113.863 43.6166 113.863 43.6163 113.863C43.6159 113.863 43.6155 113.863 43.6151 113.863C43.6147 113.862 43.6144 113.862 43.614 113.862C43.6136 113.862 43.6132 113.862 43.6128 113.862C43.6124 113.861 43.6121 113.861 43.6117 113.861C43.6113 113.861 43.6109 113.861 43.6105 113.861C43.6102 113.86 43.6098 113.86 43.6094 113.86C43.609 113.86 43.6086 113.86 43.6082 113.86C43.6079 113.859 43.6075 113.859 43.6071 113.859C43.6067 113.859 43.6063 113.859 43.6059 113.859C43.6055 113.858 43.6052 113.858 43.6048 113.858C43.6044 113.858 43.604 113.858 43.6036 113.858C43.6032 113.857 43.6028 113.857 43.6024 113.857C43.6021 113.857 43.6017 113.857 43.6013 113.857C43.6009 113.856 43.6005 113.856 43.6001 113.856C43.5997 113.856 43.5993 113.856 43.5989 113.856C43.5986 113.855 43.5982 113.855 43.5978 113.855C43.5974 113.855 43.597 113.855 43.5966 113.855C43.5962 113.854 43.5958 113.854 43.5954 113.854C43.595 113.854 43.5946 113.854 43.5943 113.854C43.5939 113.853 43.5935 113.853 43.5931 113.853C43.5927 113.853 43.5923 113.853 43.5919 113.853C43.5915 113.852 43.5911 113.852 43.5907 113.852C43.5903 113.852 43.5899 113.852 43.5895 113.851C43.5891 113.851 43.5887 113.851 43.5883 113.851C43.5879 113.851 43.5875 113.851 43.5872 113.85C43.5868 113.85 43.5864 113.85 43.586 113.85C43.5856 113.85 43.5852 113.85 43.5848 113.849C43.5844 113.849 43.584 113.849 43.5836 113.849C43.5832 113.849 43.5828 113.849 43.5824 113.848C43.582 113.848 43.5816 113.848 43.5812 113.848C43.5808 113.848 43.5804 113.848 43.58 113.847C43.5796 113.847 43.5792 113.847 43.5788 113.847C43.5784 113.847 43.578 113.846 43.5776 113.846C43.5772 113.846 43.5768 113.846 43.5764 113.846C43.5759 113.846 43.5755 113.845 43.5751 113.845C43.5747 113.845 43.5743 113.845 43.5739 113.845C43.5735 113.845 43.5731 113.844 43.5727 113.844C43.5723 113.844 43.5719 113.844 43.5715 113.844C43.5711 113.844 43.5707 113.843 43.5703 113.843C43.5699 113.843 43.5695 113.843 43.5691 113.843C43.5687 113.842 43.5682 113.842 43.5678 113.842C43.5674 113.842 43.567 113.842 43.5666 113.842C43.5662 113.841 43.5658 113.841 43.5654 113.841C43.565 113.841 43.5646 113.841 43.5642 113.841C43.5637 113.84 43.5633 113.84 43.5629 113.84C43.5625 113.84 43.5621 113.84 43.5617 113.839C43.5613 113.839 43.5609 113.839 43.5605 113.839C43.56 113.839 43.5596 113.839 43.5592 113.838C43.5588 113.838 43.5584 113.838 43.558 113.838C43.5576 113.838 43.5572 113.837 43.5567 113.837C43.5563 113.837 43.5559 113.837 43.5555 113.837C43.5551 113.837 43.5547 113.836 43.5542 113.836C43.5538 113.836 43.5534 113.836 43.553 113.836C43.5526 113.835 43.5522 113.835 43.5517 113.835C43.5513 113.835 43.5509 113.835 43.5505 113.835C43.5501 113.834 43.5497 113.834 43.5492 113.834C43.5488 113.834 43.5484 113.834 43.548 113.834C43.5476 113.833 43.5471 113.833 43.5467 113.833C43.5463 113.833 43.5459 113.833 43.5455 113.832C43.545 113.832 43.5446 113.832 43.5442 113.832C43.5438 113.832 43.5434 113.832 43.5429 113.831C43.5425 113.831 43.5421 113.831 43.5417 113.831C43.5412 113.831 43.5408 113.83 43.5404 113.83C43.54 113.83 43.5396 113.83 43.5391 113.83C43.5387 113.829 43.5383 113.829 43.5379 113.829C43.5374 113.829 43.537 113.829 43.5366 113.829C43.5362 113.828 43.5357 113.828 43.5353 113.828C43.5349 113.828 43.5345 113.828 43.534 113.827C43.5336 113.827 43.5332 113.827 43.5327 113.827C43.5323 113.827 43.5319 113.827 43.5315 113.826C43.531 113.826 43.5306 113.826 43.5302 113.826C43.5297 113.826 43.5293 113.825 43.5289 113.825C43.5285 113.825 43.528 113.825 43.5276 113.825C43.5272 113.825 43.5267 113.824 43.5263 113.824C43.5259 113.824 43.5254 113.824 43.525 113.824C43.5246 113.823 43.5241 113.823 43.5237 113.823C43.5233 113.823 43.5228 113.823 43.5224 113.822C43.522 113.822 43.5215 113.822 43.5211 113.822C43.5207 113.822 43.5202 113.822 43.5198 113.821C43.5194 113.821 43.5189 113.821 43.5185 113.821C43.5181 113.821 43.5176 113.82 43.5172 113.82C43.5168 113.82 43.5163 113.82 43.5159 113.82C43.5155 113.819 43.515 113.819 43.5146 113.819C43.5141 113.819 43.5137 113.819 43.5133 113.818C43.5128 113.818 43.5124 113.818 43.512 113.818C43.5115 113.818 43.5111 113.818 43.5106 113.817C43.5102 113.817 43.5098 113.817 43.5093 113.817C43.5089 113.817 43.5084 113.816 43.508 113.816C43.5076 113.816 43.5071 113.816 43.5067 113.816C43.5062 113.815 43.5058 113.815 43.5053 113.815C43.5049 113.815 43.5045 113.815 43.504 113.814C43.5036 113.814 43.5031 113.814 43.5027 113.814C43.5022 113.814 43.5018 113.814 43.5014 113.813C43.5009 113.813 43.5005 113.813 43.5 113.813C43.4996 113.813 43.4991 113.812 43.4987 113.812C43.4982 113.812 43.4978 113.812 43.4973 113.812C43.4969 113.811 43.4965 113.811 43.496 113.811C43.4956 113.811 43.4951 113.811 43.4947 113.81C43.4942 113.81 43.4938 113.81 43.4933 113.81C43.4929 113.81 43.4924 113.809 43.492 113.809C43.4915 113.809 43.4911 113.809 43.4906 113.809C43.4902 113.809 43.4897 113.808 43.4893 113.808C43.4888 113.808 43.4884 113.808 43.4879 113.808C43.4875 113.807 43.487 113.807 43.4866 113.807C43.4861 113.807 43.4857 113.807 43.4852 113.806C43.4848 113.806 43.4843 113.806 43.4838 113.806C43.4834 113.806 43.4829 113.805 43.4825 113.805C43.482 113.805 43.4816 113.805 43.4811 113.805C43.4807 113.804 43.4802 113.804 43.4798 113.804C43.4793 113.804 43.4788 113.804 43.4784 113.803C43.4779 113.803 43.4775 113.803 43.477 113.803C43.4766 113.803 43.4761 113.802 43.4756 113.802C43.4752 113.802 43.4747 113.802 43.4743 113.802C43.4738 113.801 43.4734 113.801 43.4729 113.801C43.4724 113.801 43.472 113.801 43.4715 113.8C43.4711 113.8 43.4706 113.8 43.4701 113.8C43.4697 113.8 43.4692 113.799 43.4688 113.799C43.4683 113.799 43.4678 113.799 43.4674 113.799C43.4669 113.798 43.4664 113.798 43.466 113.798C43.4655 113.798 43.4651 113.798 43.4646 113.797C43.4641 113.797 43.4637 113.797 43.4632 113.797C43.4627 113.797 43.4623 113.796 43.4618 113.796C43.4613 113.796 43.4609 113.796 43.4604 113.796C43.46 113.795 43.4595 113.795 43.459 113.795C43.4586 113.795 43.4581 113.795 43.4576 113.794C43.4572 113.794 43.4567 113.794 43.4562 113.794C43.4558 113.794 43.4553 113.793 43.4548 113.793C43.4543 113.793 43.4539 113.793 43.4534 113.793C43.4529 113.792 43.4525 113.792 43.452 113.792C43.4515 113.792 43.4511 113.792 43.4506 113.791C43.4501 113.791 43.4497 113.791 43.4492 113.791C43.4487 113.791 43.4482 113.79 43.4478 113.79C43.4473 113.79 43.4468 113.79 43.4463 113.79C43.4459 113.789 43.4454 113.789 43.4449 113.789C43.4445 113.789 43.444 113.789 43.4435 113.788C43.443 113.788 43.4426 113.788 43.4421 113.788C43.4416 113.788 43.4411 113.787 43.4407 113.787C43.4402 113.787 43.4397 113.787 43.4392 113.786C43.4388 113.786 43.4383 113.786 43.4378 113.786C43.4373 113.786 43.4369 113.785 43.4364 113.785C43.4359 113.785 43.4354 113.785 43.4349 113.785C43.4345 113.784 43.434 113.784 43.4335 113.784C43.433 113.784 43.4326 113.784 43.4321 113.783C43.4316 113.783 43.4311 113.783 43.4306 113.783C43.4302 113.783 43.4297 113.782 43.4292 113.782C43.4287 113.782 43.4282 113.782 43.4277 113.782C43.4273 113.781 43.4268 113.781 43.4263 113.781C43.4258 113.781 43.4253 113.78 43.4249 113.78C43.4244 113.78 43.4239 113.78 43.4234 113.78C43.4229 113.779 43.4224 113.779 43.422 113.779C43.4215 113.779 43.421 113.779 43.4205 113.778C43.42 113.778 43.4195 113.778 43.419 113.778C43.4186 113.778 43.4181 113.777 43.4176 113.777C43.4171 113.777 43.4166 113.777 43.4161 113.776C43.4156 113.776 43.4152 113.776 43.4147 113.776C43.4142 113.776 43.4137 113.775 43.4132 113.775C43.4127 113.775 43.4122 113.775 43.4117 113.775C43.4112 113.774 43.4108 113.774 43.4103 113.774C43.4098 113.774 43.4093 113.774 43.4088 113.773C43.4083 113.773 43.4078 113.773 43.4073 113.773C43.4068 113.772 43.4063 113.772 43.4058 113.772C43.4054 113.772 43.4049 113.772 43.4044 113.771C43.4039 113.771 43.4034 113.771 43.4029 113.771C43.4024 113.771 43.4019 113.77 43.4014 113.77C43.4009 113.77 43.4004 113.77 43.3999 113.769C43.3994 113.769 43.3989 113.769 43.3984 113.769C43.3979 113.769 43.3974 113.768 43.397 113.768C43.3965 113.768 43.396 113.768 43.3955 113.768C43.395 113.767 43.3945 113.767 43.394 113.767C43.3935 113.767 43.393 113.766 43.3925 113.766C43.392 113.766 43.3915 113.766 43.391 113.766C43.3905 113.765 43.39 113.765 43.3895 113.765C43.389 113.765 43.3885 113.765 43.388 113.764C43.3875 113.764 43.387 113.764 43.3865 113.764C43.386 113.763 43.3855 113.763 43.385 113.763C43.3845 113.763 43.384 113.763 43.3835 113.762C43.383 113.762 43.3825 113.762 43.382 113.762C43.3815 113.761 43.381 113.761 43.3805 113.761C43.3799 113.761 43.3794 113.761 43.3789 113.76C43.3784 113.76 43.3779 113.76 43.3774 113.76C43.3769 113.76 43.3764 113.759 43.3759 113.759C43.3754 113.759 43.3749 113.759 43.3744 113.758C43.3739 113.758 43.3734 113.758 43.3729 113.758C43.3724 113.758 43.3719 113.757 43.3713 113.757C43.3708 113.757 43.3703 113.757 43.3698 113.756C43.3693 113.756 43.3688 113.756 43.3683 113.756C43.3678 113.756 43.3673 113.755 43.3668 113.755C43.3663 113.755 43.3657 113.755 43.3652 113.754C43.3647 113.754 43.3642 113.754 43.3637 113.754C43.3632 113.754 43.3627 113.753 43.3622 113.753C43.3616 113.753 43.3611 113.753 43.3606 113.752C43.3601 113.752 43.3596 113.752 43.3591 113.752C43.3586 113.752 43.3581 113.751 43.3575 113.751C43.357 113.751 43.3565 113.751 43.356 113.75C43.3555 113.75 43.355 113.75 43.3544 113.75C43.3539 113.75 43.3534 113.749 43.3529 113.749C43.3524 113.749 43.3519 113.749 43.3513 113.748C43.3508 113.748 43.3503 113.748 43.3498 113.748C43.3493 113.748 43.3488 113.747 43.3482 113.747C43.3477 113.747 43.3472 113.747 43.3467 113.746C43.3462 113.746 43.3456 113.746 43.3451 113.746C43.3446 113.746 43.3441 113.745 43.3436 113.745C43.343 113.745 43.3425 113.745 43.342 113.744C43.3415 113.744 43.341 113.744 43.3404 113.744C43.3399 113.744 43.3394 113.743 43.3389 113.743C43.3383 113.743 43.3378 113.743 43.3373 113.742C43.3368 113.742 43.3363 113.742 43.3357 113.742C43.3352 113.741 43.3347 113.741 43.3342 113.741C43.3336 113.741 43.3331 113.741 43.3326 113.74C43.3321 113.74 43.3315 113.74 43.331 113.74C43.3305 113.739 43.3299 113.739 43.3294 113.739C43.3289 113.739 43.3284 113.739 43.3278 113.738C43.3273 113.738 43.3268 113.738 43.3263 113.738C43.3257 113.737 43.3252 113.737 43.3247 113.737C43.3241 113.737 43.3236 113.736 43.3231 113.736C43.3226 113.736 43.322 113.736 43.3215 113.736C43.321 113.735 43.3204 113.735 43.3199 113.735C43.3194 113.735 43.3188 113.734 43.3183 113.734C43.3178 113.734 43.3172 113.734 43.3167 113.733C43.3162 113.733 43.3156 113.733 43.3151 113.733C43.3146 113.733 43.314 113.732 43.3135 113.732C43.313 113.732 43.3124 113.732 43.3119 113.731C43.3114 113.731 43.3108 113.731 43.3103 113.731C43.3098 113.73 43.3092 113.73 43.3087 113.73C43.3082 113.73 43.3076 113.73 43.3071 113.729C43.3065 113.729 43.306 113.729 43.3055 113.729C43.3049 113.728 43.3044 113.728 43.3039 113.728C43.3033 113.728 43.3028 113.727 43.3022 113.727C43.3017 113.727 43.3012 113.727 43.3006 113.727C43.3001 113.726 43.2995 113.726 43.299 113.726C43.2985 113.726 43.2979 113.725 43.2974 113.725C43.2968 113.725 43.2963 113.725 43.2958 113.724C43.2952 113.724 43.2947 113.724 43.2941 113.724C43.2936 113.723 43.293 113.723 43.2925 113.723C43.292 113.723 43.2914 113.723 43.2909 113.722C43.2903 113.722 43.2898 113.722 43.2892 113.722C43.2887 113.721 43.2882 113.721 43.2876 113.721C43.2871 113.721 43.2865 113.72 43.286 113.72C43.2854 113.72 43.2849 113.72 43.2843 113.719C43.2838 113.719 43.2832 113.719 43.2827 113.719C43.2821 113.719 43.2816 113.718 43.281 113.718C43.2805 113.718 43.2799 113.718 43.2794 113.717C43.2789 113.717 43.2783 113.717 43.2778 113.717C43.2772 113.716 43.2767 113.716 43.2761 113.716C43.2756 113.716 43.275 113.715 43.2745 113.715C43.2739 113.715 43.2734 113.715 43.2728 113.714C43.2722 113.714 43.2717 113.714 43.2711 113.714C43.2706 113.714 43.27 113.713 43.2695 113.713C43.2689 113.713 43.2684 113.713 43.2678 113.712C43.2673 113.712 43.2667 113.712 43.2662 113.712C43.2656 113.711 43.2651 113.711 43.2645 113.711C43.2639 113.711 43.2634 113.71 43.2628 113.71C43.2623 113.71 43.2617 113.71 43.2612 113.709C43.2606 113.709 43.2601 113.709 43.2595 113.709C43.2589 113.708 43.2584 113.708 43.2578 113.708C43.2573 113.708 43.2567 113.708 43.2561 113.707C43.2556 113.707 43.255 113.707 43.2545 113.707C43.2539 113.706 43.2534 113.706 43.2528 113.706C43.2522 113.706 43.2517 113.705 43.2511 113.705C43.2506 113.705 43.25 113.705 43.2494 113.704C43.2489 113.704 43.2483 113.704 43.2477 113.704C43.2472 113.703 43.2466 113.703 43.2461 113.703C43.2455 113.703 43.2449 113.702 43.2444 113.702C43.2438 113.702 43.2432 113.702 43.2427 113.701C43.2421 113.701 43.2415 113.701 43.241 113.701C43.2404 113.7 43.2399 113.7 43.2393 113.7C43.2387 113.7 43.2382 113.699 43.2376 113.699C43.237 113.699 43.2365 113.699 43.2359 113.699C43.2353 113.698 43.2348 113.698 43.2342 113.698C43.2336 113.698 43.2331 113.697 43.2325 113.697C43.2319 113.697 43.2313 113.697 43.2308 113.696C43.2302 113.696 43.2296 113.696 43.2291 113.696C43.2285 113.695 43.2279 113.695 43.2274 113.695C43.2268 113.695 43.2262 113.694 43.2256 113.694C43.2251 113.694 43.2245 113.694 43.2239 113.693C43.2234 113.693 43.2228 113.693 43.2222 113.693C43.2216 113.692 43.2211 113.692 43.2205 113.692C43.2199 113.692 43.2194 113.691 43.2188 113.691C43.2182 113.691 43.2176 113.691 43.2171 113.69C43.2165 113.69 43.2159 113.69 43.2153 113.69C43.2148 113.689 43.2142 113.689 43.2136 113.689C43.213 113.689 43.2125 113.688 43.2119 113.688C43.2113 113.688 43.2107 113.688 43.2101 113.687C43.2096 113.687 43.209 113.687 43.2084 113.687C43.2078 113.686 43.2073 113.686 43.2067 113.686C43.2061 113.686 43.2055 113.685 43.2049 113.685C43.2044 113.685 43.2038 113.685 43.2032 113.684C43.2026 113.684 43.202 113.684 43.2015 113.684C43.2009 113.683 43.2003 113.683 43.1997 113.683C43.1991 113.683 43.1985 113.682 43.198 113.682C43.1974 113.682 43.1968 113.682 43.1962 113.681C43.1956 113.681 43.1951 113.681 43.1945 113.681C43.1939 113.68 43.1933 113.68 43.1927 113.68C43.1921 113.68 43.1915 113.679 43.191 113.679C43.1904 113.679 43.1898 113.679 43.1892 113.678C43.1886 113.678 43.188 113.678 43.1874 113.678C43.1869 113.677 43.1863 113.677 43.1857 113.677C43.1851 113.677 43.1845 113.676 43.1839 113.676C43.1833 113.676 43.1827 113.676 43.1822 113.675C43.1816 113.675 43.181 113.675 43.1804 113.675C43.1798 113.674 43.1792 113.674 43.1786 113.674C43.178 113.673 43.1774 113.673 43.1769 113.673C43.1763 113.673 43.1757 113.672 43.1751 113.672C43.1745 113.672 43.1739 113.672 43.1733 113.671C43.1727 113.671 43.1721 113.671 43.1715 113.671C43.1709 113.67 43.1703 113.67 43.1697 113.67C43.1692 113.67 43.1686 113.669 43.168 113.669C43.1674 113.669 43.1668 113.669 43.1662 113.668C43.1656 113.668 43.165 113.668 43.1644 113.668C43.1638 113.667 43.1632 113.667 43.1626 113.667C43.162 113.667 43.1614 113.666 43.1608 113.666C43.1602 113.666 43.1596 113.666 43.159 113.665C43.1584 113.665 43.1578 113.665 43.1572 113.664C43.1566 113.664 43.156 113.664 43.1554 113.664C43.1548 113.663 43.1542 113.663 43.1536 113.663C43.153 113.663 43.1524 113.662 43.1518 113.662C43.1512 113.662 43.1506 113.662 43.15 113.661C43.1494 113.661 43.1488 113.661 43.1482 113.661C43.1476 113.66 43.147 113.66 43.1464 113.66C43.1458 113.66 43.1452 113.659 43.1446 113.659C43.144 113.659 43.1434 113.659 43.1428 113.658C43.1422 113.658 43.1416 113.658 43.141 113.657C43.1404 113.657 43.1398 113.657 43.1392 113.657C43.1386 113.656 43.138 113.656 43.1374 113.656C43.1367 113.656 43.1361 113.655 43.1355 113.655C43.1349 113.655 43.1343 113.655 43.1337 113.654C43.1331 113.654 43.1325 113.654 43.1319 113.654C43.1313 113.653 43.1307 113.653 43.1301 113.653C43.1295 113.652 43.1288 113.652 43.1282 113.652C43.1276 113.652 43.127 113.651 43.1264 113.651C43.1258 113.651 43.1252 113.651 43.1246 113.65C43.124 113.65 43.1234 113.65 43.1227 113.65C43.1221 113.649 43.1215 113.649 43.1209 113.649C43.1203 113.649 43.1197 113.648 43.1191 113.648C43.1185 113.648 43.1178 113.647 43.1172 113.647C43.1166 113.647 43.116 113.647 43.1154 113.646C43.1148 113.646 43.1142 113.646 43.1135 113.646C43.1129 113.645 43.1123 113.645 43.1117 113.645C43.1111 113.645 43.1105 113.644 43.1098 113.644C43.1092 113.644 43.1086 113.643 43.108 113.643C43.1074 113.643 43.1068 113.643 43.1061 113.642C43.1055 113.642 43.1049 113.642 43.1043 113.642C43.1037 113.641 43.103 113.641 43.1024 113.641C43.1018 113.641 43.1012 113.64 43.1006 113.64C43.0999 113.64 43.0993 113.639 43.0987 113.639C43.0981 113.639 43.0975 113.639 43.0968 113.638C43.0962 113.638 43.0956 113.638 43.095 113.638C43.0944 113.637 43.0937 113.637 43.0931 113.637C43.0925 113.636 43.0919 113.636 43.0912 113.636C43.0906 113.636 43.09 113.635 43.0894 113.635C43.0887 113.635 43.0881 113.635 43.0875 113.634C43.0869 113.634 43.0862 113.634 43.0856 113.634C43.085 113.633 43.0844 113.633 43.0837 113.633C43.0831 113.632 43.0825 113.632 43.0819 113.632C43.0812 113.632 43.0806 113.631 43.08 113.631C43.0793 113.631 43.0787 113.631 43.0781 113.63C43.0775 113.63 43.0768 113.63 43.0762 113.629C43.0756 113.629 43.0749 113.629 43.0743 113.629C43.0737 113.628 43.0731 113.628 43.0724 113.628C43.0718 113.628 43.0712 113.627 43.0705 113.627C43.0699 113.627 43.0693 113.626 43.0686 113.626C43.068 113.626 43.0674 113.626 43.0667 113.625C43.0661 113.625 43.0655 113.625 43.0648 113.625C43.0642 113.624 43.0636 113.624 43.0629 113.624C43.0623 113.623 43.0617 113.623 43.061 113.623C43.0604 113.623 43.0598 113.622 43.0591 113.622C43.0585 113.622 43.0579 113.622 43.0572 113.621C43.0566 113.621 43.0559 113.621 43.0553 113.62C43.0547 113.62 43.054 113.62 43.0534 113.62C43.0528 113.619 43.0521 113.619 43.0515 113.619C43.0508 113.618 43.0502 113.618 43.0496 113.618C43.0489 113.618 43.0483 113.617 43.0477 113.617C43.047 113.617 43.0464 113.617 43.0457 113.616C43.0451 113.616 43.0445 113.616 43.0438 113.615C43.0432 113.615 43.0425 113.615 43.0419 113.615C43.0412 113.614 43.0406 113.614 43.04 113.614C43.0393 113.613 43.0387 113.613 43.038 113.613C43.0374 113.613 43.0367 113.612 43.0361 113.612C43.0355 113.612 43.0348 113.612 43.0342 113.611C43.0335 113.611 43.0329 113.611 43.0322 113.61L41.4443 117.282C41.4449 117.282 41.4455 117.282 41.4462 117.283C41.4468 117.283 41.4475 117.283 41.4481 117.283C41.4488 117.284 41.4494 117.284 41.4501 117.284C41.4507 117.284 41.4513 117.285 41.452 117.285C41.4526 117.285 41.4533 117.286 41.4539 117.286C41.4545 117.286 41.4552 117.286 41.4558 117.287C41.4565 117.287 41.4571 117.287 41.4578 117.288C41.4584 117.288 41.459 117.288 41.4597 117.288C41.4603 117.289 41.461 117.289 41.4616 117.289C41.4622 117.289 41.4629 117.29 41.4635 117.29C41.4641 117.29 41.4648 117.291 41.4654 117.291C41.4661 117.291 41.4667 117.291 41.4673 117.292C41.468 117.292 41.4686 117.292 41.4692 117.293C41.4699 117.293 41.4705 117.293 41.4712 117.293C41.4718 117.294 41.4724 117.294 41.4731 117.294C41.4737 117.294 41.4743 117.295 41.475 117.295C41.4756 117.295 41.4762 117.296 41.4769 117.296C41.4775 117.296 41.4781 117.296 41.4788 117.297C41.4794 117.297 41.48 117.297 41.4807 117.297C41.4813 117.298 41.4819 117.298 41.4826 117.298C41.4832 117.299 41.4838 117.299 41.4844 117.299C41.4851 117.299 41.4857 117.3 41.4863 117.3C41.487 117.3 41.4876 117.3 41.4882 117.301C41.4889 117.301 41.4895 117.301 41.4901 117.302C41.4907 117.302 41.4914 117.302 41.492 117.302C41.4926 117.303 41.4933 117.303 41.4939 117.303C41.4945 117.303 41.4951 117.304 41.4958 117.304C41.4964 117.304 41.497 117.305 41.4976 117.305C41.4983 117.305 41.4989 117.305 41.4995 117.306C41.5001 117.306 41.5008 117.306 41.5014 117.306C41.502 117.307 41.5026 117.307 41.5033 117.307C41.5039 117.308 41.5045 117.308 41.5051 117.308C41.5058 117.308 41.5064 117.309 41.507 117.309C41.5076 117.309 41.5082 117.309 41.5089 117.31C41.5095 117.31 41.5101 117.31 41.5107 117.31C41.5113 117.311 41.512 117.311 41.5126 117.311C41.5132 117.312 41.5138 117.312 41.5144 117.312C41.5151 117.312 41.5157 117.313 41.5163 117.313C41.5169 117.313 41.5175 117.313 41.5182 117.314C41.5188 117.314 41.5194 117.314 41.52 117.314C41.5206 117.315 41.5212 117.315 41.5219 117.315C41.5225 117.316 41.5231 117.316 41.5237 117.316C41.5243 117.316 41.5249 117.317 41.5256 117.317C41.5262 117.317 41.5268 117.317 41.5274 117.318C41.528 117.318 41.5286 117.318 41.5292 117.318C41.5299 117.319 41.5305 117.319 41.5311 117.319C41.5317 117.32 41.5323 117.32 41.5329 117.32C41.5335 117.32 41.5341 117.321 41.5348 117.321C41.5354 117.321 41.536 117.321 41.5366 117.322C41.5372 117.322 41.5378 117.322 41.5384 117.322C41.539 117.323 41.5396 117.323 41.5403 117.323C41.5409 117.323 41.5415 117.324 41.5421 117.324C41.5427 117.324 41.5433 117.325 41.5439 117.325C41.5445 117.325 41.5451 117.325 41.5457 117.326C41.5463 117.326 41.5469 117.326 41.5476 117.326C41.5482 117.327 41.5488 117.327 41.5494 117.327C41.55 117.327 41.5506 117.328 41.5512 117.328C41.5518 117.328 41.5524 117.328 41.553 117.329C41.5536 117.329 41.5542 117.329 41.5548 117.33C41.5554 117.33 41.556 117.33 41.5566 117.33C41.5572 117.331 41.5578 117.331 41.5584 117.331C41.559 117.331 41.5596 117.332 41.5602 117.332C41.5608 117.332 41.5615 117.332 41.5621 117.333C41.5627 117.333 41.5633 117.333 41.5639 117.333C41.5645 117.334 41.5651 117.334 41.5657 117.334C41.5663 117.334 41.5669 117.335 41.5675 117.335C41.5681 117.335 41.5687 117.336 41.5693 117.336C41.5698 117.336 41.5704 117.336 41.571 117.337C41.5716 117.337 41.5722 117.337 41.5728 117.337C41.5734 117.338 41.574 117.338 41.5746 117.338C41.5752 117.338 41.5758 117.339 41.5764 117.339C41.577 117.339 41.5776 117.339 41.5782 117.34C41.5788 117.34 41.5794 117.34 41.58 117.34C41.5806 117.341 41.5812 117.341 41.5818 117.341C41.5824 117.341 41.583 117.342 41.5835 117.342C41.5841 117.342 41.5847 117.342 41.5853 117.343C41.5859 117.343 41.5865 117.343 41.5871 117.343C41.5877 117.344 41.5883 117.344 41.5889 117.344C41.5895 117.345 41.5901 117.345 41.5906 117.345C41.5912 117.345 41.5918 117.346 41.5924 117.346C41.593 117.346 41.5936 117.346 41.5942 117.347C41.5948 117.347 41.5954 117.347 41.5959 117.347C41.5965 117.348 41.5971 117.348 41.5977 117.348C41.5983 117.348 41.5989 117.349 41.5995 117.349C41.6001 117.349 41.6006 117.349 41.6012 117.35C41.6018 117.35 41.6024 117.35 41.603 117.35C41.6036 117.351 41.6042 117.351 41.6047 117.351C41.6053 117.351 41.6059 117.352 41.6065 117.352C41.6071 117.352 41.6077 117.352 41.6082 117.353C41.6088 117.353 41.6094 117.353 41.61 117.353C41.6106 117.354 41.6112 117.354 41.6117 117.354C41.6123 117.354 41.6129 117.355 41.6135 117.355C41.6141 117.355 41.6146 117.355 41.6152 117.356C41.6158 117.356 41.6164 117.356 41.617 117.356C41.6175 117.357 41.6181 117.357 41.6187 117.357C41.6193 117.357 41.6199 117.358 41.6204 117.358C41.621 117.358 41.6216 117.358 41.6222 117.359C41.6227 117.359 41.6233 117.359 41.6239 117.359C41.6245 117.36 41.625 117.36 41.6256 117.36C41.6262 117.36 41.6268 117.361 41.6274 117.361C41.6279 117.361 41.6285 117.361 41.6291 117.362C41.6297 117.362 41.6302 117.362 41.6308 117.362C41.6314 117.363 41.6319 117.363 41.6325 117.363C41.6331 117.363 41.6337 117.364 41.6342 117.364C41.6348 117.364 41.6354 117.364 41.636 117.365C41.6365 117.365 41.6371 117.365 41.6377 117.365C41.6382 117.366 41.6388 117.366 41.6394 117.366C41.64 117.366 41.6405 117.367 41.6411 117.367C41.6417 117.367 41.6422 117.367 41.6428 117.368C41.6434 117.368 41.6439 117.368 41.6445 117.368C41.6451 117.369 41.6456 117.369 41.6462 117.369C41.6468 117.369 41.6473 117.37 41.6479 117.37C41.6485 117.37 41.649 117.37 41.6496 117.371C41.6502 117.371 41.6507 117.371 41.6513 117.371C41.6519 117.372 41.6524 117.372 41.653 117.372C41.6536 117.372 41.6541 117.372 41.6547 117.373C41.6553 117.373 41.6558 117.373 41.6564 117.373C41.657 117.374 41.6575 117.374 41.6581 117.374C41.6586 117.374 41.6592 117.375 41.6598 117.375C41.6603 117.375 41.6609 117.375 41.6614 117.376C41.662 117.376 41.6626 117.376 41.6631 117.376C41.6637 117.377 41.6643 117.377 41.6648 117.377C41.6654 117.377 41.6659 117.378 41.6665 117.378C41.6671 117.378 41.6676 117.378 41.6682 117.379C41.6687 117.379 41.6693 117.379 41.6698 117.379C41.6704 117.38 41.671 117.38 41.6715 117.38C41.6721 117.38 41.6726 117.38 41.6732 117.381C41.6737 117.381 41.6743 117.381 41.6749 117.381C41.6754 117.382 41.676 117.382 41.6765 117.382C41.6771 117.382 41.6776 117.383 41.6782 117.383C41.6787 117.383 41.6793 117.383 41.6798 117.384C41.6804 117.384 41.681 117.384 41.6815 117.384C41.6821 117.385 41.6826 117.385 41.6832 117.385C41.6837 117.385 41.6843 117.386 41.6848 117.386C41.6854 117.386 41.6859 117.386 41.6865 117.386C41.687 117.387 41.6876 117.387 41.6881 117.387C41.6887 117.387 41.6892 117.388 41.6898 117.388C41.6903 117.388 41.6909 117.388 41.6914 117.389C41.692 117.389 41.6925 117.389 41.6931 117.389C41.6936 117.39 41.6942 117.39 41.6947 117.39C41.6953 117.39 41.6958 117.391 41.6963 117.391C41.6969 117.391 41.6974 117.391 41.698 117.391C41.6985 117.392 41.6991 117.392 41.6996 117.392C41.7002 117.392 41.7007 117.393 41.7013 117.393C41.7018 117.393 41.7023 117.393 41.7029 117.394C41.7034 117.394 41.704 117.394 41.7045 117.394C41.7051 117.395 41.7056 117.395 41.7062 117.395C41.7067 117.395 41.7072 117.395 41.7078 117.396C41.7083 117.396 41.7089 117.396 41.7094 117.396C41.7099 117.397 41.7105 117.397 41.711 117.397C41.7116 117.397 41.7121 117.398 41.7126 117.398C41.7132 117.398 41.7137 117.398 41.7143 117.398C41.7148 117.399 41.7153 117.399 41.7159 117.399C41.7164 117.399 41.717 117.4 41.7175 117.4C41.718 117.4 41.7186 117.4 41.7191 117.401C41.7196 117.401 41.7202 117.401 41.7207 117.401C41.7212 117.402 41.7218 117.402 41.7223 117.402C41.7229 117.402 41.7234 117.402 41.7239 117.403C41.7245 117.403 41.725 117.403 41.7255 117.403C41.7261 117.404 41.7266 117.404 41.7271 117.404C41.7277 117.404 41.7282 117.405 41.7287 117.405C41.7293 117.405 41.7298 117.405 41.7303 117.405C41.7309 117.406 41.7314 117.406 41.7319 117.406C41.7324 117.406 41.733 117.407 41.7335 117.407C41.734 117.407 41.7346 117.407 41.7351 117.408C41.7356 117.408 41.7362 117.408 41.7367 117.408C41.7372 117.408 41.7377 117.409 41.7383 117.409C41.7388 117.409 41.7393 117.409 41.7399 117.41C41.7404 117.41 41.7409 117.41 41.7414 117.41C41.742 117.41 41.7425 117.411 41.743 117.411C41.7435 117.411 41.7441 117.411 41.7446 117.412C41.7451 117.412 41.7456 117.412 41.7462 117.412C41.7467 117.413 41.7472 117.413 41.7477 117.413C41.7483 117.413 41.7488 117.413 41.7493 117.414C41.7498 117.414 41.7504 117.414 41.7509 117.414C41.7514 117.415 41.7519 117.415 41.7525 117.415C41.753 117.415 41.7535 117.415 41.754 117.416C41.7545 117.416 41.7551 117.416 41.7556 117.416C41.7561 117.417 41.7566 117.417 41.7571 117.417C41.7577 117.417 41.7582 117.417 41.7587 117.418C41.7592 117.418 41.7597 117.418 41.7603 117.418C41.7608 117.419 41.7613 117.419 41.7618 117.419C41.7623 117.419 41.7629 117.42 41.7634 117.42C41.7639 117.42 41.7644 117.42 41.7649 117.42C41.7654 117.421 41.766 117.421 41.7665 117.421C41.767 117.421 41.7675 117.422 41.768 117.422C41.7685 117.422 41.769 117.422 41.7696 117.422C41.7701 117.423 41.7706 117.423 41.7711 117.423C41.7716 117.423 41.7721 117.424 41.7726 117.424C41.7732 117.424 41.7737 117.424 41.7742 117.424C41.7747 117.425 41.7752 117.425 41.7757 117.425C41.7762 117.425 41.7767 117.426 41.7772 117.426C41.7778 117.426 41.7783 117.426 41.7788 117.426C41.7793 117.427 41.7798 117.427 41.7803 117.427C41.7808 117.427 41.7813 117.428 41.7818 117.428C41.7823 117.428 41.7829 117.428 41.7834 117.428C41.7839 117.429 41.7844 117.429 41.7849 117.429C41.7854 117.429 41.7859 117.429 41.7864 117.43C41.7869 117.43 41.7874 117.43 41.7879 117.43C41.7884 117.431 41.7889 117.431 41.7894 117.431C41.7899 117.431 41.7905 117.431 41.791 117.432C41.7915 117.432 41.792 117.432 41.7925 117.432C41.793 117.433 41.7935 117.433 41.794 117.433C41.7945 117.433 41.795 117.433 41.7955 117.434C41.796 117.434 41.7965 117.434 41.797 117.434C41.7975 117.435 41.798 117.435 41.7985 117.435C41.799 117.435 41.7995 117.435 41.8 117.436C41.8005 117.436 41.801 117.436 41.8015 117.436C41.802 117.436 41.8025 117.437 41.803 117.437C41.8035 117.437 41.804 117.437 41.8045 117.438C41.805 117.438 41.8055 117.438 41.806 117.438C41.8065 117.438 41.807 117.439 41.8075 117.439C41.808 117.439 41.8085 117.439 41.809 117.439C41.8095 117.44 41.81 117.44 41.8105 117.44C41.811 117.44 41.8114 117.441 41.8119 117.441C41.8124 117.441 41.8129 117.441 41.8134 117.441C41.8139 117.442 41.8144 117.442 41.8149 117.442C41.8154 117.442 41.8159 117.442 41.8164 117.443C41.8169 117.443 41.8174 117.443 41.8179 117.443C41.8184 117.444 41.8188 117.444 41.8193 117.444C41.8198 117.444 41.8203 117.444 41.8208 117.445C41.8213 117.445 41.8218 117.445 41.8223 117.445C41.8228 117.445 41.8233 117.446 41.8238 117.446C41.8242 117.446 41.8247 117.446 41.8252 117.446C41.8257 117.447 41.8262 117.447 41.8267 117.447C41.8272 117.447 41.8277 117.448 41.8281 117.448C41.8286 117.448 41.8291 117.448 41.8296 117.448C41.8301 117.449 41.8306 117.449 41.8311 117.449C41.8315 117.449 41.832 117.449 41.8325 117.45C41.833 117.45 41.8335 117.45 41.834 117.45C41.8345 117.45 41.8349 117.451 41.8354 117.451C41.8359 117.451 41.8364 117.451 41.8369 117.452C41.8374 117.452 41.8378 117.452 41.8383 117.452C41.8388 117.452 41.8393 117.453 41.8398 117.453C41.8403 117.453 41.8407 117.453 41.8412 117.453C41.8417 117.454 41.8422 117.454 41.8427 117.454C41.8431 117.454 41.8436 117.454 41.8441 117.455C41.8446 117.455 41.8451 117.455 41.8455 117.455C41.846 117.455 41.8465 117.456 41.847 117.456C41.8474 117.456 41.8479 117.456 41.8484 117.457C41.8489 117.457 41.8494 117.457 41.8498 117.457C41.8503 117.457 41.8508 117.458 41.8513 117.458C41.8517 117.458 41.8522 117.458 41.8527 117.458C41.8532 117.459 41.8536 117.459 41.8541 117.459C41.8546 117.459 41.8551 117.459 41.8555 117.46C41.856 117.46 41.8565 117.46 41.857 117.46C41.8574 117.46 41.8579 117.461 41.8584 117.461C41.8588 117.461 41.8593 117.461 41.8598 117.461C41.8603 117.462 41.8607 117.462 41.8612 117.462C41.8617 117.462 41.8621 117.462 41.8626 117.463C41.8631 117.463 41.8636 117.463 41.864 117.463C41.8645 117.463 41.865 117.464 41.8654 117.464C41.8659 117.464 41.8664 117.464 41.8668 117.464C41.8673 117.465 41.8678 117.465 41.8682 117.465C41.8687 117.465 41.8692 117.466 41.8696 117.466C41.8701 117.466 41.8706 117.466 41.871 117.466C41.8715 117.467 41.872 117.467 41.8724 117.467C41.8729 117.467 41.8734 117.467 41.8738 117.468C41.8743 117.468 41.8748 117.468 41.8752 117.468C41.8757 117.468 41.8762 117.469 41.8766 117.469C41.8771 117.469 41.8775 117.469 41.878 117.469C41.8785 117.47 41.8789 117.47 41.8794 117.47C41.8799 117.47 41.8803 117.47 41.8808 117.471C41.8812 117.471 41.8817 117.471 41.8822 117.471C41.8826 117.471 41.8831 117.472 41.8835 117.472C41.884 117.472 41.8845 117.472 41.8849 117.472C41.8854 117.473 41.8858 117.473 41.8863 117.473C41.8868 117.473 41.8872 117.473 41.8877 117.474C41.8881 117.474 41.8886 117.474 41.889 117.474C41.8895 117.474 41.89 117.474 41.8904 117.475C41.8909 117.475 41.8913 117.475 41.8918 117.475C41.8922 117.475 41.8927 117.476 41.8931 117.476C41.8936 117.476 41.8941 117.476 41.8945 117.476C41.895 117.477 41.8954 117.477 41.8959 117.477C41.8963 117.477 41.8968 117.477 41.8972 117.478C41.8977 117.478 41.8981 117.478 41.8986 117.478C41.899 117.478 41.8995 117.479 41.8999 117.479C41.9004 117.479 41.9008 117.479 41.9013 117.479C41.9017 117.48 41.9022 117.48 41.9026 117.48C41.9031 117.48 41.9035 117.48 41.904 117.481C41.9044 117.481 41.9049 117.481 41.9053 117.481C41.9058 117.481 41.9062 117.482 41.9067 117.482C41.9071 117.482 41.9076 117.482 41.908 117.482C41.9085 117.483 41.9089 117.483 41.9094 117.483C41.9098 117.483 41.9103 117.483 41.9107 117.483C41.9111 117.484 41.9116 117.484 41.912 117.484C41.9125 117.484 41.9129 117.484 41.9134 117.485C41.9138 117.485 41.9143 117.485 41.9147 117.485C41.9152 117.485 41.9156 117.486 41.916 117.486C41.9165 117.486 41.9169 117.486 41.9174 117.486C41.9178 117.487 41.9182 117.487 41.9187 117.487C41.9191 117.487 41.9196 117.487 41.92 117.487C41.9205 117.488 41.9209 117.488 41.9213 117.488C41.9218 117.488 41.9222 117.488 41.9227 117.489C41.9231 117.489 41.9235 117.489 41.924 117.489C41.9244 117.489 41.9248 117.49 41.9253 117.49C41.9257 117.49 41.9262 117.49 41.9266 117.49C41.927 117.491 41.9275 117.491 41.9279 117.491C41.9283 117.491 41.9288 117.491 41.9292 117.491C41.9297 117.492 41.9301 117.492 41.9305 117.492C41.931 117.492 41.9314 117.492 41.9318 117.493C41.9323 117.493 41.9327 117.493 41.9331 117.493C41.9336 117.493 41.934 117.494 41.9344 117.494C41.9349 117.494 41.9353 117.494 41.9357 117.494C41.9362 117.494 41.9366 117.495 41.937 117.495C41.9375 117.495 41.9379 117.495 41.9383 117.495C41.9388 117.496 41.9392 117.496 41.9396 117.496C41.94 117.496 41.9405 117.496 41.9409 117.497C41.9413 117.497 41.9418 117.497 41.9422 117.497C41.9426 117.497 41.9431 117.497 41.9435 117.498C41.9439 117.498 41.9443 117.498 41.9448 117.498C41.9452 117.498 41.9456 117.499 41.946 117.499C41.9465 117.499 41.9469 117.499 41.9473 117.499C41.9478 117.499 41.9482 117.5 41.9486 117.5C41.949 117.5 41.9495 117.5 41.9499 117.5C41.9503 117.501 41.9507 117.501 41.9512 117.501C41.9516 117.501 41.952 117.501 41.9524 117.502C41.9528 117.502 41.9533 117.502 41.9537 117.502C41.9541 117.502 41.9545 117.502 41.955 117.503C41.9554 117.503 41.9558 117.503 41.9562 117.503C41.9566 117.503 41.9571 117.504 41.9575 117.504C41.9579 117.504 41.9583 117.504 41.9587 117.504C41.9592 117.504 41.9596 117.505 41.96 117.505C41.9604 117.505 41.9608 117.505 41.9613 117.505C41.9617 117.506 41.9621 117.506 41.9625 117.506C41.9629 117.506 41.9634 117.506 41.9638 117.506C41.9642 117.507 41.9646 117.507 41.965 117.507C41.9654 117.507 41.9659 117.507 41.9663 117.508C41.9667 117.508 41.9671 117.508 41.9675 117.508C41.9679 117.508 41.9683 117.508 41.9688 117.509C41.9692 117.509 41.9696 117.509 41.97 117.509C41.9704 117.509 41.9708 117.509 41.9712 117.51C41.9717 117.51 41.9721 117.51 41.9725 117.51C41.9729 117.51 41.9733 117.511 41.9737 117.511C41.9741 117.511 41.9745 117.511 41.9749 117.511C41.9754 117.511 41.9758 117.512 41.9762 117.512C41.9766 117.512 41.977 117.512 41.9774 117.512C41.9778 117.512 41.9782 117.513 41.9786 117.513C41.979 117.513 41.9794 117.513 41.9799 117.513C41.9803 117.514 41.9807 117.514 41.9811 117.514C41.9815 117.514 41.9819 117.514 41.9823 117.514C41.9827 117.515 41.9831 117.515 41.9835 117.515C41.9839 117.515 41.9843 117.515 41.9847 117.515C41.9851 117.516 41.9855 117.516 41.9859 117.516C41.9864 117.516 41.9868 117.516 41.9872 117.517C41.9876 117.517 41.988 117.517 41.9884 117.517C41.9888 117.517 41.9892 117.517 41.9896 117.518C41.99 117.518 41.9904 117.518 41.9908 117.518C41.9912 117.518 41.9916 117.518 41.992 117.519C41.9924 117.519 41.9928 117.519 41.9932 117.519C41.9936 117.519 41.994 117.519 41.9944 117.52C41.9948 117.52 41.9952 117.52 41.9956 117.52C41.996 117.52 41.9964 117.521 41.9968 117.521C41.9972 117.521 41.9976 117.521 41.998 117.521C41.9984 117.521 41.9988 117.522 41.9992 117.522C41.9996 117.522 42 117.522 42.0004 117.522C42.0008 117.522 42.0012 117.523 42.0015 117.523C42.0019 117.523 42.0023 117.523 42.0027 117.523C42.0031 117.523 42.0035 117.524 42.0039 117.524C42.0043 117.524 42.0047 117.524 42.0051 117.524C42.0055 117.524 42.0059 117.525 42.0063 117.525C42.0067 117.525 42.0071 117.525 42.0075 117.525C42.0078 117.525 42.0082 117.526 42.0086 117.526C42.009 117.526 42.0094 117.526 42.0098 117.526C42.0102 117.526 42.0106 117.527 42.011 117.527C42.0114 117.527 42.0117 117.527 42.0121 117.527C42.0125 117.528 42.0129 117.528 42.0133 117.528C42.0137 117.528 42.0141 117.528 42.0145 117.528C42.0149 117.529 42.0152 117.529 42.0156 117.529C42.016 117.529 42.0164 117.529 42.0168 117.529C42.0172 117.53 42.0176 117.53 42.0179 117.53C42.0183 117.53 42.0187 117.53 42.0191 117.53C42.0195 117.531 42.0199 117.531 42.0203 117.531C42.0206 117.531 42.021 117.531 42.0214 117.531C42.0218 117.532 42.0222 117.532 42.0226 117.532C42.0229 117.532 42.0233 117.532 42.0237 117.532C42.0241 117.533 42.0245 117.533 42.0248 117.533C42.0252 117.533 42.0256 117.533 42.026 117.533C42.0264 117.533 42.0268 117.534 42.0271 117.534C42.0275 117.534 42.0279 117.534 42.0283 117.534C42.0286 117.534 42.029 117.535 42.0294 117.535C42.0298 117.535 42.0302 117.535 42.0305 117.535C42.0309 117.535 42.0313 117.536 42.0317 117.536C42.0321 117.536 42.0324 117.536 42.0328 117.536C42.0332 117.536 42.0336 117.537 42.0339 117.537C42.0343 117.537 42.0347 117.537 42.0351 117.537C42.0354 117.537 42.0358 117.538 42.0362 117.538C42.0366 117.538 42.0369 117.538 42.0373 117.538C42.0377 117.538 42.0381 117.539 42.0384 117.539C42.0388 117.539 42.0392 117.539 42.0395 117.539C42.0399 117.539 42.0403 117.54 42.0407 117.54C42.041 117.54 42.0414 117.54 42.0418 117.54C42.0421 117.54 42.0425 117.54 42.0429 117.541C42.0433 117.541 42.0436 117.541 42.044 117.541C42.0444 117.541 42.0447 117.541 42.0451 117.542C42.0455 117.542 42.0458 117.542 42.0462 117.542C42.0466 117.542 42.0469 117.542 42.0473 117.543C42.0477 117.543 42.048 117.543 42.0484 117.543C42.0488 117.543 42.0491 117.543 42.0495 117.544C42.0499 117.544 42.0502 117.544 42.0506 117.544C42.051 117.544 42.0513 117.544 42.0517 117.544C42.0521 117.545 42.0524 117.545 42.0528 117.545C42.0532 117.545 42.0535 117.545 42.0539 117.545C42.0542 117.546 42.0546 117.546 42.055 117.546C42.0553 117.546 42.0557 117.546 42.0561 117.546C42.0564 117.546 42.0568 117.547 42.0571 117.547C42.0575 117.547 42.0579 117.547 42.0582 117.547C42.0586 117.547 42.0589 117.548 42.0593 117.548C42.0597 117.548 42.06 117.548 42.0604 117.548C42.0607 117.548 42.0611 117.549 42.0615 117.549C42.0618 117.549 42.0622 117.549 42.0625 117.549C42.0629 117.549 42.0632 117.549 42.0636 117.55C42.064 117.55 42.0643 117.55 42.0647 117.55C42.065 117.55 42.0654 117.55 42.0657 117.551C42.0661 117.551 42.0665 117.551 42.0668 117.551C42.0672 117.551 42.0675 117.551 42.0679 117.551C42.0682 117.552 42.0686 117.552 42.0689 117.552C42.0693 117.552 42.0696 117.552 42.07 117.552C42.0703 117.553 42.0707 117.553 42.071 117.553C42.0714 117.553 42.0717 117.553 42.0721 117.553C42.0725 117.553 42.0728 117.554 42.0732 117.554C42.0735 117.554 42.0739 117.554 42.0742 117.554C42.0746 117.554 42.0749 117.554 42.0753 117.555C42.0756 117.555 42.0759 117.555 42.0763 117.555C42.0766 117.555 42.077 117.555 42.0773 117.556C42.0777 117.556 42.078 117.556 42.0784 117.556C42.0787 117.556 42.0791 117.556 42.0794 117.556C42.0798 117.557 42.0801 117.557 42.0805 117.557C42.0808 117.557 42.0812 117.557 42.0815 117.557C42.0818 117.557 42.0822 117.558 42.0825 117.558C42.0829 117.558 42.0832 117.558 42.0836 117.558C42.0839 117.558 42.0843 117.559 42.0846 117.559C42.0849 117.559 42.0853 117.559 42.0856 117.559C42.086 117.559 42.0863 117.559 42.0866 117.56C42.087 117.56 42.0873 117.56 42.0877 117.56C42.088 117.56 42.0884 117.56 42.0887 117.56C42.089 117.561 42.0894 117.561 42.0897 117.561C42.09 117.561 42.0904 117.561 42.0907 117.561C42.0911 117.561 42.0914 117.562 42.0917 117.562C42.0921 117.562 42.0924 117.562 42.0928 117.562C42.0931 117.562 42.0934 117.563 42.0938 117.563C42.0941 117.563 42.0944 117.563 42.0948 117.563C42.0951 117.563 42.0954 117.563 42.0958 117.564C42.0961 117.564 42.0964 117.564 42.0968 117.564C42.0971 117.564 42.0975 117.564 42.0978 117.564C42.0981 117.565 42.0985 117.565 42.0988 117.565C42.0991 117.565 42.0995 117.565 42.0998 117.565C42.1001 117.565 42.1004 117.566 42.1008 117.566C42.1011 117.566 42.1014 117.566 42.1018 117.566C42.1021 117.566 42.1024 117.566 42.1028 117.567C42.1031 117.567 42.1034 117.567 42.1038 117.567C42.1041 117.567 42.1044 117.567 42.1047 117.567C42.1051 117.568 42.1054 117.568 42.1057 117.568C42.1061 117.568 42.1064 117.568 42.1067 117.568C42.107 117.568 42.1074 117.569 42.1077 117.569C42.108 117.569 42.1083 117.569 42.1087 117.569C42.109 117.569 42.1093 117.569 42.1096 117.57C42.11 117.57 42.1103 117.57 42.1106 117.57C42.1109 117.57 42.1113 117.57 42.1116 117.57C42.1119 117.571 42.1122 117.571 42.1126 117.571C42.1129 117.571 42.1132 117.571 42.1135 117.571C42.1139 117.571 42.1142 117.571 42.1145 117.572C42.1148 117.572 42.1151 117.572 42.1155 117.572C42.1158 117.572 42.1161 117.572 42.1164 117.572C42.1168 117.573 42.1171 117.573 42.1174 117.573C42.1177 117.573 42.118 117.573 42.1183 117.573C42.1187 117.573 42.119 117.574 42.1193 117.574C42.1196 117.574 42.1199 117.574 42.1203 117.574C42.1206 117.574 42.1209 117.574 42.1212 117.575C42.1215 117.575 42.1218 117.575 42.1222 117.575C42.1225 117.575 42.1228 117.575 42.1231 117.575C42.1234 117.575 42.1237 117.576 42.1241 117.576C42.1244 117.576 42.1247 117.576 42.125 117.576C42.1253 117.576 42.1256 117.576 42.1259 117.577C42.1263 117.577 42.1266 117.577 42.1269 117.577C42.1272 117.577 42.1275 117.577 42.1278 117.577C42.1281 117.578 42.1284 117.578 42.1287 117.578C42.1291 117.578 42.1294 117.578 42.1297 117.578C42.13 117.578 42.1303 117.578 42.1306 117.579C42.1309 117.579 42.1312 117.579 42.1315 117.579C42.1319 117.579 42.1322 117.579 42.1325 117.579C42.1328 117.58 42.1331 117.58 42.1334 117.58C42.1337 117.58 42.134 117.58 42.1343 117.58C42.1346 117.58 42.1349 117.58 42.1352 117.581C42.1355 117.581 42.1358 117.581 42.1362 117.581C42.1365 117.581 42.1368 117.581 42.1371 117.581C42.1374 117.582 42.1377 117.582 42.138 117.582C42.1383 117.582 42.1386 117.582 42.1389 117.582C42.1392 117.582 42.1395 117.582 42.1398 117.583C42.1401 117.583 42.1404 117.583 42.1407 117.583C42.141 117.583 42.1413 117.583 42.1416 117.583C42.1419 117.583 42.1422 117.584 42.1425 117.584C42.1428 117.584 42.1431 117.584 42.1434 117.584C42.1437 117.584 42.144 117.584 42.1443 117.585C42.1446 117.585 42.1449 117.585 42.1452 117.585C42.1455 117.585 42.1458 117.585 42.1461 117.585C42.1464 117.585 42.1467 117.586 42.147 117.586C42.1473 117.586 42.1476 117.586 42.1479 117.586C42.1482 117.586 42.1485 117.586 42.1488 117.586C42.1491 117.587 42.1494 117.587 42.1497 117.587C42.15 117.587 42.1503 117.587 42.1506 117.587C42.1509 117.587 42.1511 117.587 42.1514 117.588C42.1517 117.588 42.152 117.588 42.1523 117.588C42.1526 117.588 42.1529 117.588 42.1532 117.588C42.1535 117.588 42.1538 117.589 42.1541 117.589C42.1544 117.589 42.1547 117.589 42.155 117.589C42.1552 117.589 42.1555 117.589 42.1558 117.589C42.1561 117.59 42.1564 117.59 42.1567 117.59C42.157 117.59 42.1573 117.59 42.1576 117.59C42.1579 117.59 42.1581 117.59 42.1584 117.591C42.1587 117.591 42.159 117.591 42.1593 117.591C42.1596 117.591 42.1599 117.591 42.1602 117.591L43.7481 113.92ZM43.0322 113.61C42.9464 113.573 42.9634 113.573 43.0308 113.619C43.067 113.645 43.1482 113.704 43.243 113.804C43.3347 113.901 43.485 114.084 43.5946 114.361L39.8758 115.834C40.118 116.446 40.5714 116.782 40.7536 116.908C40.9887 117.071 41.2364 117.192 41.4443 117.282L43.0322 113.61ZM43.5946 114.361C43.7549 114.766 43.7176 115.099 43.6974 115.222C43.6752 115.357 43.6419 115.425 43.6512 115.404L39.98 113.816C39.894 114.014 39.7997 114.274 39.7506 114.572C39.7036 114.857 39.6738 115.324 39.8758 115.834L43.5946 114.361ZM43.6256 115.46L44.4429 113.722L40.823 112.02L40.0057 113.759L43.6256 115.46ZM44.4562 113.693L47.6867 106.527L44.0401 104.883L40.8096 112.049L44.4562 113.693ZM47.6914 106.516L52.8037 94.9992L49.1477 93.3764L44.0354 104.893L47.6914 106.516ZM52.8113 94.9818C53.2697 93.9221 54.4051 91.4941 56.2399 87.6563L52.6311 85.931C50.8056 89.7493 49.6345 92.2508 49.1401 93.3938L52.8113 94.9818ZM56.2379 87.6604C56.6736 86.7543 57.3734 85.2879 58.3362 83.2635L54.7239 81.5455C53.7613 83.5694 53.0647 85.0292 52.633 85.9269L56.2379 87.6604ZM58.3367 83.2624C58.8302 82.2232 59.2191 81.3766 59.4986 80.7304C59.7458 80.1589 59.9898 79.563 60.0817 79.1335L56.1703 78.2963C56.1768 78.2656 56.1121 78.4842 55.8273 79.1425C55.5748 79.7262 55.2085 80.5249 54.7234 81.5466L58.3367 83.2624ZM59.9973 79.4207L60.4425 78.2404L56.6998 76.8288L56.2547 78.0091L59.9973 79.4207ZM60.4068 78.3286C60.4717 78.1785 60.5184 78.1035 60.5358 78.0787C60.5546 78.0518 60.5176 78.1141 60.4031 78.1943C60.2758 78.2834 60.0766 78.3765 59.8235 78.3989C59.5752 78.4209 59.3832 78.3653 59.2776 78.3196L60.8655 74.6483C59.9717 74.2617 58.9602 74.3215 58.1087 74.9178C57.4104 75.4068 56.9976 76.1347 56.7355 76.7406L60.4068 78.3286ZM59.2283 78.2974L61.242 79.2338L62.9286 75.6068L60.9148 74.6704L59.2283 78.2974ZM61.2913 79.256C61.1698 79.2034 60.9848 79.0978 60.8096 78.9004C60.6267 78.6943 60.5111 78.4515 60.4597 78.2126C60.3686 77.7893 60.5075 77.5416 60.4669 77.6355L64.1381 79.2235C64.3198 78.8034 64.5337 78.1306 64.3702 77.3709C64.1746 76.4622 63.5453 75.8728 62.8793 75.5847L61.2913 79.256ZM60.4669 77.6355C60.4369 77.7048 60.3736 77.8303 60.2567 78.0209L63.6665 80.1121C63.8454 79.8205 64.0093 79.5212 64.1381 79.2235L60.4669 77.6355ZM60.2815 77.9815C60.0905 78.2772 59.9247 78.5867 59.7851 78.9095L63.4563 80.4975C63.5073 80.3797 63.5687 80.2646 63.6417 80.1515L60.2815 77.9815ZM59.9092 78.6688C59.3773 79.5486 58.3359 81.7044 56.836 84.9731L60.4715 86.6414C62.0085 83.2918 62.9451 81.3785 63.3322 80.7382L59.9092 78.6688ZM56.8181 85.0132C56.3906 86.0016 55.2073 88.5399 53.2444 92.6739L56.8577 94.3897C58.8091 90.2801 60.0276 87.6688 60.4894 86.6012L56.8181 85.0132ZM53.2455 92.6716C51.3591 96.6313 50.2024 99.0991 49.8033 100.022L53.4746 101.61C53.8377 100.77 54.9557 98.3821 56.8566 94.392L53.2455 92.6716ZM49.8033 100.022C48.8741 102.17 47.7374 104.899 46.3946 108.206L50.1006 109.711C51.4375 106.419 52.5617 103.72 53.4746 101.61L49.8033 100.022ZM46.3944 108.207C45.0894 111.422 44.2817 113.492 44.0509 114.262L47.8826 115.41C48.0449 114.869 48.7577 113.02 50.1008 109.711L46.3944 108.207ZM44.0256 114.355C44.0003 114.457 43.9488 114.615 43.8527 114.837L47.524 116.425C47.682 116.06 47.8161 115.688 47.908 115.318L44.0256 114.355ZM43.8527 114.837C43.8529 114.837 43.8603 114.819 43.8777 114.79C43.8949 114.761 43.9257 114.713 43.9741 114.656C44.0715 114.54 44.2565 114.366 44.5484 114.251L46.0215 117.97C46.9105 117.617 47.3323 116.868 47.524 116.425L43.8527 114.837ZM44.1981 114.431C44.327 114.348 44.4295 114.312 44.4703 114.299C44.5131 114.286 44.525 114.287 44.493 114.291L45.0202 118.256C45.3845 118.208 45.8951 118.098 46.3719 117.789L44.1981 114.431ZM44.399 114.306C44.5171 114.285 44.6085 114.282 44.6601 114.283C44.7133 114.283 44.7469 114.288 44.7556 114.289C44.7693 114.291 44.7371 114.287 44.6457 114.261C44.4612 114.208 44.169 114.102 43.7481 113.92L42.1602 117.591C42.6571 117.806 43.1242 117.985 43.5406 118.105C43.8691 118.2 44.4805 118.357 45.1142 118.242L44.399 114.306Z" fill="#0C3C87"/>
<path d="M66.21 66.6C66.21 71.8433 64.01 75.3267 59.61 77.05C55.1733 78.7733 50.425 79.635 45.365 79.635C40.4883 79.635 36.5833 78.975 33.65 77.655C30.7167 76.2983 28.6633 74.6667 27.49 72.76C26.3167 70.8167 25.73 68.8917 25.73 66.985C25.73 63.3183 26.7933 60.5683 28.92 58.735C31.01 56.9017 33.5033 55.7283 36.4 55.215C39.26 54.7017 42.505 54.445 46.135 54.445C49.0683 54.445 52.0933 54.885 55.21 55.765C58.29 56.645 60.8933 58.0017 63.02 59.835C65.1467 61.6683 66.21 63.9233 66.21 66.6ZM52.24 67.04C52.24 66.05 51.69 65.3167 50.59 64.84C49.49 64.3633 48.17 64.125 46.63 64.125C45.1633 64.125 43.88 64.3633 42.78 64.84C41.68 65.28 41.13 65.885 41.13 66.655C41.13 67.5717 41.7717 68.2683 43.055 68.745C44.3017 69.185 45.6583 69.405 47.125 69.405C48.6283 69.405 49.8567 69.2583 50.81 68.965C51.7633 68.6717 52.24 68.03 52.24 67.04Z" fill="#0C3C87"/>
<ellipse cx="48" cy="66.5" rx="8" ry="4.5" fill="#0C3C87"/>
</svg>
