<svg width="93" height="93" viewBox="0 0 93 93" fill="none" xmlns="http://www.w3.org/2000/svg">
<circle cx="46.5" cy="46.5" r="46.5" fill="#EAF1F2"/>
<path d="M42.0608 76.3598C41.9096 76.4121 41.6639 76.4972 41.3237 76.6149C41.0213 76.7196 40.8193 76.7472 40.7175 76.6978C40.6157 76.6484 40.5256 76.5103 40.4471 76.2835L39.8757 74.4495L37.4177 66.9827L33.4092 55.0368C33.0166 53.9028 32.2024 51.3063 30.9665 47.2473C30.6772 46.2892 30.2039 44.7387 29.5467 42.5958C28.8765 40.4151 28.4381 39.1488 28.2316 38.797L27.7627 37.6259C27.4225 36.6432 27.5548 36.0471 28.1596 35.8377L30.2771 35.1682C30.6551 35.0373 30.9356 35.2365 31.1188 35.7657C31.1843 35.9547 31.2439 36.188 31.2977 36.4657C31.3384 36.7056 31.398 36.9389 31.4765 37.1657C31.651 38.0365 32.2959 40.2049 33.411 43.6708C33.7774 44.7292 34.6309 47.4391 35.9715 51.8005C37.2597 56.0107 38.0608 58.5694 38.3749 59.4766C39.1338 61.669 40.1334 64.4341 41.3736 67.772C42.6008 71.0722 43.3633 73.0305 43.6614 73.6469C43.7777 73.8606 43.8882 74.1186 43.9929 74.421C44.0845 74.6856 44.0932 74.8943 44.0191 75.0469C43.9827 75.1865 43.8897 75.3457 43.74 75.5245C43.5655 75.7542 43.0058 76.0326 42.0608 76.3598Z" fill="#0C3C87"/>
<path d="M42.9551 77.7557C42.8083 77.6922 42.5696 77.589 42.2392 77.4461C41.9455 77.319 41.7778 77.2029 41.7362 77.0977C41.6945 76.9925 41.7213 76.8298 41.8166 76.6095L42.6339 74.8711L45.8644 67.7047L50.9767 56.1878C51.4531 55.0864 52.6063 52.6217 54.4364 48.7937C54.8701 47.8917 55.5683 46.4287 56.531 44.4045C57.5096 42.3436 58.0416 41.1138 58.127 40.7149L58.5721 39.5346C58.985 38.5801 59.4851 38.2298 60.0725 38.4839L62.0863 39.4203C62.4534 39.5791 62.5258 39.9155 62.3035 40.4295C62.2241 40.613 62.1105 40.8254 61.9626 41.0665C61.8306 41.2709 61.717 41.4832 61.6217 41.7035C61.1622 42.4636 60.1732 44.4981 58.6547 47.8072C58.2101 48.8352 57.0092 51.41 55.052 55.5318C53.1584 59.5067 52.021 61.9347 51.6399 62.8158C50.7189 64.9451 49.5884 67.6594 48.2485 70.9586C46.9246 74.2211 46.1643 76.1803 45.9678 76.8362C45.9092 77.0723 45.8164 77.3372 45.6894 77.6309C45.5782 77.8879 45.4437 78.0477 45.2859 78.1102C45.1649 78.1886 44.9887 78.2431 44.7575 78.2739C44.4737 78.3254 43.8729 78.1527 42.9551 77.7557Z" fill="#0C3C87"/>
<path d="M41.7362 77.0977L43.5956 76.3612L43.5956 76.3612L41.7362 77.0977ZM41.8166 76.6095L40.0066 75.7586L39.9933 75.7869L39.9809 75.8155L41.8166 76.6095ZM42.6339 74.8711L44.4438 75.7221L44.4506 75.7076L44.4572 75.6931L42.6339 74.8711ZM45.8644 67.7047L47.6877 68.5266L47.6924 68.5161L45.8644 67.7047ZM50.9767 56.1878L52.8047 56.9992L52.8085 56.9905L52.8123 56.9818L50.9767 56.1878ZM54.4364 48.7937L52.634 47.9269L52.632 47.931L54.4364 48.7937ZM56.531 44.4045L58.3372 45.2635L58.3377 45.2624L56.531 44.4045ZM58.127 40.7149L56.2556 40.0091L56.2027 40.1495L56.1713 40.2963L58.127 40.7149ZM58.5721 39.5346L56.7365 38.7406L56.7176 38.7843L56.7008 38.8288L58.5721 39.5346ZM60.0725 38.4839L60.9158 36.6704L60.8913 36.659L60.8665 36.6483L60.0725 38.4839ZM62.0863 39.4203L61.243 41.2338L61.2675 41.2452L61.2923 41.256L62.0863 39.4203ZM61.9626 41.0665L63.6427 42.1515L63.6553 42.1319L63.6675 42.1121L61.9626 41.0665ZM61.6217 41.7035L63.3332 42.7382L63.4034 42.6221L63.4573 42.4975L61.6217 41.7035ZM58.6547 47.8072L56.8369 46.9731L56.8278 46.9931L56.8191 47.0132L58.6547 47.8072ZM55.052 55.5318L56.8576 56.392L56.8587 56.3897L55.052 55.5318ZM48.2485 70.9586L46.3955 70.2061L46.3953 70.2065L48.2485 70.9586ZM45.9678 76.8362L44.0519 76.2621L44.0381 76.3081L44.0266 76.3547L45.9678 76.8362ZM45.2859 78.1102L44.5494 76.2507L44.3653 76.3237L44.199 76.4313L45.2859 78.1102ZM44.7575 78.2739L44.494 76.2913L44.4468 76.2976L44.4 76.3061L44.7575 78.2739ZM43.7491 75.9201C43.7488 75.92 43.7485 75.9198 43.7482 75.9197C43.748 75.9196 43.7477 75.9195 43.7474 75.9193C43.7471 75.9192 43.7468 75.9191 43.7465 75.919C43.7462 75.9188 43.7459 75.9187 43.7457 75.9186C43.7454 75.9185 43.7451 75.9183 43.7448 75.9182C43.7445 75.9181 43.7442 75.918 43.7439 75.9178C43.7436 75.9177 43.7433 75.9176 43.743 75.9175C43.7427 75.9173 43.7425 75.9172 43.7422 75.9171C43.7419 75.9169 43.7416 75.9168 43.7413 75.9167C43.741 75.9166 43.7407 75.9164 43.7404 75.9163C43.7401 75.9162 43.7398 75.9161 43.7395 75.9159C43.7392 75.9158 43.7389 75.9157 43.7386 75.9156C43.7383 75.9154 43.738 75.9153 43.7377 75.9152C43.7374 75.915 43.7372 75.9149 43.7369 75.9148C43.7366 75.9147 43.7363 75.9145 43.736 75.9144C43.7357 75.9143 43.7354 75.9141 43.7351 75.914C43.7348 75.9139 43.7345 75.9138 43.7342 75.9136C43.7339 75.9135 43.7336 75.9134 43.7333 75.9132C43.733 75.9131 43.7327 75.913 43.7324 75.9128C43.7321 75.9127 43.7318 75.9126 43.7315 75.9125C43.7312 75.9123 43.7309 75.9122 43.7306 75.9121C43.7303 75.9119 43.73 75.9118 43.7297 75.9117C43.7294 75.9115 43.7291 75.9114 43.7288 75.9113C43.7285 75.9112 43.7282 75.911 43.7279 75.9109C43.7275 75.9108 43.7272 75.9106 43.7269 75.9105C43.7266 75.9104 43.7263 75.9102 43.726 75.9101C43.7257 75.91 43.7254 75.9098 43.7251 75.9097C43.7248 75.9096 43.7245 75.9094 43.7242 75.9093C43.7239 75.9092 43.7236 75.909 43.7233 75.9089C43.723 75.9088 43.7227 75.9086 43.7223 75.9085C43.722 75.9084 43.7217 75.9082 43.7214 75.9081C43.7211 75.908 43.7208 75.9078 43.7205 75.9077C43.7202 75.9076 43.7199 75.9074 43.7196 75.9073C43.7193 75.9072 43.7189 75.907 43.7186 75.9069C43.7183 75.9068 43.718 75.9066 43.7177 75.9065C43.7174 75.9064 43.7171 75.9062 43.7168 75.9061C43.7165 75.906 43.7161 75.9058 43.7158 75.9057C43.7155 75.9056 43.7152 75.9054 43.7149 75.9053C43.7146 75.9051 43.7143 75.905 43.714 75.9049C43.7136 75.9047 43.7133 75.9046 43.713 75.9045C43.7127 75.9043 43.7124 75.9042 43.7121 75.9041C43.7117 75.9039 43.7114 75.9038 43.7111 75.9036C43.7108 75.9035 43.7105 75.9034 43.7102 75.9032C43.7099 75.9031 43.7095 75.903 43.7092 75.9028C43.7089 75.9027 43.7086 75.9026 43.7083 75.9024C43.7079 75.9023 43.7076 75.9021 43.7073 75.902C43.707 75.9019 43.7067 75.9017 43.7063 75.9016C43.706 75.9014 43.7057 75.9013 43.7054 75.9012C43.7051 75.901 43.7047 75.9009 43.7044 75.9008C43.7041 75.9006 43.7038 75.9005 43.7035 75.9003C43.7031 75.9002 43.7028 75.9001 43.7025 75.8999C43.7022 75.8998 43.7018 75.8996 43.7015 75.8995C43.7012 75.8994 43.7009 75.8992 43.7006 75.8991C43.7002 75.8989 43.6999 75.8988 43.6996 75.8987C43.6993 75.8985 43.6989 75.8984 43.6986 75.8982C43.6983 75.8981 43.698 75.898 43.6976 75.8978C43.6973 75.8977 43.697 75.8975 43.6967 75.8974C43.6963 75.8973 43.696 75.8971 43.6957 75.897C43.6953 75.8968 43.695 75.8967 43.6947 75.8965C43.6944 75.8964 43.694 75.8963 43.6937 75.8961C43.6934 75.896 43.693 75.8958 43.6927 75.8957C43.6924 75.8955 43.6921 75.8954 43.6917 75.8953C43.6914 75.8951 43.6911 75.895 43.6907 75.8948C43.6904 75.8947 43.6901 75.8945 43.6897 75.8944C43.6894 75.8943 43.6891 75.8941 43.6887 75.894C43.6884 75.8938 43.6881 75.8937 43.6877 75.8935C43.6874 75.8934 43.6871 75.8933 43.6867 75.8931C43.6864 75.893 43.6861 75.8928 43.6857 75.8927C43.6854 75.8925 43.6851 75.8924 43.6847 75.8922C43.6844 75.8921 43.6841 75.8919 43.6837 75.8918C43.6834 75.8917 43.6831 75.8915 43.6827 75.8914C43.6824 75.8912 43.682 75.8911 43.6817 75.8909C43.6814 75.8908 43.681 75.8906 43.6807 75.8905C43.6804 75.8903 43.68 75.8902 43.6797 75.8901C43.6793 75.8899 43.679 75.8898 43.6787 75.8896C43.6783 75.8895 43.678 75.8893 43.6776 75.8892C43.6773 75.889 43.677 75.8889 43.6766 75.8887C43.6763 75.8886 43.6759 75.8884 43.6756 75.8883C43.6753 75.8881 43.6749 75.888 43.6746 75.8878C43.6742 75.8877 43.6739 75.8875 43.6735 75.8874C43.6732 75.8873 43.6729 75.8871 43.6725 75.887C43.6722 75.8868 43.6718 75.8867 43.6715 75.8865C43.6711 75.8864 43.6708 75.8862 43.6705 75.8861C43.6701 75.8859 43.6698 75.8858 43.6694 75.8856C43.6691 75.8855 43.6687 75.8853 43.6684 75.8852C43.668 75.885 43.6677 75.8849 43.6673 75.8847C43.667 75.8846 43.6666 75.8844 43.6663 75.8843C43.666 75.8841 43.6656 75.884 43.6653 75.8838C43.6649 75.8837 43.6646 75.8835 43.6642 75.8834C43.6639 75.8832 43.6635 75.8831 43.6632 75.8829C43.6628 75.8828 43.6625 75.8826 43.6621 75.8825C43.6618 75.8823 43.6614 75.8821 43.6611 75.882C43.6607 75.8818 43.6604 75.8817 43.66 75.8815C43.6596 75.8814 43.6593 75.8812 43.6589 75.8811C43.6586 75.8809 43.6582 75.8808 43.6579 75.8806C43.6575 75.8805 43.6572 75.8803 43.6568 75.8802C43.6565 75.88 43.6561 75.8799 43.6558 75.8797C43.6554 75.8796 43.6551 75.8794 43.6547 75.8792C43.6543 75.8791 43.654 75.8789 43.6536 75.8788C43.6533 75.8786 43.6529 75.8785 43.6526 75.8783C43.6522 75.8782 43.6518 75.878 43.6515 75.8779C43.6511 75.8777 43.6508 75.8775 43.6504 75.8774C43.6501 75.8772 43.6497 75.8771 43.6493 75.8769C43.649 75.8768 43.6486 75.8766 43.6483 75.8765C43.6479 75.8763 43.6475 75.8761 43.6472 75.876C43.6468 75.8758 43.6465 75.8757 43.6461 75.8755C43.6457 75.8754 43.6454 75.8752 43.645 75.8751C43.6447 75.8749 43.6443 75.8747 43.6439 75.8746C43.6436 75.8744 43.6432 75.8743 43.6428 75.8741C43.6425 75.874 43.6421 75.8738 43.6417 75.8736C43.6414 75.8735 43.641 75.8733 43.6407 75.8732C43.6403 75.873 43.6399 75.8729 43.6396 75.8727C43.6392 75.8725 43.6388 75.8724 43.6385 75.8722C43.6381 75.8721 43.6377 75.8719 43.6374 75.8717C43.637 75.8716 43.6366 75.8714 43.6363 75.8713C43.6359 75.8711 43.6355 75.871 43.6352 75.8708C43.6348 75.8706 43.6344 75.8705 43.6341 75.8703C43.6337 75.8702 43.6333 75.87 43.6329 75.8698C43.6326 75.8697 43.6322 75.8695 43.6318 75.8694C43.6315 75.8692 43.6311 75.869 43.6307 75.8689C43.6304 75.8687 43.63 75.8686 43.6296 75.8684C43.6292 75.8682 43.6289 75.8681 43.6285 75.8679C43.6281 75.8678 43.6278 75.8676 43.6274 75.8674C43.627 75.8673 43.6266 75.8671 43.6263 75.8669C43.6259 75.8668 43.6255 75.8666 43.6251 75.8665C43.6248 75.8663 43.6244 75.8661 43.624 75.866C43.6236 75.8658 43.6233 75.8656 43.6229 75.8655C43.6225 75.8653 43.6221 75.8652 43.6218 75.865C43.6214 75.8648 43.621 75.8647 43.6206 75.8645C43.6203 75.8643 43.6199 75.8642 43.6195 75.864C43.6191 75.8639 43.6187 75.8637 43.6184 75.8635C43.618 75.8634 43.6176 75.8632 43.6172 75.863C43.6168 75.8629 43.6165 75.8627 43.6161 75.8625C43.6157 75.8624 43.6153 75.8622 43.6149 75.8621C43.6146 75.8619 43.6142 75.8617 43.6138 75.8616C43.6134 75.8614 43.613 75.8612 43.6127 75.8611C43.6123 75.8609 43.6119 75.8607 43.6115 75.8606C43.6111 75.8604 43.6107 75.8602 43.6104 75.8601C43.61 75.8599 43.6096 75.8597 43.6092 75.8596C43.6088 75.8594 43.6084 75.8592 43.6081 75.8591C43.6077 75.8589 43.6073 75.8587 43.6069 75.8586C43.6065 75.8584 43.6061 75.8582 43.6057 75.8581C43.6054 75.8579 43.605 75.8577 43.6046 75.8576C43.6042 75.8574 43.6038 75.8572 43.6034 75.8571C43.603 75.8569 43.6026 75.8567 43.6023 75.8566C43.6019 75.8564 43.6015 75.8562 43.6011 75.8561C43.6007 75.8559 43.6003 75.8557 43.5999 75.8556C43.5995 75.8554 43.5991 75.8552 43.5988 75.855C43.5984 75.8549 43.598 75.8547 43.5976 75.8545C43.5972 75.8544 43.5968 75.8542 43.5964 75.854C43.596 75.8539 43.5956 75.8537 43.5952 75.8535C43.5948 75.8534 43.5944 75.8532 43.5941 75.853C43.5937 75.8528 43.5933 75.8527 43.5929 75.8525C43.5925 75.8523 43.5921 75.8522 43.5917 75.852C43.5913 75.8518 43.5909 75.8516 43.5905 75.8515C43.5901 75.8513 43.5897 75.8511 43.5893 75.851C43.5889 75.8508 43.5885 75.8506 43.5881 75.8505C43.5877 75.8503 43.5873 75.8501 43.5869 75.8499C43.5865 75.8498 43.5861 75.8496 43.5857 75.8494C43.5853 75.8492 43.5849 75.8491 43.5845 75.8489C43.5841 75.8487 43.5837 75.8486 43.5833 75.8484C43.5829 75.8482 43.5825 75.848 43.5821 75.8479C43.5817 75.8477 43.5813 75.8475 43.5809 75.8473C43.5805 75.8472 43.5801 75.847 43.5797 75.8468C43.5793 75.8467 43.5789 75.8465 43.5785 75.8463C43.5781 75.8461 43.5777 75.846 43.5773 75.8458C43.5769 75.8456 43.5765 75.8454 43.5761 75.8453C43.5757 75.8451 43.5753 75.8449 43.5749 75.8447C43.5745 75.8446 43.5741 75.8444 43.5737 75.8442C43.5733 75.844 43.5729 75.8439 43.5725 75.8437C43.5721 75.8435 43.5717 75.8433 43.5713 75.8432C43.5709 75.843 43.5704 75.8428 43.57 75.8426C43.5696 75.8424 43.5692 75.8423 43.5688 75.8421C43.5684 75.8419 43.568 75.8417 43.5676 75.8416C43.5672 75.8414 43.5668 75.8412 43.5664 75.841C43.566 75.8409 43.5655 75.8407 43.5651 75.8405C43.5647 75.8403 43.5643 75.8401 43.5639 75.84C43.5635 75.8398 43.5631 75.8396 43.5627 75.8394C43.5623 75.8393 43.5618 75.8391 43.5614 75.8389C43.561 75.8387 43.5606 75.8385 43.5602 75.8384C43.5598 75.8382 43.5594 75.838 43.559 75.8378C43.5585 75.8377 43.5581 75.8375 43.5577 75.8373C43.5573 75.8371 43.5569 75.8369 43.5565 75.8368C43.5561 75.8366 43.5556 75.8364 43.5552 75.8362C43.5548 75.836 43.5544 75.8359 43.554 75.8357C43.5536 75.8355 43.5531 75.8353 43.5527 75.8351C43.5523 75.835 43.5519 75.8348 43.5515 75.8346C43.5511 75.8344 43.5506 75.8342 43.5502 75.8341C43.5498 75.8339 43.5494 75.8337 43.549 75.8335C43.5485 75.8333 43.5481 75.8331 43.5477 75.833C43.5473 75.8328 43.5469 75.8326 43.5464 75.8324C43.546 75.8322 43.5456 75.8321 43.5452 75.8319C43.5448 75.8317 43.5443 75.8315 43.5439 75.8313C43.5435 75.8311 43.5431 75.831 43.5426 75.8308C43.5422 75.8306 43.5418 75.8304 43.5414 75.8302C43.541 75.83 43.5405 75.8299 43.5401 75.8297C43.5397 75.8295 43.5393 75.8293 43.5388 75.8291C43.5384 75.8289 43.538 75.8288 43.5376 75.8286C43.5371 75.8284 43.5367 75.8282 43.5363 75.828C43.5359 75.8278 43.5354 75.8277 43.535 75.8275C43.5346 75.8273 43.5341 75.8271 43.5337 75.8269C43.5333 75.8267 43.5329 75.8265 43.5324 75.8264C43.532 75.8262 43.5316 75.826 43.5312 75.8258C43.5307 75.8256 43.5303 75.8254 43.5299 75.8252C43.5294 75.8251 43.529 75.8249 43.5286 75.8247C43.5281 75.8245 43.5277 75.8243 43.5273 75.8241C43.5269 75.8239 43.5264 75.8238 43.526 75.8236C43.5256 75.8234 43.5251 75.8232 43.5247 75.823C43.5243 75.8228 43.5238 75.8226 43.5234 75.8225C43.523 75.8223 43.5225 75.8221 43.5221 75.8219C43.5217 75.8217 43.5212 75.8215 43.5208 75.8213C43.5204 75.8211 43.5199 75.8209 43.5195 75.8208C43.519 75.8206 43.5186 75.8204 43.5182 75.8202C43.5177 75.82 43.5173 75.8198 43.5169 75.8196C43.5164 75.8194 43.516 75.8193 43.5156 75.8191C43.5151 75.8189 43.5147 75.8187 43.5142 75.8185C43.5138 75.8183 43.5134 75.8181 43.5129 75.8179C43.5125 75.8177 43.5121 75.8175 43.5116 75.8174C43.5112 75.8172 43.5107 75.817 43.5103 75.8168C43.5099 75.8166 43.5094 75.8164 43.509 75.8162C43.5085 75.816 43.5081 75.8158 43.5076 75.8156C43.5072 75.8154 43.5068 75.8153 43.5063 75.8151C43.5059 75.8149 43.5054 75.8147 43.505 75.8145C43.5046 75.8143 43.5041 75.8141 43.5037 75.8139C43.5032 75.8137 43.5028 75.8135 43.5023 75.8133C43.5019 75.8131 43.5014 75.813 43.501 75.8128C43.5006 75.8126 43.5001 75.8124 43.4997 75.8122C43.4992 75.812 43.4988 75.8118 43.4983 75.8116C43.4979 75.8114 43.4974 75.8112 43.497 75.811C43.4965 75.8108 43.4961 75.8106 43.4956 75.8104C43.4952 75.8103 43.4947 75.8101 43.4943 75.8099C43.4938 75.8097 43.4934 75.8095 43.4929 75.8093C43.4925 75.8091 43.492 75.8089 43.4916 75.8087C43.4911 75.8085 43.4907 75.8083 43.4902 75.8081C43.4898 75.8079 43.4893 75.8077 43.4889 75.8075C43.4884 75.8073 43.488 75.8071 43.4875 75.8069C43.4871 75.8067 43.4866 75.8066 43.4862 75.8064C43.4857 75.8062 43.4853 75.806 43.4848 75.8058C43.4844 75.8056 43.4839 75.8054 43.4835 75.8052C43.483 75.805 43.4826 75.8048 43.4821 75.8046C43.4816 75.8044 43.4812 75.8042 43.4807 75.804C43.4803 75.8038 43.4798 75.8036 43.4794 75.8034C43.4789 75.8032 43.4785 75.803 43.478 75.8028C43.4775 75.8026 43.4771 75.8024 43.4766 75.8022C43.4762 75.802 43.4757 75.8018 43.4752 75.8016C43.4748 75.8014 43.4743 75.8012 43.4739 75.801C43.4734 75.8008 43.473 75.8006 43.4725 75.8004C43.472 75.8002 43.4716 75.8 43.4711 75.7998C43.4707 75.7996 43.4702 75.7994 43.4697 75.7992C43.4693 75.799 43.4688 75.7988 43.4683 75.7986C43.4679 75.7984 43.4674 75.7982 43.467 75.798C43.4665 75.7978 43.466 75.7976 43.4656 75.7974C43.4651 75.7972 43.4646 75.797 43.4642 75.7968C43.4637 75.7966 43.4633 75.7964 43.4628 75.7962C43.4623 75.796 43.4619 75.7958 43.4614 75.7956C43.4609 75.7954 43.4605 75.7952 43.46 75.795C43.4595 75.7948 43.4591 75.7946 43.4586 75.7944C43.4581 75.7942 43.4577 75.794 43.4572 75.7938C43.4567 75.7936 43.4563 75.7934 43.4558 75.7932C43.4553 75.793 43.4549 75.7928 43.4544 75.7926C43.4539 75.7924 43.4534 75.7922 43.453 75.792C43.4525 75.7918 43.452 75.7916 43.4516 75.7914C43.4511 75.7912 43.4506 75.791 43.4502 75.7908C43.4497 75.7906 43.4492 75.7904 43.4487 75.7902C43.4483 75.79 43.4478 75.7898 43.4473 75.7895C43.4469 75.7893 43.4464 75.7891 43.4459 75.7889C43.4454 75.7887 43.445 75.7885 43.4445 75.7883C43.444 75.7881 43.4435 75.7879 43.4431 75.7877C43.4426 75.7875 43.4421 75.7873 43.4416 75.7871C43.4412 75.7869 43.4407 75.7867 43.4402 75.7865C43.4397 75.7863 43.4393 75.7861 43.4388 75.7859C43.4383 75.7856 43.4378 75.7854 43.4374 75.7852C43.4369 75.785 43.4364 75.7848 43.4359 75.7846C43.4354 75.7844 43.435 75.7842 43.4345 75.784C43.434 75.7838 43.4335 75.7836 43.433 75.7834C43.4326 75.7832 43.4321 75.783 43.4316 75.7828C43.4311 75.7825 43.4306 75.7823 43.4302 75.7821C43.4297 75.7819 43.4292 75.7817 43.4287 75.7815C43.4282 75.7813 43.4278 75.7811 43.4273 75.7809C43.4268 75.7807 43.4263 75.7805 43.4258 75.7803C43.4253 75.78 43.4249 75.7798 43.4244 75.7796C43.4239 75.7794 43.4234 75.7792 43.4229 75.779C43.4224 75.7788 43.422 75.7786 43.4215 75.7784C43.421 75.7782 43.4205 75.7779 43.42 75.7777C43.4195 75.7775 43.419 75.7773 43.4186 75.7771C43.4181 75.7769 43.4176 75.7767 43.4171 75.7765C43.4166 75.7763 43.4161 75.7761 43.4156 75.7758C43.4152 75.7756 43.4147 75.7754 43.4142 75.7752C43.4137 75.775 43.4132 75.7748 43.4127 75.7746C43.4122 75.7744 43.4117 75.7742 43.4112 75.7739C43.4108 75.7737 43.4103 75.7735 43.4098 75.7733C43.4093 75.7731 43.4088 75.7729 43.4083 75.7727C43.4078 75.7725 43.4073 75.7722 43.4068 75.772C43.4063 75.7718 43.4058 75.7716 43.4053 75.7714C43.4049 75.7712 43.4044 75.771 43.4039 75.7708C43.4034 75.7705 43.4029 75.7703 43.4024 75.7701C43.4019 75.7699 43.4014 75.7697 43.4009 75.7695C43.4004 75.7693 43.3999 75.769 43.3994 75.7688C43.3989 75.7686 43.3984 75.7684 43.3979 75.7682C43.3974 75.768 43.3969 75.7678 43.3964 75.7675C43.3959 75.7673 43.3954 75.7671 43.3949 75.7669C43.3944 75.7667 43.394 75.7665 43.3935 75.7662C43.393 75.766 43.3925 75.7658 43.392 75.7656C43.3915 75.7654 43.391 75.7652 43.3905 75.765C43.39 75.7647 43.3895 75.7645 43.389 75.7643C43.3885 75.7641 43.388 75.7639 43.3875 75.7637C43.387 75.7634 43.3865 75.7632 43.386 75.763C43.3855 75.7628 43.3849 75.7626 43.3844 75.7624C43.3839 75.7621 43.3834 75.7619 43.3829 75.7617C43.3824 75.7615 43.3819 75.7613 43.3814 75.761C43.3809 75.7608 43.3804 75.7606 43.3799 75.7604C43.3794 75.7602 43.3789 75.76 43.3784 75.7597C43.3779 75.7595 43.3774 75.7593 43.3769 75.7591C43.3764 75.7589 43.3759 75.7586 43.3754 75.7584C43.3749 75.7582 43.3743 75.758 43.3738 75.7578C43.3733 75.7575 43.3728 75.7573 43.3723 75.7571C43.3718 75.7569 43.3713 75.7567 43.3708 75.7564C43.3703 75.7562 43.3698 75.756 43.3693 75.7558C43.3688 75.7556 43.3682 75.7553 43.3677 75.7551C43.3672 75.7549 43.3667 75.7547 43.3662 75.7545C43.3657 75.7542 43.3652 75.754 43.3647 75.7538C43.3642 75.7536 43.3636 75.7534 43.3631 75.7531C43.3626 75.7529 43.3621 75.7527 43.3616 75.7525C43.3611 75.7522 43.3606 75.752 43.3601 75.7518C43.3595 75.7516 43.359 75.7514 43.3585 75.7511C43.358 75.7509 43.3575 75.7507 43.357 75.7505C43.3565 75.7502 43.3559 75.75 43.3554 75.7498C43.3549 75.7496 43.3544 75.7494 43.3539 75.7491C43.3534 75.7489 43.3528 75.7487 43.3523 75.7485C43.3518 75.7482 43.3513 75.748 43.3508 75.7478C43.3503 75.7476 43.3497 75.7473 43.3492 75.7471C43.3487 75.7469 43.3482 75.7467 43.3477 75.7464C43.3471 75.7462 43.3466 75.746 43.3461 75.7458C43.3456 75.7455 43.3451 75.7453 43.3445 75.7451C43.344 75.7449 43.3435 75.7446 43.343 75.7444C43.3425 75.7442 43.3419 75.744 43.3414 75.7437C43.3409 75.7435 43.3404 75.7433 43.3398 75.7431C43.3393 75.7428 43.3388 75.7426 43.3383 75.7424C43.3378 75.7422 43.3372 75.7419 43.3367 75.7417C43.3362 75.7415 43.3357 75.7412 43.3351 75.741C43.3346 75.7408 43.3341 75.7406 43.3336 75.7403C43.333 75.7401 43.3325 75.7399 43.332 75.7397C43.3315 75.7394 43.3309 75.7392 43.3304 75.739C43.3299 75.7387 43.3293 75.7385 43.3288 75.7383C43.3283 75.7381 43.3278 75.7378 43.3272 75.7376C43.3267 75.7374 43.3262 75.7371 43.3256 75.7369C43.3251 75.7367 43.3246 75.7365 43.3241 75.7362C43.3235 75.736 43.323 75.7358 43.3225 75.7355C43.3219 75.7353 43.3214 75.7351 43.3209 75.7349C43.3203 75.7346 43.3198 75.7344 43.3193 75.7342C43.3187 75.7339 43.3182 75.7337 43.3177 75.7335C43.3171 75.7332 43.3166 75.733 43.3161 75.7328C43.3156 75.7326 43.315 75.7323 43.3145 75.7321C43.3139 75.7319 43.3134 75.7316 43.3129 75.7314C43.3123 75.7312 43.3118 75.7309 43.3113 75.7307C43.3107 75.7305 43.3102 75.7302 43.3097 75.73C43.3091 75.7298 43.3086 75.7295 43.3081 75.7293C43.3075 75.7291 43.307 75.7288 43.3064 75.7286C43.3059 75.7284 43.3054 75.7281 43.3048 75.7279C43.3043 75.7277 43.3038 75.7274 43.3032 75.7272C43.3027 75.727 43.3021 75.7267 43.3016 75.7265C43.3011 75.7263 43.3005 75.726 43.3 75.7258C43.2994 75.7256 43.2989 75.7253 43.2984 75.7251C43.2978 75.7249 43.2973 75.7246 43.2967 75.7244C43.2962 75.7242 43.2956 75.7239 43.2951 75.7237C43.2946 75.7235 43.294 75.7232 43.2935 75.723C43.2929 75.7228 43.2924 75.7225 43.2918 75.7223C43.2913 75.7221 43.2908 75.7218 43.2902 75.7216C43.2897 75.7214 43.2891 75.7211 43.2886 75.7209C43.288 75.7206 43.2875 75.7204 43.2869 75.7202C43.2864 75.7199 43.2859 75.7197 43.2853 75.7195C43.2848 75.7192 43.2842 75.719 43.2837 75.7188C43.2831 75.7185 43.2826 75.7183 43.282 75.718C43.2815 75.7178 43.2809 75.7176 43.2804 75.7173C43.2798 75.7171 43.2793 75.7169 43.2787 75.7166C43.2782 75.7164 43.2776 75.7161 43.2771 75.7159C43.2765 75.7157 43.276 75.7154 43.2754 75.7152C43.2749 75.715 43.2743 75.7147 43.2738 75.7145C43.2732 75.7142 43.2727 75.714 43.2721 75.7138C43.2716 75.7135 43.271 75.7133 43.2705 75.713C43.2699 75.7128 43.2694 75.7126 43.2688 75.7123C43.2682 75.7121 43.2677 75.7119 43.2671 75.7116C43.2666 75.7114 43.266 75.7111 43.2655 75.7109C43.2649 75.7107 43.2644 75.7104 43.2638 75.7102C43.2633 75.7099 43.2627 75.7097 43.2621 75.7094C43.2616 75.7092 43.261 75.709 43.2605 75.7087C43.2599 75.7085 43.2594 75.7082 43.2588 75.708C43.2582 75.7078 43.2577 75.7075 43.2571 75.7073C43.2566 75.707 43.256 75.7068 43.2554 75.7066C43.2549 75.7063 43.2543 75.7061 43.2538 75.7058C43.2532 75.7056 43.2527 75.7053 43.2521 75.7051C43.2515 75.7049 43.251 75.7046 43.2504 75.7044C43.2498 75.7041 43.2493 75.7039 43.2487 75.7036C43.2482 75.7034 43.2476 75.7032 43.247 75.7029C43.2465 75.7027 43.2459 75.7024 43.2453 75.7022C43.2448 75.7019 43.2442 75.7017 43.2437 75.7015C43.2431 75.7012 43.2425 75.701 43.242 75.7007C43.2414 75.7005 43.2408 75.7002 43.2403 75.7C43.2397 75.6997 43.2391 75.6995 43.2386 75.6993C43.238 75.699 43.2374 75.6988 43.2369 75.6985C43.2363 75.6983 43.2357 75.698 43.2352 75.6978C43.2346 75.6975 43.234 75.6973 43.2335 75.697C43.2329 75.6968 43.2323 75.6966 43.2318 75.6963C43.2312 75.6961 43.2306 75.6958 43.23 75.6956C43.2295 75.6953 43.2289 75.6951 43.2283 75.6948C43.2278 75.6946 43.2272 75.6943 43.2266 75.6941C43.2261 75.6938 43.2255 75.6936 43.2249 75.6933C43.2243 75.6931 43.2238 75.6929 43.2232 75.6926C43.2226 75.6924 43.222 75.6921 43.2215 75.6919C43.2209 75.6916 43.2203 75.6914 43.2198 75.6911C43.2192 75.6909 43.2186 75.6906 43.218 75.6904C43.2175 75.6901 43.2169 75.6899 43.2163 75.6896C43.2157 75.6894 43.2152 75.6891 43.2146 75.6889C43.214 75.6886 43.2134 75.6884 43.2129 75.6881C43.2123 75.6879 43.2117 75.6876 43.2111 75.6874C43.2105 75.6871 43.21 75.6869 43.2094 75.6866C43.2088 75.6864 43.2082 75.6861 43.2077 75.6859C43.2071 75.6856 43.2065 75.6854 43.2059 75.6851C43.2053 75.6849 43.2048 75.6846 43.2042 75.6844C43.2036 75.6841 43.203 75.6839 43.2024 75.6836C43.2019 75.6834 43.2013 75.6831 43.2007 75.6829C43.2001 75.6826 43.1995 75.6824 43.1989 75.6821C43.1984 75.6819 43.1978 75.6816 43.1972 75.6814C43.1966 75.6811 43.196 75.6809 43.1954 75.6806C43.1949 75.6803 43.1943 75.6801 43.1937 75.6798C43.1931 75.6796 43.1925 75.6793 43.1919 75.6791C43.1914 75.6788 43.1908 75.6786 43.1902 75.6783C43.1896 75.6781 43.189 75.6778 43.1884 75.6776C43.1878 75.6773 43.1872 75.6771 43.1867 75.6768C43.1861 75.6765 43.1855 75.6763 43.1849 75.676C43.1843 75.6758 43.1837 75.6755 43.1831 75.6753C43.1825 75.675 43.182 75.6748 43.1814 75.6745C43.1808 75.6743 43.1802 75.674 43.1796 75.6737C43.179 75.6735 43.1784 75.6732 43.1778 75.673C43.1772 75.6727 43.1766 75.6725 43.1761 75.6722C43.1755 75.672 43.1749 75.6717 43.1743 75.6714C43.1737 75.6712 43.1731 75.6709 43.1725 75.6707C43.1719 75.6704 43.1713 75.6702 43.1707 75.6699C43.1701 75.6696 43.1695 75.6694 43.1689 75.6691C43.1683 75.6689 43.1678 75.6686 43.1672 75.6684C43.1666 75.6681 43.166 75.6678 43.1654 75.6676C43.1648 75.6673 43.1642 75.6671 43.1636 75.6668C43.163 75.6666 43.1624 75.6663 43.1618 75.666C43.1612 75.6658 43.1606 75.6655 43.16 75.6653C43.1594 75.665 43.1588 75.6648 43.1582 75.6645C43.1576 75.6642 43.157 75.664 43.1564 75.6637C43.1558 75.6635 43.1552 75.6632 43.1546 75.6629C43.154 75.6627 43.1534 75.6624 43.1528 75.6622C43.1522 75.6619 43.1516 75.6616 43.151 75.6614C43.1504 75.6611 43.1498 75.6609 43.1492 75.6606C43.1486 75.6603 43.148 75.6601 43.1474 75.6598C43.1468 75.6596 43.1462 75.6593 43.1456 75.659C43.145 75.6588 43.1444 75.6585 43.1438 75.6583C43.1432 75.658 43.1426 75.6577 43.142 75.6575C43.1414 75.6572 43.1408 75.6569 43.1401 75.6567C43.1395 75.6564 43.1389 75.6562 43.1383 75.6559C43.1377 75.6556 43.1371 75.6554 43.1365 75.6551C43.1359 75.6548 43.1353 75.6546 43.1347 75.6543C43.1341 75.6541 43.1335 75.6538 43.1329 75.6535C43.1323 75.6533 43.1317 75.653 43.131 75.6527C43.1304 75.6525 43.1298 75.6522 43.1292 75.652C43.1286 75.6517 43.128 75.6514 43.1274 75.6512C43.1268 75.6509 43.1262 75.6506 43.1256 75.6504C43.1249 75.6501 43.1243 75.6498 43.1237 75.6496C43.1231 75.6493 43.1225 75.649 43.1219 75.6488C43.1213 75.6485 43.1207 75.6483 43.12 75.648C43.1194 75.6477 43.1188 75.6475 43.1182 75.6472C43.1176 75.6469 43.117 75.6467 43.1164 75.6464C43.1157 75.6461 43.1151 75.6459 43.1145 75.6456C43.1139 75.6453 43.1133 75.6451 43.1127 75.6448C43.1121 75.6445 43.1114 75.6443 43.1108 75.644C43.1102 75.6437 43.1096 75.6435 43.109 75.6432C43.1084 75.6429 43.1077 75.6427 43.1071 75.6424C43.1065 75.6421 43.1059 75.6419 43.1053 75.6416C43.1046 75.6413 43.104 75.6411 43.1034 75.6408C43.1028 75.6405 43.1022 75.6403 43.1015 75.64C43.1009 75.6397 43.1003 75.6394 43.0997 75.6392C43.0991 75.6389 43.0984 75.6386 43.0978 75.6384C43.0972 75.6381 43.0966 75.6378 43.096 75.6376C43.0953 75.6373 43.0947 75.637 43.0941 75.6368C43.0935 75.6365 43.0928 75.6362 43.0922 75.6359C43.0916 75.6357 43.091 75.6354 43.0903 75.6351C43.0897 75.6349 43.0891 75.6346 43.0885 75.6343C43.0878 75.6341 43.0872 75.6338 43.0866 75.6335C43.086 75.6332 43.0853 75.633 43.0847 75.6327C43.0841 75.6324 43.0835 75.6322 43.0828 75.6319C43.0822 75.6316 43.0816 75.6313 43.081 75.6311C43.0803 75.6308 43.0797 75.6305 43.0791 75.6303C43.0784 75.63 43.0778 75.6297 43.0772 75.6294C43.0766 75.6292 43.0759 75.6289 43.0753 75.6286C43.0747 75.6284 43.074 75.6281 43.0734 75.6278C43.0728 75.6275 43.0721 75.6273 43.0715 75.627C43.0709 75.6267 43.0702 75.6264 43.0696 75.6262C43.069 75.6259 43.0683 75.6256 43.0677 75.6254C43.0671 75.6251 43.0665 75.6248 43.0658 75.6245C43.0652 75.6243 43.0646 75.624 43.0639 75.6237C43.0633 75.6234 43.0626 75.6232 43.062 75.6229C43.0614 75.6226 43.0607 75.6223 43.0601 75.6221C43.0595 75.6218 43.0588 75.6215 43.0582 75.6212C43.0576 75.621 43.0569 75.6207 43.0563 75.6204C43.0557 75.6201 43.055 75.6199 43.0544 75.6196C43.0537 75.6193 43.0531 75.619 43.0525 75.6188C43.0518 75.6185 43.0512 75.6182 43.0505 75.6179C43.0499 75.6176 43.0493 75.6174 43.0486 75.6171C43.048 75.6168 43.0473 75.6165 43.0467 75.6163C43.0461 75.616 43.0454 75.6157 43.0448 75.6154C43.0441 75.6152 43.0435 75.6149 43.0429 75.6146C43.0422 75.6143 43.0416 75.614 43.0409 75.6138C43.0403 75.6135 43.0397 75.6132 43.039 75.6129C43.0384 75.6127 43.0377 75.6124 43.0371 75.6121C43.0364 75.6118 43.0358 75.6115 43.0351 75.6113C43.0345 75.611 43.0339 75.6107 43.0332 75.6104L41.4452 79.2817C41.4459 79.282 41.4465 79.2823 41.4472 79.2825C41.4478 79.2828 41.4485 79.2831 41.4491 79.2834C41.4497 79.2837 41.4504 79.2839 41.451 79.2842C41.4517 79.2845 41.4523 79.2848 41.453 79.2851C41.4536 79.2853 41.4542 79.2856 41.4549 79.2859C41.4555 79.2862 41.4562 79.2864 41.4568 79.2867C41.4574 79.287 41.4581 79.2873 41.4587 79.2875C41.4594 79.2878 41.46 79.2881 41.4606 79.2884C41.4613 79.2887 41.4619 79.2889 41.4626 79.2892C41.4632 79.2895 41.4638 79.2898 41.4645 79.29C41.4651 79.2903 41.4658 79.2906 41.4664 79.2909C41.467 79.2911 41.4677 79.2914 41.4683 79.2917C41.4689 79.292 41.4696 79.2922 41.4702 79.2925C41.4709 79.2928 41.4715 79.2931 41.4721 79.2933C41.4728 79.2936 41.4734 79.2939 41.474 79.2942C41.4747 79.2944 41.4753 79.2947 41.4759 79.295C41.4766 79.2953 41.4772 79.2955 41.4778 79.2958C41.4785 79.2961 41.4791 79.2964 41.4797 79.2966C41.4804 79.2969 41.481 79.2972 41.4816 79.2975C41.4823 79.2977 41.4829 79.298 41.4835 79.2983C41.4842 79.2985 41.4848 79.2988 41.4854 79.2991C41.4861 79.2994 41.4867 79.2996 41.4873 79.2999C41.4879 79.3002 41.4886 79.3005 41.4892 79.3007C41.4898 79.301 41.4905 79.3013 41.4911 79.3015C41.4917 79.3018 41.4923 79.3021 41.493 79.3024C41.4936 79.3026 41.4942 79.3029 41.4949 79.3032C41.4955 79.3034 41.4961 79.3037 41.4967 79.304C41.4974 79.3043 41.498 79.3045 41.4986 79.3048C41.4992 79.3051 41.4999 79.3053 41.5005 79.3056C41.5011 79.3059 41.5017 79.3062 41.5024 79.3064C41.503 79.3067 41.5036 79.307 41.5042 79.3072C41.5049 79.3075 41.5055 79.3078 41.5061 79.308C41.5067 79.3083 41.5074 79.3086 41.508 79.3088C41.5086 79.3091 41.5092 79.3094 41.5098 79.3097C41.5105 79.3099 41.5111 79.3102 41.5117 79.3105C41.5123 79.3107 41.5129 79.311 41.5136 79.3113C41.5142 79.3115 41.5148 79.3118 41.5154 79.3121C41.516 79.3123 41.5167 79.3126 41.5173 79.3129C41.5179 79.3131 41.5185 79.3134 41.5191 79.3137C41.5198 79.3139 41.5204 79.3142 41.521 79.3145C41.5216 79.3147 41.5222 79.315 41.5228 79.3153C41.5235 79.3155 41.5241 79.3158 41.5247 79.3161C41.5253 79.3163 41.5259 79.3166 41.5265 79.3169C41.5272 79.3171 41.5278 79.3174 41.5284 79.3177C41.529 79.3179 41.5296 79.3182 41.5302 79.3185C41.5308 79.3187 41.5314 79.319 41.5321 79.3193C41.5327 79.3195 41.5333 79.3198 41.5339 79.3201C41.5345 79.3203 41.5351 79.3206 41.5357 79.3209C41.5363 79.3211 41.537 79.3214 41.5376 79.3217C41.5382 79.3219 41.5388 79.3222 41.5394 79.3224C41.54 79.3227 41.5406 79.323 41.5412 79.3232C41.5418 79.3235 41.5425 79.3238 41.5431 79.324C41.5437 79.3243 41.5443 79.3246 41.5449 79.3248C41.5455 79.3251 41.5461 79.3253 41.5467 79.3256C41.5473 79.3259 41.5479 79.3261 41.5485 79.3264C41.5491 79.3267 41.5497 79.3269 41.5504 79.3272C41.551 79.3274 41.5516 79.3277 41.5522 79.328C41.5528 79.3282 41.5534 79.3285 41.554 79.3288C41.5546 79.329 41.5552 79.3293 41.5558 79.3295C41.5564 79.3298 41.557 79.3301 41.5576 79.3303C41.5582 79.3306 41.5588 79.3308 41.5594 79.3311C41.56 79.3314 41.5606 79.3316 41.5612 79.3319C41.5618 79.3321 41.5624 79.3324 41.563 79.3327C41.5636 79.3329 41.5642 79.3332 41.5648 79.3334C41.5654 79.3337 41.566 79.334 41.5666 79.3342C41.5672 79.3345 41.5678 79.3347 41.5684 79.335C41.569 79.3353 41.5696 79.3355 41.5702 79.3358C41.5708 79.336 41.5714 79.3363 41.572 79.3366C41.5726 79.3368 41.5732 79.3371 41.5738 79.3373C41.5744 79.3376 41.575 79.3378 41.5756 79.3381C41.5762 79.3384 41.5768 79.3386 41.5774 79.3389C41.578 79.3391 41.5786 79.3394 41.5792 79.3396C41.5798 79.3399 41.5804 79.3402 41.581 79.3404C41.5816 79.3407 41.5821 79.3409 41.5827 79.3412C41.5833 79.3414 41.5839 79.3417 41.5845 79.342C41.5851 79.3422 41.5857 79.3425 41.5863 79.3427C41.5869 79.343 41.5875 79.3432 41.5881 79.3435C41.5887 79.3438 41.5893 79.344 41.5898 79.3443C41.5904 79.3445 41.591 79.3448 41.5916 79.345C41.5922 79.3453 41.5928 79.3455 41.5934 79.3458C41.594 79.346 41.5946 79.3463 41.5952 79.3466C41.5957 79.3468 41.5963 79.3471 41.5969 79.3473C41.5975 79.3476 41.5981 79.3478 41.5987 79.3481C41.5993 79.3483 41.5999 79.3486 41.6004 79.3488C41.601 79.3491 41.6016 79.3494 41.6022 79.3496C41.6028 79.3499 41.6034 79.3501 41.604 79.3504C41.6045 79.3506 41.6051 79.3509 41.6057 79.3511C41.6063 79.3514 41.6069 79.3516 41.6075 79.3519C41.608 79.3521 41.6086 79.3524 41.6092 79.3526C41.6098 79.3529 41.6104 79.3531 41.611 79.3534C41.6115 79.3536 41.6121 79.3539 41.6127 79.3542C41.6133 79.3544 41.6139 79.3547 41.6145 79.3549C41.615 79.3552 41.6156 79.3554 41.6162 79.3557C41.6168 79.3559 41.6174 79.3562 41.6179 79.3564C41.6185 79.3567 41.6191 79.3569 41.6197 79.3572C41.6203 79.3574 41.6208 79.3577 41.6214 79.3579C41.622 79.3582 41.6226 79.3584 41.6231 79.3587C41.6237 79.3589 41.6243 79.3592 41.6249 79.3594C41.6254 79.3597 41.626 79.3599 41.6266 79.3602C41.6272 79.3604 41.6278 79.3607 41.6283 79.3609C41.6289 79.3612 41.6295 79.3614 41.6301 79.3617C41.6306 79.3619 41.6312 79.3621 41.6318 79.3624C41.6323 79.3626 41.6329 79.3629 41.6335 79.3631C41.6341 79.3634 41.6346 79.3636 41.6352 79.3639C41.6358 79.3641 41.6364 79.3644 41.6369 79.3646C41.6375 79.3649 41.6381 79.3651 41.6386 79.3654C41.6392 79.3656 41.6398 79.3659 41.6404 79.3661C41.6409 79.3664 41.6415 79.3666 41.6421 79.3668C41.6426 79.3671 41.6432 79.3673 41.6438 79.3676C41.6443 79.3678 41.6449 79.3681 41.6455 79.3683C41.6461 79.3686 41.6466 79.3688 41.6472 79.3691C41.6478 79.3693 41.6483 79.3696 41.6489 79.3698C41.6495 79.37 41.65 79.3703 41.6506 79.3705C41.6512 79.3708 41.6517 79.371 41.6523 79.3713C41.6529 79.3715 41.6534 79.3718 41.654 79.372C41.6545 79.3722 41.6551 79.3725 41.6557 79.3727C41.6562 79.373 41.6568 79.3732 41.6574 79.3735C41.6579 79.3737 41.6585 79.374 41.6591 79.3742C41.6596 79.3744 41.6602 79.3747 41.6607 79.3749C41.6613 79.3752 41.6619 79.3754 41.6624 79.3757C41.663 79.3759 41.6635 79.3761 41.6641 79.3764C41.6647 79.3766 41.6652 79.3769 41.6658 79.3771C41.6664 79.3774 41.6669 79.3776 41.6675 79.3778C41.668 79.3781 41.6686 79.3783 41.6691 79.3786C41.6697 79.3788 41.6703 79.379 41.6708 79.3793C41.6714 79.3795 41.6719 79.3798 41.6725 79.38C41.673 79.3803 41.6736 79.3805 41.6742 79.3807C41.6747 79.381 41.6753 79.3812 41.6758 79.3815C41.6764 79.3817 41.6769 79.3819 41.6775 79.3822C41.6781 79.3824 41.6786 79.3827 41.6792 79.3829C41.6797 79.3831 41.6803 79.3834 41.6808 79.3836C41.6814 79.3839 41.6819 79.3841 41.6825 79.3843C41.683 79.3846 41.6836 79.3848 41.6841 79.385C41.6847 79.3853 41.6852 79.3855 41.6858 79.3858C41.6863 79.386 41.6869 79.3862 41.6874 79.3865C41.688 79.3867 41.6886 79.387 41.6891 79.3872C41.6897 79.3874 41.6902 79.3877 41.6907 79.3879C41.6913 79.3881 41.6918 79.3884 41.6924 79.3886C41.6929 79.3889 41.6935 79.3891 41.694 79.3893C41.6946 79.3896 41.6951 79.3898 41.6957 79.39C41.6962 79.3903 41.6968 79.3905 41.6973 79.3908C41.6979 79.391 41.6984 79.3912 41.699 79.3915C41.6995 79.3917 41.7001 79.3919 41.7006 79.3922C41.7011 79.3924 41.7017 79.3926 41.7022 79.3929C41.7028 79.3931 41.7033 79.3933 41.7039 79.3936C41.7044 79.3938 41.705 79.3941 41.7055 79.3943C41.706 79.3945 41.7066 79.3948 41.7071 79.395C41.7077 79.3952 41.7082 79.3955 41.7088 79.3957C41.7093 79.3959 41.7098 79.3962 41.7104 79.3964C41.7109 79.3966 41.7115 79.3969 41.712 79.3971C41.7125 79.3973 41.7131 79.3976 41.7136 79.3978C41.7142 79.398 41.7147 79.3983 41.7152 79.3985C41.7158 79.3987 41.7163 79.399 41.7169 79.3992C41.7174 79.3994 41.7179 79.3997 41.7185 79.3999C41.719 79.4001 41.7195 79.4004 41.7201 79.4006C41.7206 79.4008 41.7212 79.4011 41.7217 79.4013C41.7222 79.4015 41.7228 79.4018 41.7233 79.402C41.7238 79.4022 41.7244 79.4024 41.7249 79.4027C41.7254 79.4029 41.726 79.4031 41.7265 79.4034C41.727 79.4036 41.7276 79.4038 41.7281 79.4041C41.7286 79.4043 41.7292 79.4045 41.7297 79.4048C41.7302 79.405 41.7308 79.4052 41.7313 79.4054C41.7318 79.4057 41.7324 79.4059 41.7329 79.4061C41.7334 79.4064 41.734 79.4066 41.7345 79.4068C41.735 79.4071 41.7355 79.4073 41.7361 79.4075C41.7366 79.4077 41.7371 79.408 41.7377 79.4082C41.7382 79.4084 41.7387 79.4087 41.7393 79.4089C41.7398 79.4091 41.7403 79.4093 41.7408 79.4096C41.7414 79.4098 41.7419 79.41 41.7424 79.4103C41.7429 79.4105 41.7435 79.4107 41.744 79.4109C41.7445 79.4112 41.745 79.4114 41.7456 79.4116C41.7461 79.4118 41.7466 79.4121 41.7472 79.4123C41.7477 79.4125 41.7482 79.4128 41.7487 79.413C41.7492 79.4132 41.7498 79.4134 41.7503 79.4137C41.7508 79.4139 41.7513 79.4141 41.7519 79.4143C41.7524 79.4146 41.7529 79.4148 41.7534 79.415C41.754 79.4152 41.7545 79.4155 41.755 79.4157C41.7555 79.4159 41.756 79.4161 41.7566 79.4164C41.7571 79.4166 41.7576 79.4168 41.7581 79.417C41.7586 79.4173 41.7592 79.4175 41.7597 79.4177C41.7602 79.4179 41.7607 79.4182 41.7612 79.4184C41.7618 79.4186 41.7623 79.4188 41.7628 79.4191C41.7633 79.4193 41.7638 79.4195 41.7643 79.4197C41.7649 79.42 41.7654 79.4202 41.7659 79.4204C41.7664 79.4206 41.7669 79.4209 41.7674 79.4211C41.768 79.4213 41.7685 79.4215 41.769 79.4217C41.7695 79.422 41.77 79.4222 41.7705 79.4224C41.771 79.4226 41.7716 79.4229 41.7721 79.4231C41.7726 79.4233 41.7731 79.4235 41.7736 79.4238C41.7741 79.424 41.7746 79.4242 41.7752 79.4244C41.7757 79.4246 41.7762 79.4249 41.7767 79.4251C41.7772 79.4253 41.7777 79.4255 41.7782 79.4257C41.7787 79.426 41.7792 79.4262 41.7798 79.4264C41.7803 79.4266 41.7808 79.4268 41.7813 79.4271C41.7818 79.4273 41.7823 79.4275 41.7828 79.4277C41.7833 79.4279 41.7838 79.4282 41.7843 79.4284C41.7848 79.4286 41.7854 79.4288 41.7859 79.429C41.7864 79.4293 41.7869 79.4295 41.7874 79.4297C41.7879 79.4299 41.7884 79.4301 41.7889 79.4304C41.7894 79.4306 41.7899 79.4308 41.7904 79.431C41.7909 79.4312 41.7914 79.4315 41.7919 79.4317C41.7924 79.4319 41.7929 79.4321 41.7934 79.4323C41.794 79.4325 41.7945 79.4328 41.795 79.433C41.7955 79.4332 41.796 79.4334 41.7965 79.4336C41.797 79.4339 41.7975 79.4341 41.798 79.4343C41.7985 79.4345 41.799 79.4347 41.7995 79.4349C41.8 79.4352 41.8005 79.4354 41.801 79.4356C41.8015 79.4358 41.802 79.436 41.8025 79.4362C41.803 79.4365 41.8035 79.4367 41.804 79.4369C41.8045 79.4371 41.805 79.4373 41.8055 79.4375C41.806 79.4377 41.8065 79.438 41.807 79.4382C41.8075 79.4384 41.808 79.4386 41.8085 79.4388C41.809 79.439 41.8095 79.4393 41.8099 79.4395C41.8104 79.4397 41.8109 79.4399 41.8114 79.4401C41.8119 79.4403 41.8124 79.4405 41.8129 79.4408C41.8134 79.441 41.8139 79.4412 41.8144 79.4414C41.8149 79.4416 41.8154 79.4418 41.8159 79.442C41.8164 79.4422 41.8169 79.4425 41.8174 79.4427C41.8179 79.4429 41.8184 79.4431 41.8188 79.4433C41.8193 79.4435 41.8198 79.4437 41.8203 79.4439C41.8208 79.4442 41.8213 79.4444 41.8218 79.4446C41.8223 79.4448 41.8228 79.445 41.8233 79.4452C41.8238 79.4454 41.8242 79.4456 41.8247 79.4459C41.8252 79.4461 41.8257 79.4463 41.8262 79.4465C41.8267 79.4467 41.8272 79.4469 41.8277 79.4471C41.8281 79.4473 41.8286 79.4475 41.8291 79.4478C41.8296 79.448 41.8301 79.4482 41.8306 79.4484C41.8311 79.4486 41.8316 79.4488 41.832 79.449C41.8325 79.4492 41.833 79.4494 41.8335 79.4497C41.834 79.4499 41.8345 79.4501 41.835 79.4503C41.8354 79.4505 41.8359 79.4507 41.8364 79.4509C41.8369 79.4511 41.8374 79.4513 41.8379 79.4515C41.8383 79.4517 41.8388 79.452 41.8393 79.4522C41.8398 79.4524 41.8403 79.4526 41.8407 79.4528C41.8412 79.453 41.8417 79.4532 41.8422 79.4534C41.8427 79.4536 41.8431 79.4538 41.8436 79.454C41.8441 79.4542 41.8446 79.4544 41.8451 79.4547C41.8455 79.4549 41.846 79.4551 41.8465 79.4553C41.847 79.4555 41.8475 79.4557 41.8479 79.4559C41.8484 79.4561 41.8489 79.4563 41.8494 79.4565C41.8499 79.4567 41.8503 79.4569 41.8508 79.4571C41.8513 79.4573 41.8518 79.4575 41.8522 79.4578C41.8527 79.458 41.8532 79.4582 41.8537 79.4584C41.8541 79.4586 41.8546 79.4588 41.8551 79.459C41.8556 79.4592 41.856 79.4594 41.8565 79.4596C41.857 79.4598 41.8575 79.46 41.8579 79.4602C41.8584 79.4604 41.8589 79.4606 41.8593 79.4608C41.8598 79.461 41.8603 79.4612 41.8608 79.4614C41.8612 79.4616 41.8617 79.4619 41.8622 79.4621C41.8626 79.4623 41.8631 79.4625 41.8636 79.4627C41.8641 79.4629 41.8645 79.4631 41.865 79.4633C41.8655 79.4635 41.8659 79.4637 41.8664 79.4639C41.8669 79.4641 41.8673 79.4643 41.8678 79.4645C41.8683 79.4647 41.8687 79.4649 41.8692 79.4651C41.8697 79.4653 41.8701 79.4655 41.8706 79.4657C41.8711 79.4659 41.8715 79.4661 41.872 79.4663C41.8725 79.4665 41.8729 79.4667 41.8734 79.4669C41.8739 79.4671 41.8743 79.4673 41.8748 79.4675C41.8753 79.4677 41.8757 79.4679 41.8762 79.4681C41.8767 79.4683 41.8771 79.4685 41.8776 79.4687C41.8781 79.4689 41.8785 79.4691 41.879 79.4693C41.8794 79.4695 41.8799 79.4697 41.8804 79.4699C41.8808 79.4701 41.8813 79.4703 41.8818 79.4705C41.8822 79.4707 41.8827 79.4709 41.8831 79.4711C41.8836 79.4713 41.8841 79.4715 41.8845 79.4717C41.885 79.4719 41.8854 79.4721 41.8859 79.4723C41.8864 79.4725 41.8868 79.4727 41.8873 79.4729C41.8877 79.4731 41.8882 79.4733 41.8886 79.4735C41.8891 79.4737 41.8896 79.4739 41.89 79.4741C41.8905 79.4743 41.8909 79.4745 41.8914 79.4747C41.8918 79.4749 41.8923 79.4751 41.8928 79.4753C41.8932 79.4755 41.8937 79.4757 41.8941 79.4759C41.8946 79.4761 41.895 79.4763 41.8955 79.4765C41.8959 79.4767 41.8964 79.4769 41.8968 79.4771C41.8973 79.4772 41.8977 79.4774 41.8982 79.4776C41.8987 79.4778 41.8991 79.478 41.8996 79.4782C41.9 79.4784 41.9005 79.4786 41.9009 79.4788C41.9014 79.479 41.9018 79.4792 41.9023 79.4794C41.9027 79.4796 41.9032 79.4798 41.9036 79.48C41.9041 79.4802 41.9045 79.4804 41.905 79.4806C41.9054 79.4808 41.9059 79.481 41.9063 79.4811C41.9068 79.4813 41.9072 79.4815 41.9077 79.4817C41.9081 79.4819 41.9086 79.4821 41.909 79.4823C41.9094 79.4825 41.9099 79.4827 41.9103 79.4829C41.9108 79.4831 41.9112 79.4833 41.9117 79.4835C41.9121 79.4837 41.9126 79.4839 41.913 79.484C41.9135 79.4842 41.9139 79.4844 41.9144 79.4846C41.9148 79.4848 41.9152 79.485 41.9157 79.4852C41.9161 79.4854 41.9166 79.4856 41.917 79.4858C41.9175 79.486 41.9179 79.4862 41.9183 79.4863C41.9188 79.4865 41.9192 79.4867 41.9197 79.4869C41.9201 79.4871 41.9205 79.4873 41.921 79.4875C41.9214 79.4877 41.9219 79.4879 41.9223 79.4881C41.9228 79.4883 41.9232 79.4884 41.9236 79.4886C41.9241 79.4888 41.9245 79.489 41.9249 79.4892C41.9254 79.4894 41.9258 79.4896 41.9263 79.4898C41.9267 79.49 41.9271 79.4902 41.9276 79.4903C41.928 79.4905 41.9285 79.4907 41.9289 79.4909C41.9293 79.4911 41.9298 79.4913 41.9302 79.4915C41.9306 79.4917 41.9311 79.4919 41.9315 79.492C41.9319 79.4922 41.9324 79.4924 41.9328 79.4926C41.9332 79.4928 41.9337 79.493 41.9341 79.4932C41.9345 79.4934 41.935 79.4935 41.9354 79.4937C41.9358 79.4939 41.9363 79.4941 41.9367 79.4943C41.9371 79.4945 41.9376 79.4947 41.938 79.4949C41.9384 79.495 41.9389 79.4952 41.9393 79.4954C41.9397 79.4956 41.9402 79.4958 41.9406 79.496C41.941 79.4962 41.9415 79.4963 41.9419 79.4965C41.9423 79.4967 41.9427 79.4969 41.9432 79.4971C41.9436 79.4973 41.944 79.4975 41.9445 79.4976C41.9449 79.4978 41.9453 79.498 41.9457 79.4982C41.9462 79.4984 41.9466 79.4986 41.947 79.4988C41.9474 79.4989 41.9479 79.4991 41.9483 79.4993C41.9487 79.4995 41.9492 79.4997 41.9496 79.4999C41.95 79.5 41.9504 79.5002 41.9509 79.5004C41.9513 79.5006 41.9517 79.5008 41.9521 79.501C41.9526 79.5011 41.953 79.5013 41.9534 79.5015C41.9538 79.5017 41.9542 79.5019 41.9547 79.5021C41.9551 79.5022 41.9555 79.5024 41.9559 79.5026C41.9564 79.5028 41.9568 79.503 41.9572 79.5032C41.9576 79.5033 41.958 79.5035 41.9585 79.5037C41.9589 79.5039 41.9593 79.5041 41.9597 79.5042C41.9601 79.5044 41.9606 79.5046 41.961 79.5048C41.9614 79.505 41.9618 79.5052 41.9622 79.5053C41.9627 79.5055 41.9631 79.5057 41.9635 79.5059C41.9639 79.5061 41.9643 79.5062 41.9647 79.5064C41.9652 79.5066 41.9656 79.5068 41.966 79.507C41.9664 79.5071 41.9668 79.5073 41.9672 79.5075C41.9677 79.5077 41.9681 79.5079 41.9685 79.508C41.9689 79.5082 41.9693 79.5084 41.9697 79.5086C41.9701 79.5088 41.9706 79.5089 41.971 79.5091C41.9714 79.5093 41.9718 79.5095 41.9722 79.5097C41.9726 79.5098 41.973 79.51 41.9735 79.5102C41.9739 79.5104 41.9743 79.5105 41.9747 79.5107C41.9751 79.5109 41.9755 79.5111 41.9759 79.5113C41.9763 79.5114 41.9767 79.5116 41.9772 79.5118C41.9776 79.512 41.978 79.5121 41.9784 79.5123C41.9788 79.5125 41.9792 79.5127 41.9796 79.5128C41.98 79.513 41.9804 79.5132 41.9808 79.5134C41.9812 79.5136 41.9816 79.5137 41.9821 79.5139C41.9825 79.5141 41.9829 79.5143 41.9833 79.5144C41.9837 79.5146 41.9841 79.5148 41.9845 79.515C41.9849 79.5151 41.9853 79.5153 41.9857 79.5155C41.9861 79.5157 41.9865 79.5158 41.9869 79.516C41.9873 79.5162 41.9877 79.5164 41.9881 79.5165C41.9885 79.5167 41.9889 79.5169 41.9893 79.5171C41.9898 79.5172 41.9902 79.5174 41.9906 79.5176C41.991 79.5178 41.9914 79.5179 41.9918 79.5181C41.9922 79.5183 41.9926 79.5185 41.993 79.5186C41.9934 79.5188 41.9938 79.519 41.9942 79.5191C41.9946 79.5193 41.995 79.5195 41.9954 79.5197C41.9958 79.5198 41.9962 79.52 41.9966 79.5202C41.997 79.5204 41.9974 79.5205 41.9978 79.5207C41.9982 79.5209 41.9986 79.521 41.999 79.5212C41.9994 79.5214 41.9997 79.5216 42.0001 79.5217C42.0005 79.5219 42.0009 79.5221 42.0013 79.5222C42.0017 79.5224 42.0021 79.5226 42.0025 79.5228C42.0029 79.5229 42.0033 79.5231 42.0037 79.5233C42.0041 79.5234 42.0045 79.5236 42.0049 79.5238C42.0053 79.524 42.0057 79.5241 42.0061 79.5243C42.0065 79.5245 42.0069 79.5246 42.0073 79.5248C42.0076 79.525 42.008 79.5251 42.0084 79.5253C42.0088 79.5255 42.0092 79.5257 42.0096 79.5258C42.01 79.526 42.0104 79.5262 42.0108 79.5263C42.0112 79.5265 42.0116 79.5267 42.0119 79.5268C42.0123 79.527 42.0127 79.5272 42.0131 79.5273C42.0135 79.5275 42.0139 79.5277 42.0143 79.5278C42.0147 79.528 42.0151 79.5282 42.0154 79.5283C42.0158 79.5285 42.0162 79.5287 42.0166 79.5289C42.017 79.529 42.0174 79.5292 42.0178 79.5294C42.0182 79.5295 42.0185 79.5297 42.0189 79.5299C42.0193 79.53 42.0197 79.5302 42.0201 79.5304C42.0205 79.5305 42.0208 79.5307 42.0212 79.5309C42.0216 79.531 42.022 79.5312 42.0224 79.5314C42.0228 79.5315 42.0231 79.5317 42.0235 79.5318C42.0239 79.532 42.0243 79.5322 42.0247 79.5323C42.0251 79.5325 42.0254 79.5327 42.0258 79.5328C42.0262 79.533 42.0266 79.5332 42.027 79.5333C42.0273 79.5335 42.0277 79.5337 42.0281 79.5338C42.0285 79.534 42.0289 79.5342 42.0292 79.5343C42.0296 79.5345 42.03 79.5346 42.0304 79.5348C42.0308 79.535 42.0311 79.5351 42.0315 79.5353C42.0319 79.5355 42.0323 79.5356 42.0327 79.5358C42.033 79.536 42.0334 79.5361 42.0338 79.5363C42.0342 79.5364 42.0345 79.5366 42.0349 79.5368C42.0353 79.5369 42.0357 79.5371 42.036 79.5373C42.0364 79.5374 42.0368 79.5376 42.0372 79.5377C42.0375 79.5379 42.0379 79.5381 42.0383 79.5382C42.0387 79.5384 42.039 79.5386 42.0394 79.5387C42.0398 79.5389 42.0401 79.539 42.0405 79.5392C42.0409 79.5394 42.0413 79.5395 42.0416 79.5397C42.042 79.5398 42.0424 79.54 42.0427 79.5402C42.0431 79.5403 42.0435 79.5405 42.0439 79.5406C42.0442 79.5408 42.0446 79.541 42.045 79.5411C42.0453 79.5413 42.0457 79.5414 42.0461 79.5416C42.0464 79.5418 42.0468 79.5419 42.0472 79.5421C42.0475 79.5422 42.0479 79.5424 42.0483 79.5426C42.0487 79.5427 42.049 79.5429 42.0494 79.543C42.0498 79.5432 42.0501 79.5433 42.0505 79.5435C42.0509 79.5437 42.0512 79.5438 42.0516 79.544C42.0519 79.5441 42.0523 79.5443 42.0527 79.5445C42.053 79.5446 42.0534 79.5448 42.0538 79.5449C42.0541 79.5451 42.0545 79.5452 42.0549 79.5454C42.0552 79.5456 42.0556 79.5457 42.0559 79.5459C42.0563 79.546 42.0567 79.5462 42.057 79.5463C42.0574 79.5465 42.0578 79.5467 42.0581 79.5468C42.0585 79.547 42.0588 79.5471 42.0592 79.5473C42.0596 79.5474 42.0599 79.5476 42.0603 79.5477C42.0606 79.5479 42.061 79.5481 42.0614 79.5482C42.0617 79.5484 42.0621 79.5485 42.0624 79.5487C42.0628 79.5488 42.0632 79.549 42.0635 79.5491C42.0639 79.5493 42.0642 79.5494 42.0646 79.5496C42.0649 79.5498 42.0653 79.5499 42.0656 79.5501C42.066 79.5502 42.0664 79.5504 42.0667 79.5505C42.0671 79.5507 42.0674 79.5508 42.0678 79.551C42.0681 79.5511 42.0685 79.5513 42.0688 79.5514C42.0692 79.5516 42.0696 79.5518 42.0699 79.5519C42.0703 79.5521 42.0706 79.5522 42.071 79.5524C42.0713 79.5525 42.0717 79.5527 42.072 79.5528C42.0724 79.553 42.0727 79.5531 42.0731 79.5533C42.0734 79.5534 42.0738 79.5536 42.0741 79.5537C42.0745 79.5539 42.0748 79.554 42.0752 79.5542C42.0755 79.5543 42.0759 79.5545 42.0762 79.5546C42.0766 79.5548 42.0769 79.5549 42.0773 79.5551C42.0776 79.5552 42.078 79.5554 42.0783 79.5555C42.0787 79.5557 42.079 79.5558 42.0794 79.556C42.0797 79.5561 42.0801 79.5563 42.0804 79.5564C42.0807 79.5566 42.0811 79.5567 42.0814 79.5569C42.0818 79.557 42.0821 79.5572 42.0825 79.5573C42.0828 79.5575 42.0832 79.5576 42.0835 79.5578C42.0839 79.5579 42.0842 79.5581 42.0845 79.5582C42.0849 79.5584 42.0852 79.5585 42.0856 79.5587C42.0859 79.5588 42.0863 79.559 42.0866 79.5591C42.0869 79.5593 42.0873 79.5594 42.0876 79.5596C42.088 79.5597 42.0883 79.5599 42.0886 79.56C42.089 79.5602 42.0893 79.5603 42.0897 79.5605C42.09 79.5606 42.0903 79.5607 42.0907 79.5609C42.091 79.561 42.0914 79.5612 42.0917 79.5613C42.092 79.5615 42.0924 79.5616 42.0927 79.5618C42.0931 79.5619 42.0934 79.5621 42.0937 79.5622C42.0941 79.5624 42.0944 79.5625 42.0947 79.5626C42.0951 79.5628 42.0954 79.5629 42.0957 79.5631C42.0961 79.5632 42.0964 79.5634 42.0968 79.5635C42.0971 79.5637 42.0974 79.5638 42.0978 79.564C42.0981 79.5641 42.0984 79.5642 42.0988 79.5644C42.0991 79.5645 42.0994 79.5647 42.0998 79.5648C42.1001 79.565 42.1004 79.5651 42.1008 79.5653C42.1011 79.5654 42.1014 79.5655 42.1018 79.5657C42.1021 79.5658 42.1024 79.566 42.1028 79.5661C42.1031 79.5663 42.1034 79.5664 42.1037 79.5665C42.1041 79.5667 42.1044 79.5668 42.1047 79.567C42.1051 79.5671 42.1054 79.5673 42.1057 79.5674C42.106 79.5675 42.1064 79.5677 42.1067 79.5678C42.107 79.568 42.1074 79.5681 42.1077 79.5682C42.108 79.5684 42.1083 79.5685 42.1087 79.5687C42.109 79.5688 42.1093 79.569 42.1096 79.5691C42.11 79.5692 42.1103 79.5694 42.1106 79.5695C42.111 79.5697 42.1113 79.5698 42.1116 79.5699C42.1119 79.5701 42.1122 79.5702 42.1126 79.5704C42.1129 79.5705 42.1132 79.5706 42.1135 79.5708C42.1139 79.5709 42.1142 79.5711 42.1145 79.5712C42.1148 79.5713 42.1152 79.5715 42.1155 79.5716C42.1158 79.5718 42.1161 79.5719 42.1164 79.572C42.1168 79.5722 42.1171 79.5723 42.1174 79.5725C42.1177 79.5726 42.118 79.5727 42.1184 79.5729C42.1187 79.573 42.119 79.5731 42.1193 79.5733C42.1196 79.5734 42.12 79.5736 42.1203 79.5737C42.1206 79.5738 42.1209 79.574 42.1212 79.5741C42.1216 79.5742 42.1219 79.5744 42.1222 79.5745C42.1225 79.5747 42.1228 79.5748 42.1231 79.5749C42.1235 79.5751 42.1238 79.5752 42.1241 79.5753C42.1244 79.5755 42.1247 79.5756 42.125 79.5758C42.1253 79.5759 42.1257 79.576 42.126 79.5762C42.1263 79.5763 42.1266 79.5764 42.1269 79.5766C42.1272 79.5767 42.1275 79.5768 42.1279 79.577C42.1282 79.5771 42.1285 79.5772 42.1288 79.5774C42.1291 79.5775 42.1294 79.5776 42.1297 79.5778C42.13 79.5779 42.1303 79.5781 42.1307 79.5782C42.131 79.5783 42.1313 79.5785 42.1316 79.5786C42.1319 79.5787 42.1322 79.5789 42.1325 79.579C42.1328 79.5791 42.1331 79.5793 42.1334 79.5794C42.1338 79.5795 42.1341 79.5797 42.1344 79.5798C42.1347 79.5799 42.135 79.5801 42.1353 79.5802C42.1356 79.5803 42.1359 79.5805 42.1362 79.5806C42.1365 79.5807 42.1368 79.5809 42.1371 79.581C42.1374 79.5811 42.1377 79.5812 42.138 79.5814C42.1384 79.5815 42.1387 79.5816 42.139 79.5818C42.1393 79.5819 42.1396 79.582 42.1399 79.5822C42.1402 79.5823 42.1405 79.5824 42.1408 79.5826C42.1411 79.5827 42.1414 79.5828 42.1417 79.583C42.142 79.5831 42.1423 79.5832 42.1426 79.5833C42.1429 79.5835 42.1432 79.5836 42.1435 79.5837C42.1438 79.5839 42.1441 79.584 42.1444 79.5841C42.1447 79.5843 42.145 79.5844 42.1453 79.5845C42.1456 79.5846 42.1459 79.5848 42.1462 79.5849C42.1465 79.585 42.1468 79.5852 42.1471 79.5853C42.1474 79.5854 42.1477 79.5856 42.148 79.5857C42.1483 79.5858 42.1486 79.5859 42.1489 79.5861C42.1492 79.5862 42.1495 79.5863 42.1498 79.5864C42.1501 79.5866 42.1504 79.5867 42.1507 79.5868C42.1509 79.587 42.1512 79.5871 42.1515 79.5872C42.1518 79.5873 42.1521 79.5875 42.1524 79.5876C42.1527 79.5877 42.153 79.5879 42.1533 79.588C42.1536 79.5881 42.1539 79.5882 42.1542 79.5884C42.1545 79.5885 42.1548 79.5886 42.1551 79.5887C42.1553 79.5889 42.1556 79.589 42.1559 79.5891C42.1562 79.5892 42.1565 79.5894 42.1568 79.5895C42.1571 79.5896 42.1574 79.5897 42.1577 79.5899C42.158 79.59 42.1582 79.5901 42.1585 79.5902C42.1588 79.5904 42.1591 79.5905 42.1594 79.5906C42.1597 79.5907 42.16 79.5909 42.1603 79.591C42.1606 79.5911 42.1608 79.5912 42.1611 79.5914L43.7491 75.9201ZM43.0332 75.6104C42.9473 75.5733 42.9644 75.5728 43.0317 75.6194C43.068 75.6445 43.1492 75.704 43.2439 75.8042C43.3357 75.9012 43.486 76.0845 43.5956 76.3612L39.8767 77.8343C40.119 78.4458 40.5723 78.7818 40.7546 78.908C40.9897 79.0708 41.2374 79.1918 41.4452 79.2817L43.0332 75.6104ZM43.5956 76.3612C43.7559 76.7658 43.7186 77.0993 43.6984 77.2219C43.6762 77.3567 43.6429 77.4251 43.6522 77.4035L39.9809 75.8155C39.895 76.0143 39.8006 76.2741 39.7516 76.5717C39.7046 76.857 39.6748 77.3245 39.8767 77.8343L43.5956 76.3612ZM43.6265 77.4605L44.4438 75.7221L40.8239 74.0202L40.0066 75.7586L43.6265 77.4605ZM44.4572 75.6931L47.6877 68.5266L44.0411 66.8828L40.8106 74.0492L44.4572 75.6931ZM47.6924 68.5161L52.8047 56.9992L49.1487 55.3764L44.0364 66.8933L47.6924 68.5161ZM52.8123 56.9818C53.2707 55.9221 54.406 53.4941 56.2408 49.6563L52.632 47.931C50.8066 51.7493 49.6355 54.2508 49.141 55.3938L52.8123 56.9818ZM56.2389 49.6604C56.6746 48.7543 57.3744 47.2879 58.3372 45.2635L54.7249 43.5455C53.7623 45.5694 53.0657 47.0292 52.634 47.9269L56.2389 49.6604ZM58.3377 45.2624C58.8311 44.2232 59.2201 43.3766 59.4996 42.7304C59.7468 42.1589 59.9907 41.563 60.0827 41.1335L56.1713 40.2963C56.1778 40.2656 56.1131 40.4842 55.8283 41.1425C55.5758 41.7262 55.2095 42.5249 54.7244 43.5466L58.3377 45.2624ZM59.9983 41.4207L60.4434 40.2404L56.7008 38.8288L56.2556 40.0091L59.9983 41.4207ZM60.4077 40.3286C60.4727 40.1785 60.5194 40.1035 60.5368 40.0787C60.5556 40.0518 60.5185 40.1141 60.4041 40.1943C60.2768 40.2834 60.0776 40.3765 59.8245 40.3989C59.5761 40.4209 59.3842 40.3653 59.2785 40.3196L60.8665 36.6483C59.9727 36.2617 58.9611 36.3215 58.1097 36.9178C57.4113 37.4068 56.9985 38.1347 56.7365 38.7406L60.4077 40.3286ZM59.2292 40.2974L61.243 41.2338L62.9296 37.6068L60.9158 36.6704L59.2292 40.2974ZM61.2923 41.256C61.1707 41.2034 60.9858 41.0978 60.8106 40.9004C60.6276 40.6943 60.5121 40.4515 60.4607 40.2126C60.3696 39.7893 60.5085 39.5416 60.4678 39.6355L64.1391 41.2235C64.3208 40.8034 64.5347 40.1306 64.3711 39.3709C64.1756 38.4622 63.5463 37.8728 62.8803 37.5847L61.2923 41.256ZM60.4678 39.6355C60.4378 39.7048 60.3746 39.8303 60.2577 40.0209L63.6675 42.1121C63.8463 41.8205 64.0103 41.5212 64.1391 41.2235L60.4678 39.6355ZM60.2824 39.9815C60.0915 40.2772 59.9256 40.5867 59.786 40.9095L63.4573 42.4975C63.5083 42.3797 63.5697 42.2646 63.6427 42.1515L60.2824 39.9815ZM59.9101 40.6688C59.3783 41.5486 58.3369 43.7044 56.8369 46.9731L60.4725 48.6414C62.0095 45.2918 62.9461 43.3785 63.3332 42.7382L59.9101 40.6688ZM56.8191 47.0132C56.3915 48.0016 55.2083 50.5399 53.2454 54.6739L56.8587 56.3897C58.81 52.2801 60.0286 49.6688 60.4903 48.6012L56.8191 47.0132ZM53.2464 54.6716C51.3601 58.6313 50.2034 61.0991 49.8043 62.0218L53.4755 63.6098C53.8387 62.7703 54.9567 60.3821 56.8576 56.392L53.2464 54.6716ZM49.8043 62.0218C48.875 64.1701 47.7384 66.8995 46.3955 70.2061L50.1016 71.7112C51.4384 68.4194 52.5627 65.7202 53.4755 63.6098L49.8043 62.0218ZM46.3953 70.2065C45.0904 73.422 44.2827 75.492 44.0519 76.2621L47.8836 77.4102C48.0459 76.8686 48.7587 75.0202 50.1018 71.7107L46.3953 70.2065ZM44.0266 76.3547C44.0013 76.4567 43.9498 76.6148 43.8537 76.837L47.525 78.4249C47.683 78.0597 47.8171 77.6879 47.909 77.3176L44.0266 76.3547ZM43.8537 76.837C43.8538 76.8367 43.8613 76.8194 43.8786 76.7899C43.8959 76.7607 43.9267 76.713 43.9751 76.6555C44.0725 76.5398 44.2574 76.3664 44.5494 76.2507L46.0225 79.9696C46.9115 79.6175 47.3332 78.8683 47.525 78.4249L43.8537 76.837ZM44.199 76.4313C44.3279 76.3479 44.4305 76.3121 44.4713 76.2994C44.5141 76.2862 44.526 76.287 44.494 76.2913L45.0211 80.2564C45.3855 80.208 45.896 80.0978 46.3729 79.7891L44.199 76.4313ZM44.4 76.3061C44.518 76.2846 44.6095 76.2822 44.661 76.2828C44.7143 76.2835 44.7479 76.2878 44.7566 76.289C44.7702 76.2908 44.7381 76.2871 44.6466 76.2608C44.4622 76.2078 44.17 76.1021 43.7491 75.9201L42.1611 79.5914C42.658 79.8063 43.1252 79.9855 43.5415 80.1052C43.8701 80.1996 44.4815 80.3568 45.1151 80.2416L44.4 76.3061Z" fill="#0C3C87"/>
<path d="M66.21 28.6C66.21 33.8433 64.01 37.3267 59.61 39.05C55.1733 40.7733 50.425 41.635 45.365 41.635C40.4883 41.635 36.5833 40.975 33.65 39.655C30.7167 38.2983 28.6633 36.6667 27.49 34.76C26.3167 32.8167 25.73 30.8917 25.73 28.985C25.73 25.3183 26.7933 22.5683 28.92 20.735C31.01 18.9017 33.5033 17.7283 36.4 17.215C39.26 16.7017 42.505 16.445 46.135 16.445C49.0683 16.445 52.0933 16.885 55.21 17.765C58.29 18.645 60.8933 20.0017 63.02 21.835C65.1467 23.6683 66.21 25.9233 66.21 28.6ZM52.24 29.04C52.24 28.05 51.69 27.3167 50.59 26.84C49.49 26.3633 48.17 26.125 46.63 26.125C45.1633 26.125 43.88 26.3633 42.78 26.84C41.68 27.28 41.13 27.885 41.13 28.655C41.13 29.5717 41.7717 30.2683 43.055 30.745C44.3017 31.185 45.6583 31.405 47.125 31.405C48.6283 31.405 49.8567 31.2583 50.81 30.965C51.7633 30.6717 52.24 30.03 52.24 29.04Z" fill="#0C3C87"/>
<ellipse cx="48" cy="28.5" rx="8" ry="4.5" fill="#0C3C87"/>
</svg>
